WIPSHDC-Missing-JP-Sans-ExtraLight.ufo
<glyph name="uni4E5E" format="2">
  <advance width="1000" height="1000"/>
  <unicode hex="4E5E"/>
  <note>
cid09607
</note>
  <outline>
    <contour>
      <point x="714" y="496" type="line"/>
      <point x="187" y="496" type="line"/>
      <point x="187" y="467" type="line"/>
      <point x="714" y="467" type="line"/>
    </contour>
    <contour>
      <point x="717" y="496" type="line"/>
      <point x="712" y="496" type="line"/>
      <point x="174" y="138"/>
      <point x="154" y="73"/>
      <point x="154" y="25" type="curve" smooth="yes"/>
      <point x="154" y="-26"/>
      <point x="198" y="-55"/>
      <point x="296" y="-55" type="curve" smooth="yes"/>
      <point x="815" y="-55" type="line" smooth="yes"/>
      <point x="897" y="-55"/>
      <point x="916" y="-30"/>
      <point x="924" y="119" type="curve"/>
      <point x="916" y="121"/>
      <point x="902" y="126"/>
      <point x="894" y="131" type="curve"/>
      <point x="889" y="-2"/>
      <point x="877" y="-26"/>
      <point x="815" y="-26" type="curve" smooth="yes"/>
      <point x="290" y="-25" type="line" smooth="yes"/>
      <point x="228" y="-25"/>
      <point x="184" y="-10"/>
      <point x="184" y="26" type="curve" smooth="yes"/>
      <point x="184" y="66"/>
      <point x="218" y="128"/>
      <point x="736" y="477" type="curve"/>
      <point x="740" y="479"/>
      <point x="744" y="482"/>
      <point x="746" y="485" type="curve"/>
      <point x="724" y="498" type="line"/>
    </contour>
    <contour>
      <point x="325" y="825" type="curve"/>
      <point x="295" y="833" type="line"/>
      <point x="240" y="697"/>
      <point x="148" y="571"/>
      <point x="45" y="489" type="curve"/>
      <point x="53" y="484"/>
      <point x="66" y="474"/>
      <point x="72" y="469" type="curve"/>
      <point x="172" y="555"/>
      <point x="265" y="683"/>
    </contour>
    <contour>
      <point x="920" y="685" type="line"/>
      <point x="231" y="685" type="line"/>
      <point x="217" y="656" type="line"/>
      <point x="920" y="656" type="line"/>
    </contour>
  </outline>
</glyph>
<glyph name="uni4E69" format="2">
  <advance width="1000" height="1000"/>
  <unicode hex="4E69"/>
  <note>
cid09646
</note>
  <outline>
    <contour>
      <point x="635" y="32" type="curve" smooth="yes"/>
      <point x="635" y="820" type="line"/>
      <point x="605" y="820" type="line"/>
      <point x="605" y="34" type="line" smooth="yes"/>
      <point x="605" y="-37"/>
      <point x="622" y="-52"/>
      <point x="689" y="-52" type="curve" smooth="yes"/>
      <point x="704" y="-52"/>
      <point x="850" y="-52"/>
      <point x="866" y="-52" type="curve" smooth="yes"/>
      <point x="939" y="-52"/>
      <point x="947" y="1"/>
      <point x="952" y="178" type="curve"/>
      <point x="943" y="180"/>
      <point x="933" y="185"/>
      <point x="924" y="193" type="curve"/>
      <point x="919" y="17"/>
      <point x="914" y="-26"/>
      <point x="867" y="-26" type="curve" smooth="yes"/>
      <point x="839" y="-26"/>
      <point x="708" y="-26"/>
      <point x="688" y="-26" type="curve" smooth="yes"/>
      <point x="643" y="-26"/>
      <point x="635" y="-17"/>
    </contour>
    <contour>
      <point x="298" y="345" type="line"/>
      <point x="298" y="830" type="line"/>
      <point x="269" y="830" type="line"/>
      <point x="269" y="345" type="line"/>
    </contour>
    <contour>
      <point x="554" y="577" type="line"/>
      <point x="554" y="607" type="line"/>
      <point x="280" y="607" type="line"/>
      <point x="280" y="577" type="line"/>
    </contour>
    <contour>
      <point x="479" y="-16" type="line"/>
      <point x="479" y="14" type="line"/>
      <point x="113" y="14" type="line"/>
      <point x="113" y="-16" type="line"/>
    </contour>
    <contour>
      <point x="491" y="-66" type="line"/>
      <point x="491" y="363" type="line"/>
      <point x="99" y="363" type="line"/>
      <point x="99" y="-70" type="line"/>
      <point x="129" y="-70" type="line"/>
      <point x="129" y="333" type="line"/>
      <point x="462" y="333" type="line"/>
      <point x="462" y="-66" type="line"/>
    </contour>
  </outline>
</glyph>
<glyph name="uni4E71" format="2">
  <advance width="1000" height="1000"/>
  <unicode hex="4E71"/>
  <note>
cid09655
</note>
  <outline>
    <contour>
      <point x="566" y="502" type="line"/>
      <point x="566" y="531" type="line"/>
      <point x="49" y="531" type="line"/>
      <point x="49" y="502" type="line"/>
    </contour>
    <contour>
      <point x="496" y="-15" type="line"/>
      <point x="496" y="15" type="line"/>
      <point x="125" y="15" type="line"/>
      <point x="125" y="-15" type="line"/>
    </contour>
    <contour>
      <point x="535" y="794" type="curve"/>
      <point x="508" y="817" type="line"/>
      <point x="415" y="778"/>
      <point x="223" y="748"/>
      <point x="68" y="730" type="curve"/>
      <point x="72" y="722"/>
      <point x="77" y="712"/>
      <point x="79" y="705" type="curve"/>
      <point x="236" y="722"/>
      <point x="427" y="752"/>
    </contour>
    <contour>
      <point x="637" y="33" type="curve" smooth="yes"/>
      <point x="637" y="822" type="line"/>
      <point x="607" y="822" type="line"/>
      <point x="607" y="34" type="line" smooth="yes"/>
      <point x="607" y="-36"/>
      <point x="625" y="-51"/>
      <point x="693" y="-51" type="curve" smooth="yes"/>
      <point x="707" y="-51"/>
      <point x="852" y="-51"/>
      <point x="867" y="-51" type="curve" smooth="yes"/>
      <point x="937" y="-51"/>
      <point x="945" y="-4"/>
      <point x="951" y="153" type="curve"/>
      <point x="942" y="155"/>
      <point x="931" y="160"/>
      <point x="922" y="168" type="curve"/>
      <point x="917" y="14"/>
      <point x="912" y="-24"/>
      <point x="868" y="-24" type="curve" smooth="yes"/>
      <point x="839" y="-24"/>
      <point x="712" y="-24"/>
      <point x="691" y="-24" type="curve" smooth="yes"/>
      <point x="646" y="-24"/>
      <point x="637" y="-15"/>
    </contour>
    <contour>
      <point x="512" y="-67" type="line"/>
      <point x="512" y="299" type="line"/>
      <point x="109" y="299" type="line"/>
      <point x="109" y="-70" type="line"/>
      <point x="138" y="-70" type="line"/>
      <point x="138" y="269" type="line"/>
      <point x="482" y="269" type="line"/>
      <point x="482" y="-67" type="line"/>
    </contour>
    <contour>
      <point x="325" y="281" type="line"/>
      <point x="325" y="756" type="line"/>
      <point x="295" y="756" type="line"/>
      <point x="295" y="281" type="line"/>
    </contour>
  </outline>
</glyph>
<glyph name="uni4E88" format="2">
  <advance width="1000" height="1000"/>
  <unicode hex="4E88"/>
  <note>
cid09689
</note>
  <outline>
    <contour>
      <point x="511" y="-18" type="curve" smooth="yes"/>
      <point x="511" y="447" type="line"/>
      <point x="481" y="447" type="line"/>
      <point x="481" y="-19" type="line" smooth="yes"/>
      <point x="481" y="-34"/>
      <point x="476" y="-39"/>
      <point x="459" y="-40" type="curve" smooth="yes"/>
      <point x="439" y="-41"/>
      <point x="378" y="-42"/>
      <point x="298" y="-40" type="curve"/>
      <point x="303" y="-50"/>
      <point x="309" y="-61"/>
      <point x="311" y="-70" type="curve"/>
      <point x="401" y="-70"/>
      <point x="453" y="-70"/>
      <point x="477" y="-64" type="curve" smooth="yes"/>
      <point x="502" y="-59"/>
      <point x="511" y="-47"/>
    </contour>
    <contour>
      <point x="800" y="749" type="line"/>
      <point x="800" y="778" type="line"/>
      <point x="151" y="778" type="line"/>
      <point x="151" y="749" type="line"/>
    </contour>
    <contour>
      <point x="803" y="780" type="line"/>
      <point x="796" y="778" type="line"/>
      <point x="789" y="778" type="line"/>
      <point x="789" y="771" type="line"/>
      <point x="721" y="699"/>
      <point x="593" y="610"/>
      <point x="494" y="560" type="curve"/>
      <point x="501" y="555"/>
      <point x="510" y="546"/>
      <point x="515" y="539" type="curve"/>
      <point x="614" y="593"/>
      <point x="744" y="681"/>
      <point x="825" y="765" type="curve"/>
    </contour>
    <contour>
      <point x="917" y="436" type="line"/>
      <point x="917" y="466" type="line"/>
      <point x="60" y="466" type="line"/>
      <point x="60" y="436" type="line"/>
    </contour>
    <contour>
      <point x="304" y="666" type="curve"/>
      <point x="285" y="645" type="line"/>
      <point x="412" y="596"/>
      <point x="562" y="517"/>
      <point x="649" y="453" type="curve"/>
      <point x="667" y="478" type="line"/>
      <point x="580" y="540"/>
      <point x="430" y="618"/>
    </contour>
    <contour>
      <point x="919" y="468" type="line"/>
      <point x="912" y="466" type="line"/>
      <point x="905" y="466" type="line"/>
      <point x="905" y="457" type="line"/>
      <point x="853" y="381"/>
      <point x="780" y="294"/>
      <point x="721" y="243" type="curve"/>
      <point x="744" y="228" type="line"/>
      <point x="809" y="281"/>
      <point x="878" y="374"/>
      <point x="941" y="456" type="curve"/>
    </contour>
  </outline>
</glyph>
<glyph name="uni4E8B" format="2">
  <advance width="1000" height="1000"/>
  <unicode hex="4E8B"/>
  <note>
cid09693
</note>
  <outline>
    <contour>
      <point x="512" y="-16" type="curve" smooth="yes"/>
      <point x="512" y="831" type="line"/>
      <point x="482" y="831" type="line"/>
      <point x="482" y="-16" type="line" smooth="yes"/>
      <point x="482" y="-35"/>
      <point x="476" y="-40"/>
      <point x="458" y="-41" type="curve" smooth="yes"/>
      <point x="440" y="-42"/>
      <point x="378" y="-43"/>
      <point x="306" y="-41" type="curve"/>
      <point x="311" y="-51"/>
      <point x="317" y="-65"/>
      <point x="319" y="-73" type="curve"/>
      <point x="402" y="-73"/>
      <point x="452" y="-73"/>
      <point x="476" y="-67" type="curve" smooth="yes"/>
      <point x="500" y="-62"/>
      <point x="512" y="-50"/>
    </contour>
    <contour>
      <point x="930" y="707" type="line"/>
      <point x="930" y="736" type="line"/>
      <point x="74" y="736" type="line"/>
      <point x="74" y="707" type="line"/>
    </contour>
    <contour>
      <point x="799" y="482" type="line"/>
      <point x="210" y="482" type="line"/>
      <point x="210" y="599" type="line"/>
      <point x="799" y="599" type="line"/>
    </contour>
    <contour>
      <point x="828" y="452" type="line"/>
      <point x="828" y="628" type="line"/>
      <point x="181" y="628" type="line"/>
      <point x="181" y="452" type="line"/>
    </contour>
    <contour>
      <point x="842" y="31" type="line"/>
      <point x="842" y="367" type="line"/>
      <point x="148" y="367" type="line"/>
      <point x="148" y="338" type="line"/>
      <point x="813" y="338" type="line"/>
      <point x="813" y="31" type="line"/>
    </contour>
    <contour>
      <point x="946" y="212" type="line"/>
      <point x="946" y="241" type="line"/>
      <point x="59" y="241" type="line"/>
      <point x="59" y="212" type="line"/>
    </contour>
    <contour>
      <point x="826" y="78" type="line"/>
      <point x="826" y="108" type="line"/>
      <point x="137" y="108" type="line"/>
      <point x="137" y="78" type="line"/>
    </contour>
  </outline>
</glyph>
<glyph name="uni4ED6" format="2">
  <advance width="1000" height="1000"/>
  <unicode hex="4ED6"/>
  <note>
cid09814
</note>
  <outline>
    <contour>
      <point x="664" y="154" type="line"/>
      <point x="664" y="820" type="line"/>
      <point x="634" y="820" type="line"/>
      <point x="634" y="154" type="line"/>
    </contour>
    <contour>
      <point x="899" y="611" type="line"/>
      <point x="889" y="636" type="line"/>
      <point x="272" y="400" type="line"/>
      <point x="282" y="374" type="line"/>
    </contour>
    <contour>
      <point x="435" y="40" type="curve" smooth="yes"/>
      <point x="435" y="737" type="line"/>
      <point x="406" y="737" type="line"/>
      <point x="406" y="41" type="line" smooth="yes"/>
      <point x="406" y="-40"/>
      <point x="436" y="-60"/>
      <point x="534" y="-60" type="curve" smooth="yes"/>
      <point x="557" y="-60"/>
      <point x="809" y="-60"/>
      <point x="832" y="-60" type="curve" smooth="yes"/>
      <point x="930" y="-60"/>
      <point x="943" y="-18"/>
      <point x="952" y="116" type="curve"/>
      <point x="943" y="117"/>
      <point x="930" y="122"/>
      <point x="921" y="129" type="curve"/>
      <point x="914" y="2"/>
      <point x="904" y="-30"/>
      <point x="837" y="-30" type="curve" smooth="yes"/>
      <point x="784" y="-30"/>
      <point x="568" y="-30"/>
      <point x="529" y="-30" type="curve" smooth="yes"/>
      <point x="452" y="-30"/>
      <point x="435" y="-14"/>
    </contour>
    <contour>
      <point x="881" y="634" type="line"/>
      <point x="866" y="620" type="line"/>
      <point x="877" y="620" type="line"/>
      <point x="877" y="449"/>
      <point x="874" y="287"/>
      <point x="863" y="253" type="curve"/>
      <point x="857" y="224"/>
      <point x="844" y="219"/>
      <point x="823" y="219" type="curve" smooth="yes"/>
      <point x="811" y="219"/>
      <point x="765" y="219"/>
      <point x="730" y="221" type="curve"/>
      <point x="735" y="212"/>
      <point x="739" y="200"/>
      <point x="741" y="191" type="curve"/>
      <point x="765" y="190"/>
      <point x="807" y="190"/>
      <point x="831" y="190" type="curve" smooth="yes"/>
      <point x="860" y="191"/>
      <point x="883" y="204"/>
      <point x="892" y="240" type="curve" smooth="yes"/>
      <point x="902" y="278"/>
      <point x="906" y="445"/>
      <point x="907" y="623" type="curve"/>
      <point x="910" y="630" type="line"/>
      <point x="888" y="641" type="line"/>
    </contour>
    <contour>
      <point x="319" y="819" type="curve"/>
      <point x="291" y="827" type="line"/>
      <point x="230" y="666"/>
      <point x="130" y="508"/>
      <point x="23" y="406" type="curve"/>
      <point x="30" y="400"/>
      <point x="40" y="387"/>
      <point x="44" y="382" type="curve"/>
      <point x="151" y="492"/>
      <point x="252" y="650"/>
    </contour>
    <contour>
      <point x="180" y="588" type="line"/>
      <point x="180" y="-70" type="line"/>
      <point x="209" y="-70" type="line"/>
      <point x="209" y="615" type="line"/>
      <point x="207" y="616" type="line"/>
    </contour>
  </outline>
</glyph>
<glyph name="uni4ED7" format="2">
  <advance width="1000" height="1000"/>
  <unicode hex="4ED7"/>
  <note>
cid09816
</note>
  <outline>
    <contour>
      <point x="952" y="582" type="line"/>
      <point x="952" y="612" type="line"/>
      <point x="316" y="612" type="line"/>
      <point x="316" y="582" type="line"/>
    </contour>
    <contour>
      <point x="432" y="478" type="curve"/>
      <point x="405" y="471" type="line"/>
      <point x="480" y="173"/>
      <point x="645" y="-7"/>
      <point x="947" y="-72" type="curve"/>
      <point x="952" y="-64"/>
      <point x="960" y="-53"/>
      <point x="966" y="-46" type="curve"/>
      <point x="665" y="13"/>
      <point x="503" y="190"/>
    </contour>
    <contour>
      <point x="694" y="550" type="curve" smooth="yes"/>
      <point x="694" y="832" type="line"/>
      <point x="664" y="832" type="line"/>
      <point x="664" y="550" type="line" smooth="yes"/>
      <point x="664" y="338"/>
      <point x="631" y="114"/>
      <point x="282" y="-49" type="curve"/>
      <point x="290" y="-55"/>
      <point x="300" y="-65"/>
      <point x="304" y="-72" type="curve"/>
      <point x="658" y="95"/>
      <point x="694" y="328"/>
    </contour>
    <contour>
      <point x="205" y="580" type="line"/>
      <point x="205" y="-68" type="line"/>
      <point x="234" y="-68" type="line"/>
      <point x="234" y="609" type="line"/>
      <point x="234" y="610" type="line"/>
    </contour>
    <contour>
      <point x="350" y="816" type="curve"/>
      <point x="323" y="823" type="line"/>
      <point x="255" y="657"/>
      <point x="145" y="497"/>
      <point x="29" y="393" type="curve"/>
      <point x="36" y="387"/>
      <point x="47" y="376"/>
      <point x="51" y="370" type="curve"/>
      <point x="168" y="480"/>
      <point x="278" y="641"/>
    </contour>
  </outline>
</glyph>
<glyph name="uni4ED8" format="2">
  <advance width="1000" height="1000"/>
  <unicode hex="4ED8"/>
  <note>
cid09817
</note>
  <outline>
    <contour>
      <point x="950" y="572" type="line"/>
      <point x="950" y="602" type="line"/>
      <point x="329" y="602" type="line"/>
      <point x="329" y="572" type="line"/>
    </contour>
    <contour>
      <point x="798" y="-10" type="curve" smooth="yes"/>
      <point x="798" y="818" type="line"/>
      <point x="769" y="818" type="line"/>
      <point x="769" y="-11" type="line" smooth="yes"/>
      <point x="769" y="-34"/>
      <point x="761" y="-40"/>
      <point x="738" y="-42" type="curve" smooth="yes"/>
      <point x="716" y="-43"/>
      <point x="638" y="-44"/>
      <point x="546" y="-41" type="curve"/>
      <point x="551" y="-51"/>
      <point x="557" y="-65"/>
      <point x="560" y="-72" type="curve"/>
      <point x="667" y="-73"/>
      <point x="726" y="-73"/>
      <point x="756" y="-67" type="curve" smooth="yes"/>
      <point x="784" y="-62"/>
      <point x="798" y="-49"/>
    </contour>
    <contour>
      <point x="426" y="440" type="curve"/>
      <point x="402" y="428" type="line"/>
      <point x="466" y="353"/>
      <point x="533" y="246"/>
      <point x="566" y="169" type="curve"/>
      <point x="592" y="187" type="line"/>
      <point x="559" y="263"/>
      <point x="491" y="367"/>
    </contour>
    <contour>
      <point x="205" y="580" type="line"/>
      <point x="205" y="-70" type="line"/>
      <point x="234" y="-70" type="line"/>
      <point x="234" y="609" type="line"/>
      <point x="234" y="610" type="line"/>
    </contour>
    <contour>
      <point x="351" y="816" type="curve"/>
      <point x="323" y="823" type="line"/>
      <point x="260" y="658"/>
      <point x="159" y="498"/>
      <point x="49" y="393" type="curve"/>
      <point x="56" y="387"/>
      <point x="67" y="376"/>
      <point x="72" y="370" type="curve"/>
      <point x="182" y="481"/>
      <point x="283" y="642"/>
    </contour>
  </outline>
</glyph>
<glyph name="uni4EDE" format="2">
  <advance width="1000" height="1000"/>
  <unicode hex="4EDE"/>
  <note>
cid09826
</note>
  <outline>
    <contour>
      <point x="921" y="691" type="line"/>
      <point x="921" y="720" type="line"/>
      <point x="343" y="720" type="line"/>
      <point x="343" y="691" type="line"/>
    </contour>
    <contour>
      <point x="938" y="720" type="curve"/>
      <point x="909" y="720" type="line"/>
      <point x="909" y="712" type="line" smooth="yes"/>
      <point x="891" y="196"/>
      <point x="871" y="18"/>
      <point x="834" y="-22" type="curve"/>
      <point x="823" y="-36"/>
      <point x="812" y="-38"/>
      <point x="792" y="-38" type="curve" smooth="yes"/>
      <point x="770" y="-38"/>
      <point x="711" y="-37"/>
      <point x="645" y="-32" type="curve"/>
      <point x="651" y="-40"/>
      <point x="653" y="-52"/>
      <point x="654" y="-62" type="curve"/>
      <point x="708" y="-66"/>
      <point x="765" y="-67"/>
      <point x="795" y="-67" type="curve" smooth="yes"/>
      <point x="825" y="-66"/>
      <point x="844" y="-60"/>
      <point x="862" y="-39" type="curve" smooth="yes"/>
      <point x="903" y="10"/>
      <point x="919" y="177"/>
      <point x="938" y="697" type="curve" smooth="yes"/>
      <point x="938" y="703"/>
      <point x="938" y="720"/>
    </contour>
    <contour>
      <point x="642" y="710" type="curve"/>
      <point x="612" y="710" type="line"/>
      <point x="604" y="441"/>
      <point x="590" y="74"/>
      <point x="281" y="-55" type="curve"/>
      <point x="287" y="-60"/>
      <point x="297" y="-70"/>
      <point x="301" y="-75" type="curve"/>
      <point x="614" y="59"/>
      <point x="632" y="430"/>
    </contour>
    <contour>
      <point x="455" y="543" type="curve"/>
      <point x="429" y="551" type="line"/>
      <point x="408" y="440"/>
      <point x="350" y="326"/>
      <point x="288" y="274" type="curve"/>
      <point x="313" y="260" type="line"/>
      <point x="373" y="314"/>
      <point x="432" y="431"/>
    </contour>
    <contour>
      <point x="327" y="819" type="curve"/>
      <point x="299" y="827" type="line"/>
      <point x="234" y="669"/>
      <point x="133" y="513"/>
      <point x="27" y="410" type="curve"/>
      <point x="34" y="404"/>
      <point x="44" y="391"/>
      <point x="49" y="385" type="curve"/>
      <point x="155" y="495"/>
      <point x="258" y="654"/>
    </contour>
    <contour>
      <point x="187" y="586" type="line"/>
      <point x="187" y="-70" type="line"/>
      <point x="217" y="-70" type="line"/>
      <point x="217" y="613" type="line"/>
      <point x="215" y="614" type="line"/>
    </contour>
  </outline>
</glyph>
<glyph name="uni4EDF" format="2">
  <advance width="1000" height="1000"/>
  <unicode hex="4EDF"/>
  <note>
cid09828
</note>
  <outline>
    <contour>
      <point x="950" y="393" type="line"/>
      <point x="950" y="423" type="line"/>
      <point x="305" y="423" type="line"/>
      <point x="305" y="393" type="line"/>
    </contour>
    <contour>
      <point x="891" y="767" type="curve"/>
      <point x="864" y="789" type="line"/>
      <point x="751" y="744"/>
      <point x="525" y="704"/>
      <point x="340" y="678" type="curve"/>
      <point x="344" y="671"/>
      <point x="348" y="662"/>
      <point x="350" y="655" type="curve"/>
      <point x="539" y="679"/>
      <point x="763" y="719"/>
    </contour>
    <contour>
      <point x="641" y="-70" type="line"/>
      <point x="641" y="715" type="line"/>
      <point x="612" y="715" type="line"/>
      <point x="612" y="-70" type="line"/>
    </contour>
    <contour>
      <point x="350" y="816" type="curve"/>
      <point x="323" y="823" type="line"/>
      <point x="255" y="657"/>
      <point x="145" y="497"/>
      <point x="29" y="393" type="curve"/>
      <point x="36" y="387"/>
      <point x="47" y="376"/>
      <point x="51" y="370" type="curve"/>
      <point x="168" y="480"/>
      <point x="278" y="641"/>
    </contour>
    <contour>
      <point x="205" y="580" type="line"/>
      <point x="205" y="-68" type="line"/>
      <point x="234" y="-68" type="line"/>
      <point x="234" y="609" type="line"/>
      <point x="234" y="610" type="line"/>
    </contour>
  </outline>
</glyph>
<glyph name="uni4EF6" format="2">
  <advance width="1000" height="1000"/>
  <unicode hex="4EF6"/>
  <note>
cid09862
</note>
  <outline>
    <contour>
      <point x="640" y="-71" type="line"/>
      <point x="640" y="819" type="line"/>
      <point x="611" y="819" type="line"/>
      <point x="611" y="-71" type="line"/>
    </contour>
    <contour>
      <point x="469" y="776" type="curve"/>
      <point x="441" y="782" type="line"/>
      <point x="411" y="646"/>
      <point x="362" y="517"/>
      <point x="295" y="431" type="curve"/>
      <point x="303" y="428"/>
      <point x="315" y="418"/>
      <point x="319" y="413" type="curve"/>
      <point x="385" y="502"/>
      <point x="436" y="632"/>
    </contour>
    <contour>
      <point x="910" y="585" type="line"/>
      <point x="910" y="615" type="line"/>
      <point x="407" y="615" type="line"/>
      <point x="399" y="585" type="line"/>
    </contour>
    <contour>
      <point x="950" y="287" type="line"/>
      <point x="950" y="317" type="line"/>
      <point x="282" y="317" type="line"/>
      <point x="282" y="287" type="line"/>
    </contour>
    <contour>
      <point x="322" y="819" type="curve"/>
      <point x="293" y="827" type="line"/>
      <point x="236" y="667"/>
      <point x="144" y="509"/>
      <point x="45" y="405" type="curve"/>
      <point x="52" y="399"/>
      <point x="63" y="387"/>
      <point x="67" y="381" type="curve"/>
      <point x="168" y="492"/>
      <point x="260" y="651"/>
    </contour>
    <contour>
      <point x="190" y="588" type="line"/>
      <point x="190" y="-70" type="line"/>
      <point x="220" y="-70" type="line"/>
      <point x="220" y="615" type="line"/>
      <point x="218" y="616" type="line"/>
    </contour>
  </outline>
</glyph>
<glyph name="uni4F0F" format="2">
  <advance width="1000" height="1000"/>
  <unicode hex="4F0F"/>
  <note>
cid09899
</note>
  <outline>
    <contour>
      <point x="331" y="819" type="curve"/>
      <point x="303" y="827" type="line"/>
      <point x="241" y="666"/>
      <point x="141" y="508"/>
      <point x="35" y="405" type="curve"/>
      <point x="41" y="400"/>
      <point x="52" y="387"/>
      <point x="56" y="381" type="curve"/>
      <point x="164" y="491"/>
      <point x="265" y="650"/>
    </contour>
    <contour>
      <point x="197" y="588" type="line"/>
      <point x="197" y="-70" type="line"/>
      <point x="227" y="-70" type="line"/>
      <point x="227" y="615" type="line"/>
      <point x="225" y="616" type="line"/>
    </contour>
    <contour>
      <point x="945" y="489" type="line"/>
      <point x="945" y="519" type="line"/>
      <point x="289" y="519" type="line"/>
      <point x="289" y="489" type="line"/>
    </contour>
    <contour>
      <point x="625" y="509" type="curve"/>
      <point x="598" y="505" type="line"/>
      <point x="627" y="223"/>
      <point x="747" y="17"/>
      <point x="932" y="-71" type="curve"/>
      <point x="938" y="-63"/>
      <point x="947" y="-52"/>
      <point x="954" y="-46" type="curve"/>
      <point x="774" y="35"/>
      <point x="656" y="234"/>
    </contour>
    <contour>
      <point x="741" y="800" type="curve"/>
      <point x="719" y="783" type="line"/>
      <point x="780" y="730"/>
      <point x="851" y="656"/>
      <point x="884" y="607" type="curve"/>
      <point x="908" y="627" type="line"/>
      <point x="874" y="675"/>
      <point x="803" y="749"/>
    </contour>
    <contour>
      <point x="620" y="618" type="curve" smooth="yes"/>
      <point x="620" y="829" type="line"/>
      <point x="591" y="829" type="line"/>
      <point x="591" y="618" type="line" smooth="yes"/>
      <point x="591" y="410"/>
      <point x="570" y="108"/>
      <point x="281" y="-48" type="curve"/>
      <point x="289" y="-53"/>
      <point x="300" y="-63"/>
      <point x="305" y="-69" type="curve"/>
      <point x="596" y="95"/>
      <point x="620" y="397"/>
    </contour>
  </outline>
</glyph>
<glyph name="uni4F10" format="2">
  <advance width="1000" height="1000"/>
  <unicode hex="4F10"/>
  <note>
cid09900
</note>
  <outline>
    <contour>
      <point x="927" y="556" type="line"/>
      <point x="924" y="585" type="line"/>
      <point x="273" y="518" type="line"/>
      <point x="276" y="489" type="line"/>
    </contour>
    <contour>
      <point x="574" y="820" type="curve"/>
      <point x="543" y="820" type="line"/>
      <point x="551" y="330"/>
      <point x="677" y="-70"/>
      <point x="864" y="-71" type="curve" smooth="yes"/>
      <point x="921" y="-70"/>
      <point x="938" y="-22"/>
      <point x="947" y="121" type="curve"/>
      <point x="939" y="124"/>
      <point x="926" y="129"/>
      <point x="919" y="134" type="curve"/>
      <point x="913" y="5"/>
      <point x="900" y="-41"/>
      <point x="866" y="-41" type="curve" smooth="yes"/>
      <point x="710" y="-42"/>
      <point x="577" y="320"/>
    </contour>
    <contour>
      <point x="861" y="456" type="curve"/>
      <point x="834" y="465" type="line"/>
      <point x="729" y="238"/>
      <point x="538" y="71"/>
      <point x="302" y="-32" type="curve"/>
      <point x="310" y="-38"/>
      <point x="321" y="-48"/>
      <point x="326" y="-54" type="curve"/>
      <point x="559" y="55"/>
      <point x="751" y="220"/>
    </contour>
    <contour>
      <point x="690" y="805" type="curve"/>
      <point x="673" y="789" type="line"/>
      <point x="738" y="749"/>
      <point x="814" y="686"/>
      <point x="857" y="638" type="curve"/>
      <point x="875" y="659" type="line"/>
      <point x="831" y="705"/>
      <point x="755" y="765"/>
    </contour>
    <contour>
      <point x="317" y="815" type="curve"/>
      <point x="288" y="822" type="line"/>
      <point x="228" y="658"/>
      <point x="130" y="497"/>
      <point x="24" y="392" type="curve"/>
      <point x="31" y="386"/>
      <point x="41" y="375"/>
      <point x="45" y="369" type="curve"/>
      <point x="152" y="480"/>
      <point x="251" y="642"/>
    </contour>
    <contour>
      <point x="189" y="595" type="line"/>
      <point x="189" y="-70" type="line"/>
      <point x="219" y="-70" type="line"/>
      <point x="219" y="621" type="line"/>
      <point x="217" y="622" type="line"/>
    </contour>
  </outline>
</glyph>
<glyph name="uni4F2F" format="2">
  <advance width="1000" height="1000"/>
  <unicode hex="4F2F"/>
  <note>
cid09940
</note>
  <outline>
    <contour>
      <point x="901" y="-63" type="line"/>
      <point x="901" y="645" type="line"/>
      <point x="382" y="645" type="line"/>
      <point x="382" y="-69" type="line"/>
      <point x="411" y="-69" type="line"/>
      <point x="411" y="616" type="line"/>
      <point x="871" y="616" type="line"/>
      <point x="871" y="-63" type="line"/>
    </contour>
    <contour>
      <point x="663" y="822" type="curve"/>
      <point x="631" y="831" type="line"/>
      <point x="617" y="772"/>
      <point x="589" y="682"/>
      <point x="565" y="629" type="curve"/>
      <point x="592" y="621" type="line"/>
      <point x="614" y="673"/>
      <point x="642" y="757"/>
    </contour>
    <contour>
      <point x="895" y="302" type="line"/>
      <point x="895" y="331" type="line"/>
      <point x="389" y="331" type="line"/>
      <point x="389" y="302" type="line"/>
    </contour>
    <contour>
      <point x="895" y="-23" type="line"/>
      <point x="895" y="6" type="line"/>
      <point x="389" y="6" type="line"/>
      <point x="389" y="-23" type="line"/>
    </contour>
    <contour>
      <point x="350" y="816" type="curve"/>
      <point x="323" y="823" type="line"/>
      <point x="255" y="657"/>
      <point x="145" y="497"/>
      <point x="29" y="393" type="curve"/>
      <point x="36" y="387"/>
      <point x="47" y="376"/>
      <point x="51" y="370" type="curve"/>
      <point x="168" y="480"/>
      <point x="278" y="641"/>
    </contour>
    <contour>
      <point x="205" y="578" type="line"/>
      <point x="205" y="-70" type="line"/>
      <point x="234" y="-70" type="line"/>
      <point x="234" y="607" type="line"/>
      <point x="234" y="608" type="line"/>
    </contour>
  </outline>
</glyph>
<glyph name="uni4F43" format="2">
  <advance width="1000" height="1000"/>
  <unicode hex="4F43"/>
  <note>
cid09966
</note>
  <outline>
    <contour>
      <point x="904" y="-12" type="line"/>
      <point x="904" y="18" type="line"/>
      <point x="380" y="18" type="line"/>
      <point x="380" y="-12" type="line"/>
    </contour>
    <contour>
      <point x="904" y="369" type="line"/>
      <point x="904" y="398" type="line"/>
      <point x="380" y="398" type="line"/>
      <point x="380" y="369" type="line"/>
    </contour>
    <contour>
      <point x="648" y="-5" type="line"/>
      <point x="648" y="753" type="line"/>
      <point x="619" y="753" type="line"/>
      <point x="619" y="-5" type="line"/>
    </contour>
    <contour>
      <point x="916" y="-63" type="line"/>
      <point x="916" y="762" type="line"/>
      <point x="363" y="762" type="line"/>
      <point x="363" y="-70" type="line"/>
      <point x="392" y="-70" type="line"/>
      <point x="392" y="733" type="line"/>
      <point x="885" y="733" type="line"/>
      <point x="885" y="-63" type="line"/>
    </contour>
    <contour>
      <point x="320" y="819" type="curve"/>
      <point x="291" y="827" type="line"/>
      <point x="230" y="666"/>
      <point x="130" y="508"/>
      <point x="23" y="405" type="curve"/>
      <point x="30" y="400"/>
      <point x="40" y="387"/>
      <point x="44" y="381" type="curve"/>
      <point x="152" y="491"/>
      <point x="253" y="650"/>
    </contour>
    <contour>
      <point x="180" y="586" type="line"/>
      <point x="180" y="-70" type="line"/>
      <point x="209" y="-70" type="line"/>
      <point x="209" y="613" type="line"/>
      <point x="207" y="614" type="line"/>
    </contour>
  </outline>
</glyph>
<glyph name="uni4F53" format="2">
  <advance width="1000" height="1000"/>
  <unicode hex="4F53"/>
  <note>
cid09990
</note>
  <outline>
    <contour>
      <point x="320" y="819" type="curve"/>
      <point x="291" y="827" type="line"/>
      <point x="230" y="666"/>
      <point x="130" y="508"/>
      <point x="23" y="405" type="curve"/>
      <point x="30" y="400"/>
      <point x="40" y="387"/>
      <point x="44" y="381" type="curve"/>
      <point x="152" y="491"/>
      <point x="253" y="650"/>
    </contour>
    <contour>
      <point x="180" y="588" type="line"/>
      <point x="180" y="-68" type="line"/>
      <point x="209" y="-68" type="line"/>
      <point x="209" y="615" type="line"/>
      <point x="207" y="616" type="line"/>
    </contour>
    <contour>
      <point x="624" y="-74" type="line"/>
      <point x="624" y="821" type="line"/>
      <point x="595" y="821" type="line"/>
      <point x="595" y="-74" type="line"/>
    </contour>
    <contour>
      <point x="947" y="567" type="line"/>
      <point x="947" y="597" type="line"/>
      <point x="284" y="597" type="line"/>
      <point x="284" y="567" type="line"/>
    </contour>
    <contour>
      <point x="803" y="133" type="line"/>
      <point x="803" y="163" type="line"/>
      <point x="410" y="163" type="line"/>
      <point x="410" y="133" type="line"/>
    </contour>
    <contour>
      <point x="654" y="587" type="curve"/>
      <point x="626" y="578" type="line"/>
      <point x="690" y="385"/>
      <point x="810" y="192"/>
      <point x="934" y="99" type="curve"/>
      <point x="941" y="107"/>
      <point x="951" y="118"/>
      <point x="959" y="123" type="curve"/>
      <point x="834" y="209"/>
      <point x="715" y="399"/>
    </contour>
    <contour>
      <point x="594" y="577" type="curve"/>
      <point x="569" y="586" type="line"/>
      <point x="504" y="399"/>
      <point x="380" y="207"/>
      <point x="260" y="119" type="curve"/>
      <point x="267" y="114"/>
      <point x="277" y="104"/>
      <point x="281" y="96" type="curve"/>
      <point x="402" y="193"/>
      <point x="527" y="384"/>
    </contour>
  </outline>
</glyph>
<glyph name="uni4F70" format="2">
  <advance width="1000" height="1000"/>
  <unicode hex="4F70"/>
  <note>
cid10034
</note>
  <outline>
    <contour>
      <point x="313" y="820" type="curve"/>
      <point x="284" y="827" type="line"/>
      <point x="232" y="647"/>
      <point x="143" y="485"/>
      <point x="30" y="381" type="curve"/>
      <point x="37" y="376"/>
      <point x="47" y="363"/>
      <point x="52" y="357" type="curve"/>
      <point x="166" y="469"/>
      <point x="257" y="632"/>
    </contour>
    <contour>
      <point x="187" y="560" type="line"/>
      <point x="187" y="-73" type="line"/>
      <point x="217" y="-73" type="line"/>
      <point x="217" y="587" type="line"/>
      <point x="215" y="588" type="line"/>
    </contour>
    <contour>
      <point x="949" y="750" type="line"/>
      <point x="949" y="779" type="line"/>
      <point x="335" y="779" type="line"/>
      <point x="335" y="750" type="line"/>
    </contour>
    <contour>
      <point x="656" y="765" type="curve"/>
      <point x="625" y="772" type="line"/>
      <point x="610" y="707"/>
      <point x="582" y="605"/>
      <point x="560" y="546" type="curve"/>
      <point x="585" y="538" type="line"/>
      <point x="608" y="596"/>
      <point x="635" y="692"/>
    </contour>
    <contour>
      <point x="889" y="-63" type="line"/>
      <point x="889" y="563" type="line"/>
      <point x="399" y="563" type="line"/>
      <point x="399" y="-68" type="line"/>
      <point x="429" y="-68" type="line"/>
      <point x="429" y="533" type="line"/>
      <point x="859" y="533" type="line"/>
      <point x="859" y="-63" type="line"/>
    </contour>
    <contour>
      <point x="872" y="271" type="line"/>
      <point x="872" y="300" type="line"/>
      <point x="415" y="300" type="line"/>
      <point x="415" y="271" type="line"/>
    </contour>
    <contour>
      <point x="872" y="2" type="line"/>
      <point x="872" y="32" type="line"/>
      <point x="415" y="32" type="line"/>
      <point x="415" y="2" type="line"/>
    </contour>
  </outline>
</glyph>
<glyph name="uni4F73" format="2">
  <advance width="1000" height="1000"/>
  <unicode hex="4F73"/>
  <note>
cid10038
</note>
  <outline>
    <contour>
      <point x="328" y="819" type="curve"/>
      <point x="299" y="827" type="line"/>
      <point x="236" y="667"/>
      <point x="134" y="511"/>
      <point x="27" y="410" type="curve"/>
      <point x="34" y="404"/>
      <point x="44" y="391"/>
      <point x="49" y="385" type="curve"/>
      <point x="157" y="494"/>
      <point x="260" y="651"/>
    </contour>
    <contour>
      <point x="187" y="588" type="line"/>
      <point x="187" y="-68" type="line"/>
      <point x="217" y="-68" type="line"/>
      <point x="217" y="615" type="line"/>
      <point x="215" y="616" type="line"/>
    </contour>
    <contour>
      <point x="893" y="650" type="line"/>
      <point x="893" y="679" type="line"/>
      <point x="356" y="679" type="line"/>
      <point x="356" y="650" type="line"/>
    </contour>
    <contour>
      <point x="908" y="218" type="line"/>
      <point x="908" y="247" type="line"/>
      <point x="335" y="247" type="line"/>
      <point x="335" y="218" type="line"/>
    </contour>
    <contour>
      <point x="939" y="426" type="line"/>
      <point x="939" y="456" type="line"/>
      <point x="305" y="456" type="line"/>
      <point x="305" y="426" type="line"/>
    </contour>
    <contour>
      <point x="951" y="-27" type="line"/>
      <point x="951" y="2" type="line"/>
      <point x="278" y="2" type="line"/>
      <point x="278" y="-27" type="line"/>
    </contour>
    <contour>
      <point x="635" y="440" type="line"/>
      <point x="635" y="821" type="line"/>
      <point x="606" y="821" type="line"/>
      <point x="606" y="440" type="line"/>
    </contour>
    <contour>
      <point x="635" y="-16" type="line"/>
      <point x="635" y="406" type="line"/>
      <point x="606" y="406" type="line"/>
      <point x="606" y="-16" type="line"/>
    </contour>
  </outline>
</glyph>
<glyph name="uni4F7B" format="2">
  <advance width="1000" height="1000"/>
  <unicode hex="4F7B"/>
  <note>
cid10050
</note>
  <outline>
    <contour>
      <point x="700" y="14" type="curve" smooth="yes"/>
      <point x="700" y="817" type="line"/>
      <point x="670" y="817" type="line"/>
      <point x="670" y="15" type="line" smooth="yes"/>
      <point x="670" y="-46"/>
      <point x="687" y="-59"/>
      <point x="743" y="-59" type="curve" smooth="yes"/>
      <point x="756" y="-59"/>
      <point x="867" y="-59"/>
      <point x="881" y="-59" type="curve" smooth="yes"/>
      <point x="939" y="-59"/>
      <point x="947" y="-18"/>
      <point x="951" y="106" type="curve"/>
      <point x="942" y="108"/>
      <point x="930" y="113"/>
      <point x="921" y="121" type="curve"/>
      <point x="918" y="2"/>
      <point x="913" y="-29"/>
      <point x="882" y="-29" type="curve" smooth="yes"/>
      <point x="858" y="-29"/>
      <point x="760" y="-29"/>
      <point x="743" y="-29" type="curve" smooth="yes"/>
      <point x="707" y="-29"/>
      <point x="700" y="-21"/>
    </contour>
    <contour>
      <point x="336" y="664" type="curve"/>
      <point x="309" y="653" type="line"/>
      <point x="354" y="591"/>
      <point x="398" y="507"/>
      <point x="413" y="453" type="curve"/>
      <point x="441" y="468" type="line"/>
      <point x="425" y="521"/>
      <point x="380" y="603"/>
    </contour>
    <contour>
      <point x="715" y="357" type="curve"/>
      <point x="697" y="338" type="line"/>
      <point x="779" y="290"/>
      <point x="878" y="219"/>
      <point x="929" y="175" type="curve"/>
      <point x="945" y="199" type="line"/>
      <point x="895" y="243"/>
      <point x="795" y="311"/>
    </contour>
    <contour>
      <point x="286" y="211" type="curve"/>
      <point x="304" y="184" type="line"/>
      <point x="366" y="221"/>
      <point x="442" y="265"/>
      <point x="515" y="309" type="curve"/>
      <point x="508" y="333" type="line"/>
      <point x="426" y="286"/>
      <point x="343" y="239"/>
    </contour>
    <contour>
      <point x="916" y="654" type="curve"/>
      <point x="888" y="671" type="line"/>
      <point x="856" y="608"/>
      <point x="797" y="515"/>
      <point x="753" y="461" type="curve"/>
      <point x="775" y="446" type="line"/>
      <point x="819" y="499"/>
      <point x="875" y="586"/>
    </contour>
    <contour>
      <point x="523" y="381" type="curve" smooth="yes"/>
      <point x="523" y="817" type="line"/>
      <point x="494" y="817" type="line"/>
      <point x="494" y="381" type="line" smooth="yes"/>
      <point x="494" y="202"/>
      <point x="468" y="52"/>
      <point x="267" y="-55" type="curve"/>
      <point x="275" y="-60"/>
      <point x="285" y="-70"/>
      <point x="289" y="-76" type="curve"/>
      <point x="495" y="36"/>
      <point x="523" y="190"/>
    </contour>
    <contour>
      <point x="308" y="822" type="curve"/>
      <point x="279" y="830" type="line"/>
      <point x="222" y="670"/>
      <point x="130" y="512"/>
      <point x="31" y="408" type="curve"/>
      <point x="38" y="402"/>
      <point x="49" y="390"/>
      <point x="53" y="384" type="curve"/>
      <point x="154" y="495"/>
      <point x="246" y="654"/>
    </contour>
    <contour>
      <point x="180" y="588" type="line"/>
      <point x="180" y="-70" type="line"/>
      <point x="209" y="-70" type="line"/>
      <point x="209" y="615" type="line"/>
      <point x="207" y="616" type="line"/>
    </contour>
  </outline>
</glyph>
<glyph name="uni4F8D" format="2">
  <advance width="1000" height="1000"/>
  <unicode hex="4F8D"/>
  <note>
cid10082
</note>
  <outline>
    <contour>
      <point x="897" y="656" type="line"/>
      <point x="897" y="685" type="line"/>
      <point x="347" y="685" type="line"/>
      <point x="347" y="656" type="line"/>
    </contour>
    <contour>
      <point x="946" y="283" type="line"/>
      <point x="946" y="313" type="line"/>
      <point x="297" y="313" type="line"/>
      <point x="297" y="283" type="line"/>
    </contour>
    <contour>
      <point x="952" y="461" type="line"/>
      <point x="952" y="490" type="line"/>
      <point x="281" y="490" type="line"/>
      <point x="281" y="461" type="line"/>
    </contour>
    <contour>
      <point x="632" y="473" type="line"/>
      <point x="632" y="825" type="line"/>
      <point x="603" y="825" type="line"/>
      <point x="603" y="473" type="line"/>
    </contour>
    <contour>
      <point x="785" y="-19" type="curve" smooth="yes"/>
      <point x="785" y="468" type="line"/>
      <point x="756" y="468" type="line"/>
      <point x="756" y="-20" type="line" smooth="yes"/>
      <point x="756" y="-35"/>
      <point x="752" y="-39"/>
      <point x="734" y="-40" type="curve" smooth="yes"/>
      <point x="717" y="-42"/>
      <point x="659" y="-42"/>
      <point x="583" y="-40" type="curve"/>
      <point x="589" y="-50"/>
      <point x="594" y="-62"/>
      <point x="596" y="-70" type="curve"/>
      <point x="680" y="-71"/>
      <point x="729" y="-71"/>
      <point x="754" y="-66" type="curve" smooth="yes"/>
      <point x="777" y="-60"/>
      <point x="785" y="-48"/>
    </contour>
    <contour>
      <point x="424" y="232" type="curve"/>
      <point x="401" y="218" type="line"/>
      <point x="452" y="164"/>
      <point x="506" y="88"/>
      <point x="530" y="39" type="curve"/>
      <point x="555" y="57" type="line"/>
      <point x="531" y="105"/>
      <point x="475" y="178"/>
    </contour>
    <contour>
      <point x="322" y="819" type="curve"/>
      <point x="293" y="827" type="line"/>
      <point x="231" y="666"/>
      <point x="132" y="508"/>
      <point x="25" y="405" type="curve"/>
      <point x="32" y="400"/>
      <point x="42" y="387"/>
      <point x="46" y="381" type="curve"/>
      <point x="154" y="491"/>
      <point x="255" y="650"/>
    </contour>
    <contour>
      <point x="182" y="588" type="line"/>
      <point x="182" y="-70" type="line"/>
      <point x="211" y="-70" type="line"/>
      <point x="211" y="615" type="line"/>
      <point x="209" y="616" type="line"/>
    </contour>
  </outline>
</glyph>
<glyph name="uni4F91" format="2">
  <advance width="1000" height="1000"/>
  <unicode hex="4F91"/>
  <note>
cid10087
</note>
  <outline>
    <contour>
      <point x="328" y="819" type="curve"/>
      <point x="299" y="827" type="line"/>
      <point x="238" y="666"/>
      <point x="138" y="508"/>
      <point x="31" y="405" type="curve"/>
      <point x="38" y="400"/>
      <point x="48" y="387"/>
      <point x="52" y="381" type="curve"/>
      <point x="160" y="491"/>
      <point x="261" y="650"/>
    </contour>
    <contour>
      <point x="188" y="588" type="line"/>
      <point x="188" y="-70" type="line"/>
      <point x="217" y="-70" type="line"/>
      <point x="217" y="615" type="line"/>
      <point x="215" y="616" type="line"/>
    </contour>
    <contour>
      <point x="950" y="649" type="line"/>
      <point x="950" y="678" type="line"/>
      <point x="300" y="678" type="line"/>
      <point x="300" y="649" type="line"/>
    </contour>
    <contour>
      <point x="613" y="820" type="curve"/>
      <point x="583" y="827" type="line"/>
      <point x="527" y="620"/>
      <point x="407" y="423"/>
      <point x="271" y="317" type="curve"/>
      <point x="279" y="312"/>
      <point x="292" y="301"/>
      <point x="297" y="296" type="curve"/>
      <point x="432" y="406"/>
      <point x="554" y="608"/>
    </contour>
    <contour>
      <point x="876" y="-19" type="curve" smooth="yes"/>
      <point x="876" y="514" type="line"/>
      <point x="846" y="514" type="line"/>
      <point x="846" y="-20" type="line" smooth="yes"/>
      <point x="846" y="-35"/>
      <point x="841" y="-39"/>
      <point x="826" y="-40" type="curve" smooth="yes"/>
      <point x="809" y="-41"/>
      <point x="754" y="-42"/>
      <point x="683" y="-40" type="curve"/>
      <point x="688" y="-50"/>
      <point x="694" y="-62"/>
      <point x="696" y="-70" type="curve"/>
      <point x="776" y="-70"/>
      <point x="823" y="-70"/>
      <point x="846" y="-64" type="curve" smooth="yes"/>
      <point x="869" y="-59"/>
      <point x="876" y="-47"/>
    </contour>
    <contour>
      <point x="864" y="321" type="line"/>
      <point x="864" y="350" type="line"/>
      <point x="472" y="350" type="line"/>
      <point x="472" y="321" type="line"/>
    </contour>
    <contour>
      <point x="864" y="152" type="line"/>
      <point x="864" y="182" type="line"/>
      <point x="472" y="182" type="line"/>
      <point x="472" y="152" type="line"/>
    </contour>
    <contour>
      <point x="864" y="484" type="line"/>
      <point x="864" y="514" type="line"/>
      <point x="453" y="514" type="line"/>
      <point x="453" y="-71" type="line"/>
      <point x="482" y="-71" type="line"/>
      <point x="482" y="484" type="line"/>
    </contour>
  </outline>
</glyph>
<glyph name="uni4F9B" format="2">
  <advance width="1000" height="1000"/>
  <unicode hex="4F9B"/>
  <note>
cid10104
</note>
  <outline>
    <contour>
      <point x="324" y="819" type="curve"/>
      <point x="295" y="827" type="line"/>
      <point x="233" y="666"/>
      <point x="133" y="508"/>
      <point x="27" y="405" type="curve"/>
      <point x="34" y="400"/>
      <point x="44" y="387"/>
      <point x="48" y="381" type="curve"/>
      <point x="156" y="491"/>
      <point x="257" y="650"/>
    </contour>
    <contour>
      <point x="188" y="586" type="line"/>
      <point x="188" y="-70" type="line"/>
      <point x="218" y="-70" type="line"/>
      <point x="218" y="613" type="line"/>
      <point x="216" y="614" type="line"/>
    </contour>
    <contour>
      <point x="938" y="564" type="line"/>
      <point x="938" y="593" type="line"/>
      <point x="309" y="593" type="line"/>
      <point x="309" y="564" type="line"/>
    </contour>
    <contour>
      <point x="952" y="235" type="line"/>
      <point x="952" y="265" type="line"/>
      <point x="278" y="265" type="line"/>
      <point x="278" y="235" type="line"/>
    </contour>
    <contour>
      <point x="486" y="246" type="line"/>
      <point x="486" y="817" type="line"/>
      <point x="456" y="817" type="line"/>
      <point x="456" y="246" type="line"/>
    </contour>
    <contour>
      <point x="773" y="246" type="line"/>
      <point x="773" y="817" type="line"/>
      <point x="744" y="817" type="line"/>
      <point x="744" y="246" type="line"/>
    </contour>
    <contour>
      <point x="520" y="157" type="curve"/>
      <point x="491" y="166" type="line"/>
      <point x="442" y="85"/>
      <point x="364" y="2"/>
      <point x="288" y="-50" type="curve"/>
      <point x="295" y="-55"/>
      <point x="305" y="-64"/>
      <point x="310" y="-71" type="curve"/>
      <point x="388" y="-16"/>
      <point x="469" y="72"/>
    </contour>
    <contour>
      <point x="731" y="168" type="curve"/>
      <point x="708" y="152" type="line"/>
      <point x="782" y="85"/>
      <point x="864" y="-10"/>
      <point x="903" y="-70" type="curve"/>
      <point x="927" y="-50" type="line"/>
      <point x="889" y="10"/>
      <point x="804" y="102"/>
    </contour>
  </outline>
</glyph>
<glyph name="uni4FC3" format="2">
  <advance width="1000" height="1000"/>
  <unicode hex="4FC3"/>
  <note>
cid10170
</note>
  <outline>
    <contour>
      <point x="848" y="494" type="line"/>
      <point x="412" y="494" type="line"/>
      <point x="412" y="751" type="line"/>
      <point x="848" y="751" type="line"/>
    </contour>
    <contour>
      <point x="877" y="465" type="line"/>
      <point x="877" y="780" type="line"/>
      <point x="382" y="780" type="line"/>
      <point x="382" y="465" type="line"/>
    </contour>
    <contour>
      <point x="899" y="247" type="line"/>
      <point x="899" y="277" type="line"/>
      <point x="624" y="277" type="line"/>
      <point x="624" y="247" type="line"/>
    </contour>
    <contour>
      <point x="640" y="-19" type="line"/>
      <point x="640" y="474" type="line"/>
      <point x="611" y="474" type="line"/>
      <point x="611" y="-6" type="line"/>
    </contour>
    <contour>
      <point x="423" y="228" type="curve"/>
      <point x="400" y="216" type="line"/>
      <point x="471" y="-8"/>
      <point x="613" y="-47"/>
      <point x="798" y="-47" type="curve" smooth="yes"/>
      <point x="909" y="-47" type="line"/>
      <point x="944" y="-47" type="line"/>
      <point x="946" y="-39"/>
      <point x="952" y="-25"/>
      <point x="958" y="-17" type="curve"/>
      <point x="932" y="-17"/>
      <point x="817" y="-17"/>
      <point x="799" y="-17" type="curve" smooth="yes"/>
      <point x="629" y="-17"/>
      <point x="485" y="17"/>
    </contour>
    <contour>
      <point x="446" y="340" type="curve"/>
      <point x="416" y="343" type="line"/>
      <point x="396" y="171"/>
      <point x="350" y="33"/>
      <point x="256" y="-55" type="curve"/>
      <point x="264" y="-59"/>
      <point x="277" y="-68"/>
      <point x="281" y="-73" type="curve"/>
      <point x="375" y="21"/>
      <point x="425" y="158"/>
    </contour>
    <contour>
      <point x="328" y="819" type="curve"/>
      <point x="299" y="827" type="line"/>
      <point x="236" y="667"/>
      <point x="134" y="511"/>
      <point x="27" y="410" type="curve"/>
      <point x="34" y="404"/>
      <point x="44" y="391"/>
      <point x="49" y="385" type="curve"/>
      <point x="157" y="494"/>
      <point x="260" y="651"/>
    </contour>
    <contour>
      <point x="187" y="591" type="line"/>
      <point x="187" y="-70" type="line"/>
      <point x="217" y="-70" type="line"/>
      <point x="217" y="618" type="line"/>
      <point x="215" y="619" type="line"/>
    </contour>
  </outline>
</glyph>
<glyph name="uni4FC4" format="2">
  <advance width="1000" height="1000"/>
  <unicode hex="4FC4"/>
  <note>
cid10171
</note>
  <outline>
    <contour>
      <point x="284" y="816" type="curve"/>
      <point x="256" y="822" type="line"/>
      <point x="203" y="659"/>
      <point x="118" y="498"/>
      <point x="24" y="392" type="curve"/>
      <point x="31" y="386"/>
      <point x="41" y="375"/>
      <point x="45" y="369" type="curve"/>
      <point x="141" y="482"/>
      <point x="228" y="644"/>
    </contour>
    <contour>
      <point x="174" y="606" type="line"/>
      <point x="174" y="-71" type="line"/>
      <point x="203" y="-71" type="line"/>
      <point x="203" y="632" type="line"/>
      <point x="202" y="634" type="line"/>
    </contour>
    <contour>
      <point x="628" y="780" type="curve"/>
      <point x="601" y="803" type="line"/>
      <point x="526" y="766"/>
      <point x="385" y="726"/>
      <point x="266" y="699" type="curve"/>
      <point x="270" y="691"/>
      <point x="276" y="681"/>
      <point x="278" y="674" type="curve"/>
      <point x="399" y="702"/>
      <point x="540" y="739"/>
    </contour>
    <contour>
      <point x="940" y="482" type="line"/>
      <point x="940" y="512" type="line"/>
      <point x="265" y="512" type="line"/>
      <point x="265" y="482" type="line"/>
    </contour>
    <contour>
      <point x="476" y="-19" type="curve" smooth="yes"/>
      <point x="476" y="739" type="line"/>
      <point x="446" y="739" type="line"/>
      <point x="446" y="-20" type="line" smooth="yes"/>
      <point x="446" y="-34"/>
      <point x="441" y="-38"/>
      <point x="427" y="-39" type="curve" smooth="yes"/>
      <point x="413" y="-40"/>
      <point x="364" y="-40"/>
      <point x="306" y="-39" type="curve"/>
      <point x="312" y="-48"/>
      <point x="317" y="-63"/>
      <point x="319" y="-70" type="curve"/>
      <point x="384" y="-70"/>
      <point x="426" y="-70"/>
      <point x="446" y="-65" type="curve" smooth="yes"/>
      <point x="467" y="-59"/>
      <point x="476" y="-48"/>
    </contour>
    <contour>
      <point x="253" y="226" type="curve"/>
      <point x="265" y="196" type="line"/>
      <point x="366" y="226"/>
      <point x="509" y="268"/>
      <point x="643" y="308" type="curve"/>
      <point x="639" y="336" type="line"/>
      <point x="495" y="294"/>
      <point x="347" y="251"/>
    </contour>
    <contour>
      <point x="703" y="824" type="curve"/>
      <point x="673" y="824" type="line"/>
      <point x="679" y="297"/>
      <point x="740" y="-71"/>
      <point x="876" y="-71" type="curve" smooth="yes"/>
      <point x="930" y="-71"/>
      <point x="944" y="-19"/>
      <point x="951" y="132" type="curve"/>
      <point x="943" y="134"/>
      <point x="930" y="140"/>
      <point x="923" y="146" type="curve"/>
      <point x="918" y="12"/>
      <point x="907" y="-41"/>
      <point x="878" y="-41" type="curve" smooth="yes"/>
      <point x="775" y="-41"/>
      <point x="705" y="284"/>
    </contour>
    <contour>
      <point x="902" y="411" type="curve"/>
      <point x="873" y="419" type="line"/>
      <point x="800" y="243"/>
      <point x="676" y="90"/>
      <point x="531" y="-7" type="curve"/>
      <point x="539" y="-13"/>
      <point x="551" y="-23"/>
      <point x="556" y="-28" type="curve"/>
      <point x="697" y="75"/>
      <point x="823" y="228"/>
    </contour>
    <contour>
      <point x="798" y="797" type="curve"/>
      <point x="773" y="784" type="line"/>
      <point x="821" y="724"/>
      <point x="874" y="641"/>
      <point x="899" y="591" type="curve"/>
      <point x="925" y="608" type="line"/>
      <point x="901" y="657"/>
      <point x="846" y="737"/>
    </contour>
  </outline>
</glyph>
<glyph name="uni4FCE" format="2">
  <advance width="1000" height="1000"/>
  <unicode hex="4FCE"/>
  <note>
cid10189
</note>
  <outline>
    <contour>
      <point x="863" y="-25" type="line"/>
      <point x="863" y="776" type="line"/>
      <point x="497" y="776" type="line"/>
      <point x="497" y="-25" type="line"/>
      <point x="526" y="-25" type="line"/>
      <point x="526" y="747" type="line"/>
      <point x="834" y="747" type="line"/>
      <point x="834" y="-25" type="line"/>
    </contour>
    <contour>
      <point x="239" y="637" type="curve"/>
      <point x="218" y="619" type="line"/>
      <point x="288" y="566"/>
      <point x="372" y="489"/>
      <point x="412" y="440" type="curve"/>
      <point x="434" y="462" type="line"/>
      <point x="393" y="510"/>
      <point x="310" y="584"/>
    </contour>
    <contour>
      <point x="298" y="806" type="curve"/>
      <point x="269" y="811" type="line"/>
      <point x="234" y="640"/>
      <point x="149" y="482"/>
      <point x="48" y="401" type="curve"/>
      <point x="56" y="396"/>
      <point x="68" y="386"/>
      <point x="73" y="381" type="curve"/>
      <point x="173" y="464"/>
      <point x="260" y="628"/>
    </contour>
    <contour>
      <point x="247" y="245" type="curve"/>
      <point x="226" y="227" type="line"/>
      <point x="295" y="173"/>
      <point x="375" y="101"/>
      <point x="415" y="53" type="curve"/>
      <point x="436" y="75" type="line"/>
      <point x="397" y="122"/>
      <point x="317" y="192"/>
    </contour>
    <contour>
      <point x="294" y="410" type="curve"/>
      <point x="265" y="415" type="line"/>
      <point x="227" y="212"/>
      <point x="146" y="52"/>
      <point x="38" y="-31" type="curve"/>
      <point x="45" y="-36"/>
      <point x="57" y="-46"/>
      <point x="62" y="-51" type="curve"/>
      <point x="171" y="38"/>
      <point x="254" y="203"/>
    </contour>
    <contour>
      <point x="845" y="488" type="line"/>
      <point x="845" y="518" type="line"/>
      <point x="509" y="518" type="line"/>
      <point x="509" y="488" type="line"/>
    </contour>
    <contour>
      <point x="845" y="226" type="line"/>
      <point x="845" y="255" type="line"/>
      <point x="509" y="255" type="line"/>
      <point x="509" y="226" type="line"/>
    </contour>
    <contour>
      <point x="960" y="-41" type="line"/>
      <point x="960" y="-12" type="line"/>
      <point x="368" y="-12" type="line"/>
      <point x="368" y="-41" type="line"/>
    </contour>
  </outline>
</glyph>
<glyph name="uni4FD0" format="2">
  <advance width="1000" height="1000"/>
  <unicode hex="4FD0"/>
  <note>
cid10193
</note>
  <outline>
    <contour>
      <point x="721" y="148" type="line"/>
      <point x="721" y="726" type="line"/>
      <point x="692" y="726" type="line"/>
      <point x="692" y="148" type="line"/>
    </contour>
    <contour>
      <point x="627" y="768" type="curve"/>
      <point x="603" y="791" type="line"/>
      <point x="529" y="760"/>
      <point x="388" y="728"/>
      <point x="273" y="708" type="curve"/>
      <point x="278" y="700"/>
      <point x="282" y="690"/>
      <point x="284" y="683" type="curve"/>
      <point x="402" y="703"/>
      <point x="542" y="733"/>
    </contour>
    <contour>
      <point x="650" y="481" type="line"/>
      <point x="650" y="511" type="line"/>
      <point x="261" y="511" type="line"/>
      <point x="261" y="481" type="line"/>
    </contour>
    <contour>
      <point x="480" y="-70" type="line"/>
      <point x="480" y="744" type="line"/>
      <point x="451" y="732" type="line"/>
      <point x="451" y="-70" type="line"/>
    </contour>
    <contour>
      <point x="474" y="492" type="curve"/>
      <point x="447" y="501" type="line"/>
      <point x="408" y="345"/>
      <point x="320" y="174"/>
      <point x="235" y="90" type="curve"/>
      <point x="242" y="84"/>
      <point x="251" y="74"/>
      <point x="257" y="66" type="curve"/>
      <point x="343" y="155"/>
      <point x="432" y="335"/>
    </contour>
    <contour>
      <point x="475" y="396" type="curve"/>
      <point x="455" y="377" type="line"/>
      <point x="489" y="343"/>
      <point x="594" y="221"/>
      <point x="627" y="179" type="curve"/>
      <point x="646" y="206" type="line"/>
      <point x="620" y="238"/>
      <point x="506" y="367"/>
    </contour>
    <contour>
      <point x="912" y="-16" type="curve" smooth="yes"/>
      <point x="912" y="813" type="line"/>
      <point x="882" y="813" type="line"/>
      <point x="882" y="-17" type="line" smooth="yes"/>
      <point x="882" y="-33"/>
      <point x="877" y="-37"/>
      <point x="862" y="-38" type="curve" smooth="yes"/>
      <point x="846" y="-38"/>
      <point x="793" y="-39"/>
      <point x="731" y="-37" type="curve"/>
      <point x="737" y="-47"/>
      <point x="742" y="-62"/>
      <point x="744" y="-71" type="curve"/>
      <point x="815" y="-71"/>
      <point x="859" y="-70"/>
      <point x="880" y="-65" type="curve" smooth="yes"/>
      <point x="902" y="-58"/>
      <point x="912" y="-47"/>
    </contour>
    <contour>
      <point x="284" y="816" type="curve"/>
      <point x="256" y="822" type="line"/>
      <point x="203" y="661"/>
      <point x="118" y="501"/>
      <point x="24" y="396" type="curve"/>
      <point x="31" y="390"/>
      <point x="41" y="378"/>
      <point x="46" y="373" type="curve"/>
      <point x="141" y="485"/>
      <point x="228" y="646"/>
    </contour>
    <contour>
      <point x="174" y="606" type="line"/>
      <point x="174" y="-71" type="line"/>
      <point x="203" y="-71" type="line"/>
      <point x="203" y="632" type="line"/>
      <point x="202" y="634" type="line"/>
    </contour>
  </outline>
</glyph>
<glyph name="uni4FD1" format="2">
  <advance width="1000" height="1000"/>
  <unicode hex="4FD1"/>
  <note>
cid10194
</note>
  <outline>
    <contour>
      <point x="320" y="819" type="curve"/>
      <point x="291" y="827" type="line"/>
      <point x="230" y="666"/>
      <point x="130" y="508"/>
      <point x="23" y="405" type="curve"/>
      <point x="30" y="400"/>
      <point x="40" y="387"/>
      <point x="44" y="381" type="curve"/>
      <point x="152" y="491"/>
      <point x="253" y="650"/>
    </contour>
    <contour>
      <point x="180" y="588" type="line"/>
      <point x="180" y="-68" type="line"/>
      <point x="209" y="-68" type="line"/>
      <point x="209" y="615" type="line"/>
      <point x="207" y="616" type="line"/>
    </contour>
    <contour>
      <point x="858" y="760" type="line"/>
      <point x="858" y="789" type="line"/>
      <point x="360" y="789" type="line"/>
      <point x="360" y="760" type="line"/>
    </contour>
    <contour>
      <point x="485" y="698" type="curve"/>
      <point x="468" y="676" type="line"/>
      <point x="559" y="636"/>
      <point x="671" y="573"/>
      <point x="727" y="531" type="curve"/>
      <point x="745" y="556" type="line"/>
      <point x="687" y="598"/>
      <point x="575" y="659"/>
    </contour>
    <contour>
      <point x="891" y="515" type="line"/>
      <point x="891" y="544" type="line"/>
      <point x="348" y="544" type="line"/>
      <point x="348" y="-70" type="line"/>
      <point x="377" y="-70" type="line"/>
      <point x="377" y="515" type="line"/>
    </contour>
    <contour>
      <point x="890" y="334" type="line"/>
      <point x="890" y="364" type="line"/>
      <point x="362" y="364" type="line"/>
      <point x="362" y="334" type="line"/>
    </contour>
    <contour>
      <point x="890" y="148" type="line"/>
      <point x="890" y="177" type="line"/>
      <point x="362" y="177" type="line"/>
      <point x="362" y="148" type="line"/>
    </contour>
    <contour>
      <point x="904" y="-19" type="curve" smooth="yes"/>
      <point x="904" y="544" type="line"/>
      <point x="875" y="544" type="line"/>
      <point x="875" y="-20" type="line" smooth="yes"/>
      <point x="875" y="-35"/>
      <point x="871" y="-39"/>
      <point x="855" y="-40" type="curve" smooth="yes"/>
      <point x="839" y="-41"/>
      <point x="787" y="-41"/>
      <point x="720" y="-40" type="curve"/>
      <point x="725" y="-49"/>
      <point x="731" y="-61"/>
      <point x="733" y="-70" type="curve"/>
      <point x="808" y="-70"/>
      <point x="853" y="-70"/>
      <point x="875" y="-64" type="curve" smooth="yes"/>
      <point x="897" y="-59"/>
      <point x="904" y="-47"/>
    </contour>
    <contour>
      <point x="636" y="-65" type="line"/>
      <point x="636" y="534" type="line"/>
      <point x="607" y="534" type="line"/>
      <point x="607" y="-65" type="line"/>
    </contour>
    <contour>
      <point x="860" y="791" type="line"/>
      <point x="853" y="789" type="line"/>
      <point x="846" y="789" type="line"/>
      <point x="846" y="782" type="line"/>
      <point x="794" y="724"/>
      <point x="697" y="658"/>
      <point x="613" y="620" type="curve"/>
      <point x="619" y="616"/>
      <point x="627" y="607"/>
      <point x="632" y="601" type="curve"/>
      <point x="718" y="641"/>
      <point x="819" y="709"/>
      <point x="881" y="776" type="curve"/>
    </contour>
  </outline>
</glyph>
<glyph name="uni4FDD" format="2">
  <advance width="1000" height="1000"/>
  <unicode hex="4FDD"/>
  <note>
cid10210
</note>
  <outline>
    <contour>
      <point x="643" y="-71" type="line"/>
      <point x="643" y="471" type="line"/>
      <point x="613" y="471" type="line"/>
      <point x="613" y="-71" type="line"/>
    </contour>
    <contour>
      <point x="946" y="300" type="line"/>
      <point x="946" y="329" type="line"/>
      <point x="292" y="329" type="line"/>
      <point x="292" y="300" type="line"/>
    </contour>
    <contour>
      <point x="663" y="322" type="curve"/>
      <point x="637" y="311" type="line"/>
      <point x="706" y="179"/>
      <point x="835" y="44"/>
      <point x="949" y="-21" type="curve"/>
      <point x="954" y="-15"/>
      <point x="963" y="-5"/>
      <point x="970" y="1" type="curve"/>
      <point x="856" y="61"/>
      <point x="728" y="191"/>
    </contour>
    <contour>
      <point x="619" y="313" type="curve"/>
      <point x="595" y="324" type="line"/>
      <point x="526" y="193"/>
      <point x="392" y="60"/>
      <point x="271" y="3" type="curve"/>
      <point x="278" y="-3"/>
      <point x="286" y="-14"/>
      <point x="292" y="-21" type="curve"/>
      <point x="413" y="42"/>
      <point x="548" y="178"/>
    </contour>
    <contour>
      <point x="855" y="491" type="line"/>
      <point x="404" y="491" type="line"/>
      <point x="404" y="751" type="line"/>
      <point x="855" y="751" type="line"/>
    </contour>
    <contour>
      <point x="884" y="461" type="line"/>
      <point x="884" y="780" type="line"/>
      <point x="375" y="780" type="line"/>
      <point x="375" y="461" type="line"/>
    </contour>
    <contour>
      <point x="328" y="819" type="curve"/>
      <point x="299" y="827" type="line"/>
      <point x="236" y="667"/>
      <point x="134" y="511"/>
      <point x="27" y="410" type="curve"/>
      <point x="34" y="404"/>
      <point x="44" y="391"/>
      <point x="49" y="385" type="curve"/>
      <point x="157" y="494"/>
      <point x="260" y="651"/>
    </contour>
    <contour>
      <point x="187" y="586" type="line"/>
      <point x="187" y="-70" type="line"/>
      <point x="217" y="-70" type="line"/>
      <point x="217" y="613" type="line"/>
      <point x="215" y="614" type="line"/>
    </contour>
  </outline>
</glyph>
<glyph name="uni4FF1" format="2">
  <advance width="1000" height="1000"/>
  <unicode hex="4FF1"/>
  <note>
cid10240
</note>
  <outline>
    <contour>
      <point x="953" y="173" type="line"/>
      <point x="953" y="202" type="line"/>
      <point x="286" y="202" type="line"/>
      <point x="286" y="173" type="line"/>
    </contour>
    <contour>
      <point x="721" y="130" type="curve"/>
      <point x="701" y="111" type="line"/>
      <point x="780" y="57"/>
      <point x="875" y="-20"/>
      <point x="923" y="-70" type="curve"/>
      <point x="944" y="-49" type="line"/>
      <point x="897" y="0"/>
      <point x="801" y="77"/>
    </contour>
    <contour>
      <point x="532" y="118" type="curve"/>
      <point x="506" y="132" type="line"/>
      <point x="460" y="69"/>
      <point x="368" y="-5"/>
      <point x="279" y="-53" type="curve"/>
      <point x="285" y="-58"/>
      <point x="294" y="-65"/>
      <point x="300" y="-71" type="curve"/>
      <point x="390" y="-20"/>
      <point x="480" y="49"/>
    </contour>
    <contour>
      <point x="842" y="194" type="line"/>
      <point x="842" y="792" type="line"/>
      <point x="395" y="792" type="line"/>
      <point x="395" y="194" type="line"/>
      <point x="425" y="194" type="line"/>
      <point x="425" y="763" type="line"/>
      <point x="813" y="763" type="line"/>
      <point x="813" y="194" type="line"/>
    </contour>
    <contour>
      <point x="828" y="619" type="line"/>
      <point x="828" y="648" type="line"/>
      <point x="409" y="648" type="line"/>
      <point x="409" y="619" type="line"/>
    </contour>
    <contour>
      <point x="828" y="473" type="line"/>
      <point x="828" y="502" type="line"/>
      <point x="409" y="502" type="line"/>
      <point x="409" y="473" type="line"/>
    </contour>
    <contour>
      <point x="828" y="324" type="line"/>
      <point x="828" y="353" type="line"/>
      <point x="409" y="353" type="line"/>
      <point x="409" y="324" type="line"/>
    </contour>
    <contour>
      <point x="323" y="822" type="curve"/>
      <point x="294" y="830" type="line"/>
      <point x="232" y="669"/>
      <point x="133" y="511"/>
      <point x="26" y="408" type="curve"/>
      <point x="33" y="403"/>
      <point x="43" y="390"/>
      <point x="47" y="384" type="curve"/>
      <point x="155" y="494"/>
      <point x="256" y="653"/>
    </contour>
    <contour>
      <point x="182" y="588" type="line"/>
      <point x="182" y="-68" type="line"/>
      <point x="212" y="-68" type="line"/>
      <point x="212" y="615" type="line"/>
      <point x="210" y="616" type="line"/>
    </contour>
  </outline>
</glyph>
<glyph name="uni501A" format="2">
  <advance width="1000" height="1000"/>
  <unicode hex="501A"/>
  <note>
cid10313
</note>
  <outline>
    <contour>
      <point x="922" y="690" type="line"/>
      <point x="922" y="719" type="line"/>
      <point x="322" y="719" type="line"/>
      <point x="322" y="690" type="line"/>
    </contour>
    <contour>
      <point x="951" y="391" type="line"/>
      <point x="951" y="421" type="line"/>
      <point x="280" y="421" type="line"/>
      <point x="280" y="391" type="line"/>
    </contour>
    <contour>
      <point x="597" y="646" type="curve"/>
      <point x="575" y="626" type="line"/>
      <point x="684" y="578"/>
      <point x="820" y="504"/>
      <point x="890" y="457" type="curve"/>
      <point x="912" y="482" type="line"/>
      <point x="840" y="530"/>
      <point x="705" y="600"/>
    </contour>
    <contour>
      <point x="408" y="12" type="line"/>
      <point x="408" y="294" type="line"/>
      <point x="378" y="294" type="line"/>
      <point x="378" y="12" type="line"/>
    </contour>
    <contour>
      <point x="667" y="70" type="line"/>
      <point x="667" y="294" type="line"/>
      <point x="392" y="294" type="line"/>
      <point x="392" y="265" type="line"/>
      <point x="637" y="265" type="line"/>
      <point x="637" y="99" type="line"/>
      <point x="392" y="99" type="line"/>
      <point x="392" y="70" type="line"/>
    </contour>
    <contour>
      <point x="848" y="-20" type="curve" smooth="yes"/>
      <point x="848" y="414" type="line"/>
      <point x="819" y="414" type="line"/>
      <point x="819" y="-21" type="line" smooth="yes"/>
      <point x="819" y="-37"/>
      <point x="814" y="-42"/>
      <point x="795" y="-43" type="curve" smooth="yes"/>
      <point x="776" y="-44"/>
      <point x="714" y="-45"/>
      <point x="631" y="-43" type="curve"/>
      <point x="636" y="-52"/>
      <point x="642" y="-64"/>
      <point x="644" y="-71" type="curve"/>
      <point x="738" y="-71"/>
      <point x="790" y="-72"/>
      <point x="815" y="-66" type="curve" smooth="yes"/>
      <point x="839" y="-61"/>
      <point x="848" y="-49"/>
    </contour>
    <contour>
      <point x="655" y="827" type="curve"/>
      <point x="624" y="827" type="line"/>
      <point x="609" y="630"/>
      <point x="551" y="535"/>
      <point x="298" y="489" type="curve"/>
      <point x="304" y="483"/>
      <point x="313" y="471"/>
      <point x="316" y="463" type="curve"/>
      <point x="575" y="514"/>
      <point x="636" y="614"/>
    </contour>
    <contour>
      <point x="320" y="819" type="curve"/>
      <point x="291" y="827" type="line"/>
      <point x="230" y="666"/>
      <point x="130" y="508"/>
      <point x="23" y="405" type="curve"/>
      <point x="30" y="400"/>
      <point x="40" y="387"/>
      <point x="44" y="381" type="curve"/>
      <point x="152" y="491"/>
      <point x="253" y="650"/>
    </contour>
    <contour>
      <point x="209" y="613" type="line"/>
      <point x="207" y="614" type="line"/>
      <point x="180" y="586" type="line"/>
      <point x="180" y="-70" type="line"/>
      <point x="209" y="-70" type="line"/>
    </contour>
  </outline>
</glyph>
<glyph name="uni5021" format="2">
  <advance width="1000" height="1000"/>
  <unicode hex="5021"/>
  <note>
cid10324
</note>
  <outline>
    <contour>
      <point x="898" y="149" type="line"/>
      <point x="898" y="178" type="line"/>
      <point x="350" y="178" type="line"/>
      <point x="350" y="149" type="line"/>
    </contour>
    <contour>
      <point x="898" y="-23" type="line"/>
      <point x="898" y="6" type="line"/>
      <point x="350" y="6" type="line"/>
      <point x="350" y="-23" type="line"/>
    </contour>
    <contour>
      <point x="917" y="-66" type="line"/>
      <point x="917" y="343" type="line"/>
      <point x="334" y="343" type="line"/>
      <point x="334" y="-70" type="line"/>
      <point x="364" y="-70" type="line"/>
      <point x="364" y="314" type="line"/>
      <point x="887" y="314" type="line"/>
      <point x="887" y="-66" type="line"/>
    </contour>
    <contour>
      <point x="837" y="470" type="line"/>
      <point x="411" y="470" type="line"/>
      <point x="411" y="598" type="line"/>
      <point x="837" y="598" type="line"/>
    </contour>
    <contour>
      <point x="837" y="627" type="line"/>
      <point x="411" y="627" type="line"/>
      <point x="411" y="754" type="line"/>
      <point x="837" y="754" type="line"/>
    </contour>
    <contour>
      <point x="867" y="440" type="line"/>
      <point x="867" y="783" type="line"/>
      <point x="381" y="783" type="line"/>
      <point x="381" y="440" type="line"/>
    </contour>
    <contour>
      <point x="320" y="819" type="curve"/>
      <point x="291" y="827" type="line"/>
      <point x="231" y="666"/>
      <point x="134" y="509"/>
      <point x="31" y="405" type="curve"/>
      <point x="37" y="400"/>
      <point x="48" y="387"/>
      <point x="53" y="381" type="curve"/>
      <point x="157" y="492"/>
      <point x="255" y="651"/>
    </contour>
    <contour>
      <point x="207" y="614" type="line"/>
      <point x="180" y="586" type="line"/>
      <point x="180" y="-70" type="line"/>
      <point x="209" y="-70" type="line"/>
      <point x="209" y="613" type="line"/>
    </contour>
  </outline>
</glyph>
<glyph name="uni5028" format="2">
  <advance width="1000" height="1000"/>
  <unicode hex="5028"/>
  <note>
cid10338
</note>
  <outline>
    <contour>
      <point x="320" y="819" type="curve"/>
      <point x="291" y="827" type="line"/>
      <point x="230" y="666"/>
      <point x="130" y="508"/>
      <point x="23" y="405" type="curve"/>
      <point x="30" y="400"/>
      <point x="40" y="387"/>
      <point x="44" y="381" type="curve"/>
      <point x="152" y="491"/>
      <point x="253" y="650"/>
    </contour>
    <contour>
      <point x="209" y="613" type="line"/>
      <point x="207" y="614" type="line"/>
      <point x="180" y="586" type="line"/>
      <point x="180" y="-70" type="line"/>
      <point x="209" y="-70" type="line"/>
    </contour>
    <contour>
      <point x="909" y="548" type="line"/>
      <point x="909" y="778" type="line"/>
      <point x="384" y="778" type="line"/>
      <point x="384" y="749" type="line"/>
      <point x="879" y="749" type="line"/>
      <point x="879" y="577" type="line"/>
      <point x="384" y="577" type="line"/>
      <point x="384" y="548" type="line"/>
    </contour>
    <contour>
      <point x="400" y="499" type="curve" smooth="yes"/>
      <point x="400" y="778" type="line"/>
      <point x="371" y="778" type="line"/>
      <point x="371" y="499" type="line" smooth="yes"/>
      <point x="371" y="338"/>
      <point x="358" y="125"/>
      <point x="235" y="-32" type="curve"/>
      <point x="243" y="-36"/>
      <point x="254" y="-46"/>
      <point x="258" y="-52" type="curve"/>
      <point x="383" y="109"/>
      <point x="400" y="334"/>
    </contour>
    <contour>
      <point x="936" y="385" type="line"/>
      <point x="936" y="415" type="line"/>
      <point x="393" y="415" type="line"/>
      <point x="393" y="385" type="line"/>
    </contour>
    <contour>
      <point x="685" y="228" type="line"/>
      <point x="685" y="554" type="line"/>
      <point x="656" y="554" type="line"/>
      <point x="656" y="228" type="line"/>
    </contour>
    <contour>
      <point x="896" y="-67" type="line"/>
      <point x="896" y="235" type="line"/>
      <point x="459" y="235" type="line"/>
      <point x="459" y="-70" type="line"/>
      <point x="490" y="-70" type="line"/>
      <point x="490" y="206" type="line"/>
      <point x="865" y="206" type="line"/>
      <point x="865" y="-67" type="line"/>
    </contour>
    <contour>
      <point x="874" y="-25" type="line"/>
      <point x="874" y="4" type="line"/>
      <point x="476" y="4" type="line"/>
      <point x="476" y="-25" type="line"/>
    </contour>
  </outline>
</glyph>
<glyph name="uni5047" format="2">
  <advance width="1000" height="1000"/>
  <unicode hex="5047"/>
  <note>
cid10390
</note>
  <outline>
    <contour>
      <point x="594" y="490" type="line"/>
      <point x="594" y="775" type="line"/>
      <point x="337" y="775" type="line"/>
      <point x="337" y="746" type="line"/>
      <point x="565" y="746" type="line"/>
      <point x="565" y="520" type="line"/>
      <point x="337" y="520" type="line"/>
      <point x="337" y="490" type="line"/>
    </contour>
    <contour>
      <point x="927" y="488" type="line"/>
      <point x="927" y="770" type="line"/>
      <point x="643" y="770" type="line"/>
      <point x="643" y="741" type="line"/>
      <point x="897" y="741" type="line"/>
      <point x="897" y="518" type="line"/>
      <point x="643" y="518" type="line"/>
      <point x="643" y="488" type="line"/>
    </contour>
    <contour>
      <point x="351" y="-71" type="line"/>
      <point x="351" y="775" type="line"/>
      <point x="322" y="775" type="line"/>
      <point x="322" y="-71" type="line"/>
    </contour>
    <contour>
      <point x="585" y="330" type="line"/>
      <point x="585" y="360" type="line"/>
      <point x="337" y="360" type="line"/>
      <point x="337" y="330" type="line"/>
    </contour>
    <contour>
      <point x="589" y="144" type="line"/>
      <point x="589" y="174" type="line"/>
      <point x="337" y="174" type="line"/>
      <point x="337" y="144" type="line"/>
    </contour>
    <contour>
      <point x="922" y="347" type="line"/>
      <point x="922" y="376" type="line"/>
      <point x="612" y="376" type="line"/>
      <point x="612" y="347" type="line"/>
    </contour>
    <contour>
      <point x="922" y="378" type="line"/>
      <point x="916" y="376" type="line"/>
      <point x="910" y="376" type="line"/>
      <point x="910" y="370" type="line"/>
      <point x="861" y="132"/>
      <point x="707" y="2"/>
      <point x="538" y="-51" type="curve"/>
      <point x="545" y="-57"/>
      <point x="553" y="-67"/>
      <point x="556" y="-75" type="curve"/>
      <point x="731" y="-16"/>
      <point x="885" y="117"/>
      <point x="939" y="371" type="curve"/>
    </contour>
    <contour>
      <point x="674" y="340" type="curve"/>
      <point x="649" y="333" type="line"/>
      <point x="697" y="145"/>
      <point x="802" y="-6"/>
      <point x="950" y="-73" type="curve"/>
      <point x="955" y="-65"/>
      <point x="964" y="-56"/>
      <point x="971" y="-50" type="curve"/>
      <point x="824" y="10"/>
      <point x="720" y="159"/>
    </contour>
    <contour>
      <point x="284" y="816" type="curve"/>
      <point x="256" y="822" type="line"/>
      <point x="203" y="659"/>
      <point x="118" y="498"/>
      <point x="24" y="392" type="curve"/>
      <point x="31" y="386"/>
      <point x="41" y="375"/>
      <point x="45" y="369" type="curve"/>
      <point x="141" y="482"/>
      <point x="228" y="644"/>
    </contour>
    <contour>
      <point x="203" y="632" type="line"/>
      <point x="202" y="634" type="line"/>
      <point x="174" y="606" type="line"/>
      <point x="174" y="-71" type="line"/>
      <point x="203" y="-71" type="line"/>
    </contour>
  </outline>
</glyph>
<glyph name="uni5085" format="2">
  <advance width="1000" height="1000"/>
  <unicode hex="5085"/>
  <note>
cid10500
</note>
  <outline>
    <contour>
      <point x="942" y="690" type="line"/>
      <point x="942" y="719" type="line"/>
      <point x="315" y="719" type="line"/>
      <point x="315" y="690" type="line"/>
    </contour>
    <contour>
      <point x="959" y="198" type="line"/>
      <point x="959" y="228" type="line"/>
      <point x="283" y="228" type="line"/>
      <point x="283" y="198" type="line"/>
    </contour>
    <contour>
      <point x="641" y="287" type="line"/>
      <point x="641" y="825" type="line"/>
      <point x="612" y="825" type="line"/>
      <point x="612" y="287" type="line"/>
    </contour>
    <contour>
      <point x="897" y="288" type="line"/>
      <point x="897" y="607" type="line"/>
      <point x="362" y="607" type="line"/>
      <point x="362" y="288" type="line"/>
      <point x="391" y="288" type="line"/>
      <point x="391" y="577" type="line"/>
      <point x="868" y="577" type="line"/>
      <point x="868" y="288" type="line"/>
    </contour>
    <contour>
      <point x="883" y="463" type="line"/>
      <point x="883" y="492" type="line"/>
      <point x="376" y="492" type="line"/>
      <point x="376" y="463" type="line"/>
    </contour>
    <contour>
      <point x="883" y="348" type="line"/>
      <point x="883" y="377" type="line"/>
      <point x="376" y="377" type="line"/>
      <point x="376" y="348" type="line"/>
    </contour>
    <contour>
      <point x="796" y="-20" type="curve" smooth="yes"/>
      <point x="796" y="316" type="line"/>
      <point x="767" y="316" type="line"/>
      <point x="767" y="-20" type="line" smooth="yes"/>
      <point x="767" y="-34"/>
      <point x="764" y="-38"/>
      <point x="747" y="-39" type="curve" smooth="yes"/>
      <point x="729" y="-41"/>
      <point x="677" y="-41"/>
      <point x="602" y="-39" type="curve"/>
      <point x="608" y="-49"/>
      <point x="613" y="-60"/>
      <point x="615" y="-68" type="curve"/>
      <point x="695" y="-68"/>
      <point x="743" y="-69"/>
      <point x="767" y="-64" type="curve" smooth="yes"/>
      <point x="789" y="-58"/>
      <point x="796" y="-47"/>
    </contour>
    <contour>
      <point x="427" y="159" type="curve"/>
      <point x="405" y="143" type="line"/>
      <point x="456" y="105"/>
      <point x="515" y="48"/>
      <point x="548" y="5" type="curve"/>
      <point x="570" y="26" type="line"/>
      <point x="536" y="68"/>
      <point x="477" y="123"/>
    </contour>
    <contour>
      <point x="732" y="817" type="curve"/>
      <point x="714" y="798" type="line"/>
      <point x="762" y="777"/>
      <point x="819" y="743"/>
      <point x="853" y="716" type="curve"/>
      <point x="870" y="740" type="line"/>
      <point x="836" y="767"/>
      <point x="780" y="798"/>
    </contour>
    <contour>
      <point x="320" y="819" type="curve"/>
      <point x="291" y="827" type="line"/>
      <point x="230" y="666"/>
      <point x="130" y="508"/>
      <point x="23" y="405" type="curve"/>
      <point x="30" y="400"/>
      <point x="40" y="387"/>
      <point x="44" y="381" type="curve"/>
      <point x="152" y="491"/>
      <point x="253" y="650"/>
    </contour>
    <contour>
      <point x="209" y="615" type="line"/>
      <point x="207" y="616" type="line"/>
      <point x="180" y="588" type="line"/>
      <point x="180" y="-68" type="line"/>
      <point x="209" y="-68" type="line"/>
    </contour>
  </outline>
</glyph>
<glyph name="uni50F5" format="2">
  <advance width="1000" height="1000"/>
  <unicode hex="50F5"/>
  <note>
cid10719
</note>
  <outline>
    <contour>
      <point x="944" y="743" type="line"/>
      <point x="944" y="772" type="line"/>
      <point x="303" y="772" type="line"/>
      <point x="303" y="743" type="line"/>
    </contour>
    <contour>
      <point x="936" y="363" type="line"/>
      <point x="936" y="392" type="line"/>
      <point x="305" y="392" type="line"/>
      <point x="305" y="363" type="line"/>
    </contour>
    <contour>
      <point x="950" y="-45" type="line"/>
      <point x="950" y="-16" type="line"/>
      <point x="271" y="-16" type="line"/>
      <point x="271" y="-45" type="line"/>
    </contour>
    <contour>
      <point x="854" y="476" type="line"/>
      <point x="394" y="476" type="line"/>
      <point x="394" y="554" type="line"/>
      <point x="854" y="554" type="line"/>
    </contour>
    <contour>
      <point x="854" y="583" type="line"/>
      <point x="394" y="583" type="line"/>
      <point x="394" y="659" type="line"/>
      <point x="854" y="659" type="line"/>
    </contour>
    <contour>
      <point x="883" y="447" type="line"/>
      <point x="883" y="688" type="line"/>
      <point x="365" y="688" type="line"/>
      <point x="365" y="447" type="line"/>
    </contour>
    <contour>
      <point x="859" y="80" type="line"/>
      <point x="387" y="80" type="line"/>
      <point x="387" y="162" type="line"/>
      <point x="859" y="162" type="line"/>
    </contour>
    <contour>
      <point x="859" y="191" type="line"/>
      <point x="387" y="191" type="line"/>
      <point x="387" y="272" type="line"/>
      <point x="859" y="272" type="line"/>
    </contour>
    <contour>
      <point x="888" y="50" type="line"/>
      <point x="888" y="301" type="line"/>
      <point x="358" y="301" type="line"/>
      <point x="358" y="50" type="line"/>
    </contour>
    <contour>
      <point x="635" y="63" type="line"/>
      <point x="635" y="292" type="line"/>
      <point x="606" y="292" type="line"/>
      <point x="606" y="63" type="line"/>
    </contour>
    <contour>
      <point x="635" y="463" type="line"/>
      <point x="635" y="679" type="line"/>
      <point x="606" y="679" type="line"/>
      <point x="606" y="463" type="line"/>
    </contour>
    <contour>
      <point x="284" y="816" type="curve"/>
      <point x="256" y="822" type="line"/>
      <point x="203" y="661"/>
      <point x="118" y="501"/>
      <point x="24" y="396" type="curve"/>
      <point x="31" y="390"/>
      <point x="41" y="378"/>
      <point x="46" y="373" type="curve"/>
      <point x="141" y="485"/>
      <point x="228" y="646"/>
    </contour>
    <contour>
      <point x="203" y="632" type="line"/>
      <point x="202" y="634" type="line"/>
      <point x="174" y="606" type="line"/>
      <point x="174" y="-71" type="line"/>
      <point x="203" y="-71" type="line"/>
    </contour>
  </outline>
</glyph>
<glyph name="uni5146" format="2">
  <advance width="1000" height="1000"/>
  <unicode hex="5146"/>
  <note>
cid10867
</note>
  <outline>
    <contour>
      <point x="618" y="22" type="curve" smooth="yes"/>
      <point x="618" y="816" type="line"/>
      <point x="588" y="816" type="line"/>
      <point x="588" y="23" type="line" smooth="yes"/>
      <point x="588" y="-46"/>
      <point x="610" y="-61"/>
      <point x="679" y="-61" type="curve" smooth="yes"/>
      <point x="695" y="-61"/>
      <point x="857" y="-61"/>
      <point x="873" y="-61" type="curve" smooth="yes"/>
      <point x="941" y="-61"/>
      <point x="951" y="-24"/>
      <point x="956" y="86" type="curve"/>
      <point x="947" y="89"/>
      <point x="935" y="94"/>
      <point x="926" y="101" type="curve"/>
      <point x="921" y="-4"/>
      <point x="916" y="-31"/>
      <point x="876" y="-31" type="curve" smooth="yes"/>
      <point x="843" y="-31"/>
      <point x="702" y="-31"/>
      <point x="677" y="-31" type="curve" smooth="yes"/>
      <point x="627" y="-31"/>
      <point x="618" y="-20"/>
    </contour>
    <contour>
      <point x="64" y="228" type="curve"/>
      <point x="80" y="202" type="line"/>
      <point x="165" y="242"/>
      <point x="280" y="298"/>
      <point x="387" y="351" type="curve"/>
      <point x="381" y="376" type="line"/>
      <point x="265" y="320"/>
      <point x="143" y="262"/>
    </contour>
    <contour>
      <point x="404" y="441" type="curve" smooth="yes"/>
      <point x="404" y="816" type="line"/>
      <point x="375" y="816" type="line"/>
      <point x="375" y="441" type="line" smooth="yes"/>
      <point x="375" y="241"/>
      <point x="342" y="68"/>
      <point x="69" y="-54" type="curve"/>
      <point x="76" y="-60"/>
      <point x="84" y="-70"/>
      <point x="88" y="-77" type="curve"/>
      <point x="369" y="49"/>
      <point x="404" y="231"/>
    </contour>
    <contour>
      <point x="126" y="735" type="curve"/>
      <point x="102" y="721" type="line"/>
      <point x="172" y="651"/>
      <point x="241" y="553"/>
      <point x="268" y="486" type="curve"/>
      <point x="293" y="503" type="line"/>
      <point x="267" y="568"/>
      <point x="195" y="665"/>
    </contour>
    <contour>
      <point x="637" y="410" type="curve"/>
      <point x="619" y="389" type="line"/>
      <point x="727" y="332"/>
      <point x="858" y="245"/>
      <point x="922" y="185" type="curve"/>
      <point x="941" y="210" type="line"/>
      <point x="876" y="269"/>
      <point x="746" y="353"/>
    </contour>
    <contour>
      <point x="895" y="729" type="curve"/>
      <point x="867" y="744" type="line"/>
      <point x="824" y="668"/>
      <point x="748" y="557"/>
      <point x="691" y="492" type="curve"/>
      <point x="713" y="479" type="line"/>
      <point x="770" y="544"/>
      <point x="844" y="649"/>
    </contour>
  </outline>
</glyph>
<glyph name="uni514B" format="2">
  <advance width="1000" height="1000"/>
  <unicode hex="514B"/>
  <note>
cid10874
</note>
  <outline>
    <contour>
      <point x="782" y="300" type="line"/>
      <point x="220" y="300" type="line"/>
      <point x="220" y="531" type="line"/>
      <point x="782" y="531" type="line"/>
    </contour>
    <contour>
      <point x="812" y="271" type="line"/>
      <point x="812" y="560" type="line"/>
      <point x="190" y="560" type="line"/>
      <point x="190" y="271" type="line"/>
    </contour>
    <contour>
      <point x="930" y="686" type="line"/>
      <point x="930" y="716" type="line"/>
      <point x="74" y="716" type="line"/>
      <point x="74" y="686" type="line"/>
    </contour>
    <contour>
      <point x="513" y="544" type="line"/>
      <point x="513" y="831" type="line"/>
      <point x="483" y="831" type="line"/>
      <point x="483" y="544" type="line"/>
    </contour>
    <contour>
      <point x="614" y="0" type="curve" smooth="yes"/>
      <point x="614" y="292" type="line"/>
      <point x="584" y="292" type="line"/>
      <point x="584" y="0" type="line" smooth="yes"/>
      <point x="584" y="-52"/>
      <point x="605" y="-62"/>
      <point x="675" y="-62" type="curve" smooth="yes"/>
      <point x="691" y="-62"/>
      <point x="847" y="-62"/>
      <point x="864" y="-62" type="curve" smooth="yes"/>
      <point x="935" y="-62"/>
      <point x="946" y="-29"/>
      <point x="951" y="113" type="curve"/>
      <point x="942" y="115"/>
      <point x="930" y="120"/>
      <point x="921" y="127" type="curve"/>
      <point x="917" y="-12"/>
      <point x="911" y="-32"/>
      <point x="863" y="-32" type="curve" smooth="yes"/>
      <point x="829" y="-32"/>
      <point x="698" y="-32"/>
      <point x="673" y="-32" type="curve" smooth="yes"/>
      <point x="623" y="-32"/>
      <point x="614" y="-26"/>
    </contour>
    <contour>
      <point x="402" y="284" type="curve"/>
      <point x="371" y="284" type="line"/>
      <point x="349" y="113"/>
      <point x="275" y="5"/>
      <point x="51" y="-46" type="curve"/>
      <point x="57" y="-51"/>
      <point x="67" y="-64"/>
      <point x="70" y="-71" type="curve"/>
      <point x="298" y="-16"/>
      <point x="377" y="96"/>
    </contour>
  </outline>
</glyph>
<glyph name="uni5176" format="2">
  <advance width="1000" height="1000"/>
  <unicode hex="5176"/>
  <note>
cid10950
</note>
  <outline>
    <contour>
      <point x="942" y="152" type="line"/>
      <point x="942" y="182" type="line"/>
      <point x="59" y="182" type="line"/>
      <point x="59" y="152" type="line"/>
    </contour>
    <contour>
      <point x="919" y="667" type="line"/>
      <point x="919" y="696" type="line"/>
      <point x="85" y="696" type="line"/>
      <point x="85" y="667" type="line"/>
    </contour>
    <contour>
      <point x="730" y="499" type="line"/>
      <point x="730" y="528" type="line"/>
      <point x="276" y="528" type="line"/>
      <point x="276" y="499" type="line"/>
    </contour>
    <contour>
      <point x="730" y="320" type="line"/>
      <point x="730" y="349" type="line"/>
      <point x="276" y="349" type="line"/>
      <point x="276" y="320" type="line"/>
    </contour>
    <contour>
      <point x="286" y="169" type="line"/>
      <point x="286" y="830" type="line"/>
      <point x="257" y="830" type="line"/>
      <point x="257" y="169" type="line"/>
    </contour>
    <contour>
      <point x="745" y="169" type="line"/>
      <point x="745" y="830" type="line"/>
      <point x="716" y="830" type="line"/>
      <point x="716" y="169" type="line"/>
    </contour>
    <contour>
      <point x="613" y="104" type="curve"/>
      <point x="596" y="83" type="line"/>
      <point x="721" y="36"/>
      <point x="844" y="-19"/>
      <point x="921" y="-65" type="curve"/>
      <point x="942" y="-42" type="line"/>
      <point x="862" y="3"/>
      <point x="736" y="60"/>
    </contour>
    <contour>
      <point x="407" y="90" type="curve"/>
      <point x="374" y="106" type="line"/>
      <point x="303" y="53"/>
      <point x="163" y="-8"/>
      <point x="52" y="-43" type="curve"/>
      <point x="59" y="-49"/>
      <point x="69" y="-61"/>
      <point x="73" y="-67" type="curve"/>
      <point x="183" y="-29"/>
      <point x="320" y="31"/>
    </contour>
  </outline>
</glyph>
<glyph name="uni517C" format="2">
  <advance width="1000" height="1000"/>
  <unicode hex="517C"/>
  <note>
cid10958
</note>
  <outline>
    <contour>
      <point x="919" y="659" type="line"/>
      <point x="919" y="688" type="line"/>
      <point x="81" y="688" type="line"/>
      <point x="81" y="659" type="line"/>
    </contour>
    <contour>
      <point x="935" y="363" type="line"/>
      <point x="935" y="392" type="line"/>
      <point x="66" y="392" type="line"/>
      <point x="66" y="363" type="line"/>
    </contour>
    <contour>
      <point x="394" y="208" type="curve"/>
      <point x="369" y="221" type="line"/>
      <point x="298" y="119"/>
      <point x="160" y="19"/>
      <point x="44" y="-26" type="curve"/>
      <point x="52" y="-33"/>
      <point x="61" y="-43"/>
      <point x="66" y="-51" type="curve"/>
      <point x="180" y="-1"/>
      <point x="321" y="102"/>
    </contour>
    <contour>
      <point x="623" y="223" type="curve"/>
      <point x="599" y="210" type="line"/>
      <point x="679" y="112"/>
      <point x="828" y="7"/>
      <point x="939" y="-44" type="curve"/>
      <point x="944" y="-36"/>
      <point x="953" y="-26"/>
      <point x="960" y="-21" type="curve"/>
      <point x="847" y="25"/>
      <point x="701" y="127"/>
    </contour>
    <contour>
      <point x="404" y="-71" type="line"/>
      <point x="404" y="678" type="line"/>
      <point x="375" y="678" type="line"/>
      <point x="375" y="-71" type="line"/>
    </contour>
    <contour>
      <point x="621" y="-71" type="line"/>
      <point x="621" y="678" type="line"/>
      <point x="591" y="678" type="line"/>
      <point x="591" y="-71" type="line"/>
    </contour>
    <contour>
      <point x="832" y="202" type="line"/>
      <point x="832" y="538" type="line"/>
      <point x="140" y="538" type="line"/>
      <point x="140" y="509" type="line"/>
      <point x="803" y="509" type="line"/>
      <point x="803" y="231" type="line"/>
      <point x="133" y="231" type="line"/>
      <point x="133" y="202" type="line"/>
    </contour>
    <contour>
      <point x="252" y="832" type="curve"/>
      <point x="229" y="819" type="line"/>
      <point x="271" y="782"/>
      <point x="318" y="728"/>
      <point x="340" y="694" type="curve"/>
      <point x="365" y="709" type="line"/>
      <point x="342" y="743"/>
      <point x="294" y="796"/>
    </contour>
    <contour>
      <point x="775" y="819" type="curve"/>
      <point x="746" y="832" type="line"/>
      <point x="720" y="794"/>
      <point x="672" y="738"/>
      <point x="635" y="704" type="curve"/>
      <point x="660" y="692" type="line"/>
      <point x="697" y="726"/>
      <point x="741" y="776"/>
    </contour>
  </outline>
</glyph>
<glyph name="uni5195" format="2">
  <advance width="1000" height="1000"/>
  <unicode hex="5195"/>
  <note>
cid10994
</note>
  <outline>
    <contour>
      <point x="837" y="526" type="line"/>
      <point x="837" y="788" type="line"/>
      <point x="162" y="788" type="line"/>
      <point x="162" y="523" type="line"/>
      <point x="191" y="523" type="line"/>
      <point x="191" y="759" type="line"/>
      <point x="808" y="759" type="line"/>
      <point x="808" y="526" type="line"/>
    </contour>
    <contour>
      <point x="742" y="660" type="line"/>
      <point x="742" y="689" type="line"/>
      <point x="261" y="689" type="line"/>
      <point x="261" y="660" type="line"/>
    </contour>
    <contour>
      <point x="742" y="568" type="line"/>
      <point x="742" y="597" type="line"/>
      <point x="261" y="597" type="line"/>
      <point x="261" y="568" type="line"/>
    </contour>
    <contour>
      <point x="571" y="3" type="curve" smooth="yes"/>
      <point x="571" y="189" type="line"/>
      <point x="541" y="189" type="line"/>
      <point x="541" y="3" type="line" smooth="yes"/>
      <point x="541" y="-47"/>
      <point x="564" y="-56"/>
      <point x="642" y="-56" type="curve" smooth="yes"/>
      <point x="659" y="-56"/>
      <point x="842" y="-56"/>
      <point x="861" y="-56" type="curve" smooth="yes"/>
      <point x="933" y="-56"/>
      <point x="946" y="-28"/>
      <point x="951" y="95" type="curve"/>
      <point x="942" y="98"/>
      <point x="930" y="102"/>
      <point x="921" y="109" type="curve"/>
      <point x="917" y="-11"/>
      <point x="910" y="-26"/>
      <point x="859" y="-26" type="curve" smooth="yes"/>
      <point x="821" y="-26"/>
      <point x="667" y="-26"/>
      <point x="639" y="-26" type="curve" smooth="yes"/>
      <point x="581" y="-26"/>
      <point x="571" y="-20"/>
    </contour>
    <contour>
      <point x="393" y="555" type="curve"/>
      <point x="358" y="562" type="line"/>
      <point x="299" y="479"/>
      <point x="189" y="376"/>
      <point x="47" y="302" type="curve"/>
      <point x="55" y="298"/>
      <point x="65" y="289"/>
      <point x="70" y="281" type="curve"/>
      <point x="215" y="361"/>
      <point x="325" y="466"/>
    </contour>
    <contour>
      <point x="642" y="459" type="line"/>
      <point x="642" y="488" type="line"/>
      <point x="311" y="488" type="line"/>
      <point x="287" y="459" type="line"/>
    </contour>
    <contour>
      <point x="514" y="350" type="curve"/>
      <point x="483" y="350" type="line"/>
      <point x="458" y="123"/>
      <point x="379" y="4"/>
      <point x="50" y="-45" type="curve"/>
      <point x="56" y="-52"/>
      <point x="63" y="-65"/>
      <point x="66" y="-71" type="curve"/>
      <point x="400" y="-18"/>
      <point x="485" y="105"/>
    </contour>
    <contour>
      <point x="645" y="490" type="line"/>
      <point x="639" y="488" type="line"/>
      <point x="633" y="488" type="line"/>
      <point x="633" y="481" type="line"/>
      <point x="602" y="441"/>
      <point x="543" y="389"/>
      <point x="494" y="361" type="curve"/>
      <point x="501" y="358"/>
      <point x="510" y="352"/>
      <point x="515" y="348" type="curve"/>
      <point x="565" y="377"/>
      <point x="626" y="426"/>
      <point x="666" y="476" type="curve"/>
    </contour>
    <contour>
      <point x="812" y="200" type="line"/>
      <point x="202" y="200" type="line"/>
      <point x="202" y="342" type="line"/>
      <point x="812" y="342" type="line"/>
    </contour>
    <contour>
      <point x="841" y="171" type="line"/>
      <point x="841" y="372" type="line"/>
      <point x="173" y="372" type="line"/>
      <point x="173" y="171" type="line"/>
    </contour>
  </outline>
</glyph>
<glyph name="uni51A0" format="2">
  <advance width="1000" height="1000"/>
  <unicode hex="51A0"/>
  <note>
cid11007
</note>
  <outline>
    <contour>
      <point x="474" y="559" type="line"/>
      <point x="474" y="588" type="line"/>
      <point x="129" y="588" type="line"/>
      <point x="129" y="559" type="line"/>
    </contour>
    <contour>
      <point x="512" y="363" type="line"/>
      <point x="512" y="392" type="line"/>
      <point x="61" y="392" type="line"/>
      <point x="61" y="363" type="line"/>
    </contour>
    <contour>
      <point x="944" y="465" type="line"/>
      <point x="944" y="494" type="line"/>
      <point x="511" y="494" type="line"/>
      <point x="511" y="465" type="line"/>
    </contour>
    <contour>
      <point x="915" y="623" type="line"/>
      <point x="915" y="777" type="line"/>
      <point x="88" y="777" type="line"/>
      <point x="88" y="623" type="line"/>
      <point x="118" y="623" type="line"/>
      <point x="118" y="748" type="line"/>
      <point x="885" y="748" type="line"/>
      <point x="885" y="623" type="line"/>
    </contour>
    <contour>
      <point x="818" y="93" type="curve" smooth="yes"/>
      <point x="818" y="647" type="line"/>
      <point x="789" y="647" type="line"/>
      <point x="789" y="93" type="line" smooth="yes"/>
      <point x="789" y="80"/>
      <point x="781" y="77"/>
      <point x="766" y="76" type="curve" smooth="yes"/>
      <point x="751" y="75"/>
      <point x="701" y="75"/>
      <point x="638" y="76" type="curve"/>
      <point x="644" y="67"/>
      <point x="648" y="55"/>
      <point x="650" y="47" type="curve"/>
      <point x="725" y="46"/>
      <point x="767" y="47"/>
      <point x="789" y="52" type="curve" smooth="yes"/>
      <point x="811" y="57"/>
      <point x="818" y="69"/>
    </contour>
    <contour>
      <point x="396" y="20" type="curve" smooth="yes"/>
      <point x="396" y="384" type="line"/>
      <point x="367" y="384" type="line"/>
      <point x="367" y="21" type="line" smooth="yes"/>
      <point x="367" y="-47"/>
      <point x="398" y="-60"/>
      <point x="503" y="-60" type="curve" smooth="yes"/>
      <point x="526" y="-60"/>
      <point x="805" y="-60"/>
      <point x="829" y="-60" type="curve" smooth="yes"/>
      <point x="927" y="-60"/>
      <point x="943" y="-26"/>
      <point x="951" y="100" type="curve"/>
      <point x="941" y="102"/>
      <point x="929" y="107"/>
      <point x="920" y="113" type="curve"/>
      <point x="914" y="-8"/>
      <point x="903" y="-30"/>
      <point x="831" y="-30" type="curve" smooth="yes"/>
      <point x="774" y="-30"/>
      <point x="538" y="-30"/>
      <point x="497" y="-30" type="curve" smooth="yes"/>
      <point x="413" y="-30"/>
      <point x="396" y="-18"/>
    </contour>
    <contour>
      <point x="582" y="383" type="curve"/>
      <point x="557" y="373" type="line"/>
      <point x="599" y="316"/>
      <point x="639" y="238"/>
      <point x="654" y="186" type="curve"/>
      <point x="682" y="199" type="line"/>
      <point x="667" y="250"/>
      <point x="626" y="327"/>
    </contour>
    <contour>
      <point x="220" y="268" type="curve" smooth="yes"/>
      <point x="220" y="384" type="line"/>
      <point x="190" y="384" type="line"/>
      <point x="190" y="268" type="line" smooth="yes"/>
      <point x="190" y="170"/>
      <point x="166" y="43"/>
      <point x="49" y="-51" type="curve"/>
      <point x="56" y="-56"/>
      <point x="65" y="-66"/>
      <point x="69" y="-73" type="curve"/>
      <point x="192" y="26"/>
      <point x="220" y="163"/>
    </contour>
  </outline>
</glyph>
<glyph name="uni51E1" format="2">
  <advance width="1000" height="1000"/>
  <unicode hex="51E1"/>
  <note>
cid11092
</note>
  <outline>
    <contour>
      <point x="699" y="759" type="line"/>
      <point x="271" y="759" type="line"/>
      <point x="271" y="729" type="line"/>
      <point x="699" y="729" type="line"/>
    </contour>
    <contour>
      <point x="284" y="759" type="line"/>
      <point x="255" y="759" type="line"/>
      <point x="255" y="498" type="line" smooth="yes"/>
      <point x="255" y="326"/>
      <point x="233" y="110"/>
      <point x="49" y="-47" type="curve"/>
      <point x="56" y="-52"/>
      <point x="66" y="-64"/>
      <point x="70" y="-70" type="curve"/>
      <point x="259" y="92"/>
      <point x="284" y="322"/>
      <point x="284" y="498" type="curve" smooth="yes"/>
    </contour>
    <contour>
      <point x="713" y="759" type="line"/>
      <point x="683" y="759" type="line"/>
      <point x="683" y="29" type="line" smooth="yes"/>
      <point x="683" y="-32"/>
      <point x="699" y="-46"/>
      <point x="755" y="-46" type="curve" smooth="yes"/>
      <point x="769" y="-46"/>
      <point x="867" y="-46"/>
      <point x="880" y="-46" type="curve" smooth="yes"/>
      <point x="943" y="-46"/>
      <point x="951" y="2"/>
      <point x="955" y="160" type="curve"/>
      <point x="945" y="163"/>
      <point x="934" y="168"/>
      <point x="925" y="176" type="curve"/>
      <point x="921" y="21"/>
      <point x="917" y="-16"/>
      <point x="880" y="-16" type="curve" smooth="yes"/>
      <point x="859" y="-16"/>
      <point x="772" y="-16"/>
      <point x="755" y="-16" type="curve" smooth="yes"/>
      <point x="720" y="-16"/>
      <point x="713" y="-9"/>
      <point x="713" y="28" type="curve" smooth="yes"/>
    </contour>
    <contour>
      <point x="370" y="526" type="curve"/>
      <point x="347" y="512" type="line"/>
      <point x="436" y="447"/>
      <point x="529" y="352"/>
      <point x="572" y="282" type="curve"/>
      <point x="595" y="302" type="line"/>
      <point x="553" y="371"/>
      <point x="460" y="464"/>
    </contour>
  </outline>
</glyph>
<glyph name="uni520A" format="2">
  <advance width="1000" height="1000"/>
  <unicode hex="520A"/>
  <note>
cid11174
</note>
  <outline>
    <contour>
      <point x="663" y="169" type="line"/>
      <point x="663" y="712" type="line"/>
      <point x="634" y="712" type="line"/>
      <point x="634" y="169" type="line"/>
    </contour>
    <contour>
      <point x="898" y="-16" type="curve" smooth="yes"/>
      <point x="898" y="813" type="line"/>
      <point x="868" y="813" type="line"/>
      <point x="868" y="-17" type="line" smooth="yes"/>
      <point x="868" y="-36"/>
      <point x="861" y="-42"/>
      <point x="842" y="-43" type="curve" smooth="yes"/>
      <point x="824" y="-44"/>
      <point x="764" y="-45"/>
      <point x="687" y="-43" type="curve"/>
      <point x="693" y="-52"/>
      <point x="698" y="-65"/>
      <point x="701" y="-71" type="curve"/>
      <point x="793" y="-72"/>
      <point x="839" y="-72"/>
      <point x="863" y="-66" type="curve" smooth="yes"/>
      <point x="885" y="-61"/>
      <point x="898" y="-49"/>
    </contour>
    <contour>
      <point x="530" y="743" type="line"/>
      <point x="530" y="773" type="line"/>
      <point x="80" y="773" type="line"/>
      <point x="80" y="743" type="line"/>
    </contour>
    <contour>
      <point x="548" y="393" type="line"/>
      <point x="548" y="422" type="line"/>
      <point x="49" y="422" type="line"/>
      <point x="49" y="393" type="line"/>
    </contour>
    <contour>
      <point x="321" y="-70" type="line"/>
      <point x="321" y="759" type="line"/>
      <point x="291" y="759" type="line"/>
      <point x="291" y="-70" type="line"/>
    </contour>
  </outline>
</glyph>
<glyph name="uni5211" format="2">
  <advance width="1000" height="1000"/>
  <unicode hex="5211"/>
  <note>
cid11181
</note>
  <outline>
    <contour>
      <point x="563" y="743" type="line"/>
      <point x="563" y="772" type="line"/>
      <point x="77" y="772" type="line"/>
      <point x="77" y="743" type="line"/>
    </contour>
    <contour>
      <point x="584" y="398" type="line"/>
      <point x="584" y="427" type="line"/>
      <point x="50" y="427" type="line"/>
      <point x="50" y="398" type="line"/>
    </contour>
    <contour>
      <point x="674" y="168" type="line"/>
      <point x="674" y="711" type="line"/>
      <point x="645" y="711" type="line"/>
      <point x="645" y="168" type="line"/>
    </contour>
    <contour>
      <point x="902" y="-17" type="curve" smooth="yes"/>
      <point x="902" y="812" type="line"/>
      <point x="872" y="812" type="line"/>
      <point x="872" y="-18" type="line" smooth="yes"/>
      <point x="872" y="-36"/>
      <point x="865" y="-42"/>
      <point x="846" y="-43" type="curve" smooth="yes"/>
      <point x="828" y="-44"/>
      <point x="768" y="-45"/>
      <point x="691" y="-43" type="curve"/>
      <point x="697" y="-52"/>
      <point x="702" y="-65"/>
      <point x="705" y="-72" type="curve"/>
      <point x="797" y="-73"/>
      <point x="843" y="-73"/>
      <point x="867" y="-67" type="curve" smooth="yes"/>
      <point x="889" y="-62"/>
      <point x="902" y="-49"/>
    </contour>
    <contour>
      <point x="217" y="423" type="curve" smooth="yes"/>
      <point x="217" y="765" type="line"/>
      <point x="187" y="765" type="line"/>
      <point x="187" y="423" type="line" smooth="yes"/>
      <point x="187" y="252"/>
      <point x="171" y="80"/>
      <point x="45" y="-52" type="curve"/>
      <point x="53" y="-57"/>
      <point x="63" y="-65"/>
      <point x="69" y="-71" type="curve"/>
      <point x="197" y="68"/>
      <point x="217" y="237"/>
    </contour>
    <contour>
      <point x="457" y="-70" type="line"/>
      <point x="457" y="765" type="line"/>
      <point x="427" y="765" type="line"/>
      <point x="427" y="-70" type="line"/>
    </contour>
  </outline>
</glyph>
<glyph name="uni5212" format="2">
  <advance width="1000" height="1000"/>
  <unicode hex="5212"/>
  <note>
cid11182
</note>
  <outline>
    <contour>
      <point x="683" y="171" type="line"/>
      <point x="683" y="718" type="line"/>
      <point x="653" y="718" type="line"/>
      <point x="653" y="171" type="line"/>
    </contour>
    <contour>
      <point x="898" y="-16" type="curve" smooth="yes"/>
      <point x="898" y="818" type="line"/>
      <point x="868" y="818" type="line"/>
      <point x="868" y="-17" type="line" smooth="yes"/>
      <point x="868" y="-35"/>
      <point x="861" y="-40"/>
      <point x="843" y="-41" type="curve" smooth="yes"/>
      <point x="827" y="-42"/>
      <point x="769" y="-43"/>
      <point x="697" y="-41" type="curve"/>
      <point x="702" y="-50"/>
      <point x="708" y="-63"/>
      <point x="710" y="-70" type="curve"/>
      <point x="798" y="-70"/>
      <point x="841" y="-70"/>
      <point x="864" y="-65" type="curve" smooth="yes"/>
      <point x="886" y="-59"/>
      <point x="898" y="-48"/>
    </contour>
    <contour>
      <point x="598" y="552" type="line"/>
      <point x="594" y="580" type="line"/>
      <point x="46" y="516" type="line"/>
      <point x="50" y="488" type="line"/>
    </contour>
    <contour>
      <point x="241" y="829" type="curve"/>
      <point x="211" y="829" type="line"/>
      <point x="221" y="346"/>
      <point x="366" y="-70"/>
      <point x="510" y="-70" type="curve" smooth="yes"/>
      <point x="559" y="-70"/>
      <point x="575" y="-24"/>
      <point x="583" y="106" type="curve"/>
      <point x="575" y="108"/>
      <point x="563" y="114"/>
      <point x="556" y="120" type="curve"/>
      <point x="550" y="3"/>
      <point x="538" y="-40"/>
      <point x="512" y="-41" type="curve" smooth="yes"/>
      <point x="398" y="-41"/>
      <point x="246" y="333"/>
    </contour>
    <contour>
      <point x="510" y="469" type="curve"/>
      <point x="482" y="476" type="line"/>
      <point x="400" y="250"/>
      <point x="248" y="73"/>
      <point x="50" y="-37" type="curve"/>
      <point x="57" y="-43"/>
      <point x="69" y="-55"/>
      <point x="74" y="-60" type="curve"/>
      <point x="270" y="58"/>
      <point x="422" y="233"/>
    </contour>
    <contour>
      <point x="343" y="795" type="curve"/>
      <point x="322" y="778" type="line"/>
      <point x="377" y="736"/>
      <point x="440" y="676"/>
      <point x="471" y="636" type="curve"/>
      <point x="493" y="656" type="line"/>
      <point x="463" y="695"/>
      <point x="398" y="754"/>
    </contour>
  </outline>
</glyph>
<glyph name="uni522E" format="2">
  <advance width="1000" height="1000"/>
  <unicode hex="522E"/>
  <note>
cid11219
</note>
  <outline>
    <contour>
      <point x="530" y="-17" type="line"/>
      <point x="530" y="13" type="line"/>
      <point x="120" y="13" type="line"/>
      <point x="120" y="-17" type="line"/>
    </contour>
    <contour>
      <point x="337" y="284" type="line"/>
      <point x="337" y="758" type="line"/>
      <point x="308" y="751" type="line"/>
      <point x="308" y="284" type="line"/>
    </contour>
    <contour>
      <point x="543" y="-67" type="line"/>
      <point x="543" y="299" type="line"/>
      <point x="103" y="299" type="line"/>
      <point x="103" y="-70" type="line"/>
      <point x="133" y="-70" type="line"/>
      <point x="133" y="269" type="line"/>
      <point x="514" y="269" type="line"/>
      <point x="514" y="-67" type="line"/>
    </contour>
    <contour>
      <point x="597" y="504" type="line"/>
      <point x="597" y="533" type="line"/>
      <point x="49" y="533" type="line"/>
      <point x="49" y="504" type="line"/>
    </contour>
    <contour>
      <point x="551" y="807" type="curve"/>
      <point x="525" y="830" type="line"/>
      <point x="427" y="787"/>
      <point x="226" y="752"/>
      <point x="63" y="730" type="curve"/>
      <point x="68" y="722"/>
      <point x="72" y="712"/>
      <point x="74" y="705" type="curve"/>
      <point x="239" y="725"/>
      <point x="438" y="760"/>
    </contour>
    <contour>
      <point x="692" y="169" type="line"/>
      <point x="692" y="711" type="line"/>
      <point x="662" y="711" type="line"/>
      <point x="662" y="169" type="line"/>
    </contour>
    <contour>
      <point x="901" y="-19" type="curve" smooth="yes"/>
      <point x="901" y="812" type="line"/>
      <point x="871" y="812" type="line"/>
      <point x="871" y="-20" type="line" smooth="yes"/>
      <point x="871" y="-37"/>
      <point x="865" y="-42"/>
      <point x="847" y="-43" type="curve" smooth="yes"/>
      <point x="831" y="-44"/>
      <point x="774" y="-45"/>
      <point x="706" y="-43" type="curve"/>
      <point x="711" y="-52"/>
      <point x="716" y="-64"/>
      <point x="719" y="-72" type="curve"/>
      <point x="803" y="-73"/>
      <point x="845" y="-73"/>
      <point x="868" y="-67" type="curve" smooth="yes"/>
      <point x="889" y="-61"/>
      <point x="901" y="-49"/>
    </contour>
  </outline>
</glyph>
<glyph name="uni5236" format="2">
  <advance width="1000" height="1000"/>
  <unicode hex="5236"/>
  <note>
cid11206
</note>
  <outline>
    <contour>
      <point x="691" y="712" type="line"/>
      <point x="661" y="712" type="line"/>
      <point x="661" y="169" type="line"/>
      <point x="691" y="169" type="line"/>
    </contour>
    <contour>
      <point x="901" y="813" type="line"/>
      <point x="871" y="813" type="line"/>
      <point x="871" y="-17" type="line" smooth="yes"/>
      <point x="871" y="-36"/>
      <point x="865" y="-42"/>
      <point x="848" y="-43" type="curve" smooth="yes"/>
      <point x="831" y="-44"/>
      <point x="776" y="-44"/>
      <point x="704" y="-42" type="curve"/>
      <point x="710" y="-50"/>
      <point x="716" y="-63"/>
      <point x="717" y="-71" type="curve"/>
      <point x="803" y="-72"/>
      <point x="845" y="-73"/>
      <point x="868" y="-67" type="curve" smooth="yes"/>
      <point x="890" y="-61"/>
      <point x="901" y="-49"/>
      <point x="901" y="-16" type="curve" smooth="yes"/>
    </contour>
    <contour>
      <point x="343" y="829" type="line"/>
      <point x="314" y="829" type="line"/>
      <point x="314" y="-70" type="line"/>
      <point x="343" y="-70" type="line"/>
    </contour>
    <contour>
      <point x="553" y="342" type="line"/>
      <point x="523" y="342" type="line"/>
      <point x="523" y="49" type="line" smooth="yes"/>
      <point x="523" y="38"/>
      <point x="520" y="34"/>
      <point x="508" y="34" type="curve"/>
      <point x="494" y="32"/>
      <point x="455" y="32"/>
      <point x="397" y="34" type="curve"/>
      <point x="403" y="25"/>
      <point x="408" y="14"/>
      <point x="410" y="5" type="curve"/>
      <point x="471" y="5"/>
      <point x="510" y="5"/>
      <point x="528" y="11" type="curve" smooth="yes"/>
      <point x="548" y="17"/>
      <point x="553" y="27"/>
      <point x="553" y="49" type="curve" smooth="yes"/>
    </contour>
    <contour>
      <point x="546" y="342" type="line"/>
      <point x="111" y="342" type="line"/>
      <point x="111" y="6" type="line"/>
      <point x="140" y="6" type="line"/>
      <point x="140" y="313" type="line"/>
      <point x="546" y="313" type="line"/>
    </contour>
    <contour>
      <point x="605" y="494" type="line"/>
      <point x="49" y="494" type="line"/>
      <point x="49" y="464" type="line"/>
      <point x="605" y="464" type="line"/>
    </contour>
    <contour>
      <point x="560" y="670" type="line"/>
      <point x="141" y="670" type="line"/>
      <point x="135" y="641" type="line"/>
      <point x="560" y="641" type="line"/>
    </contour>
    <contour>
      <point x="192" y="794" type="curve"/>
      <point x="162" y="800" type="line"/>
      <point x="143" y="699"/>
      <point x="106" y="596"/>
      <point x="66" y="532" type="curve"/>
      <point x="74" y="530"/>
      <point x="87" y="525"/>
      <point x="95" y="521" type="curve"/>
      <point x="133" y="585"/>
      <point x="171" y="690"/>
    </contour>
  </outline>
</glyph>
<glyph name="uni524A" format="2">
  <advance width="1000" height="1000"/>
  <unicode hex="524A"/>
  <note>
cid11258
</note>
  <outline>
    <contour>
      <point x="666" y="169" type="line"/>
      <point x="666" y="712" type="line"/>
      <point x="636" y="712" type="line"/>
      <point x="636" y="169" type="line"/>
    </contour>
    <contour>
      <point x="901" y="-16" type="curve" smooth="yes"/>
      <point x="901" y="813" type="line"/>
      <point x="871" y="813" type="line"/>
      <point x="871" y="-17" type="line" smooth="yes"/>
      <point x="871" y="-36"/>
      <point x="864" y="-42"/>
      <point x="845" y="-43" type="curve" smooth="yes"/>
      <point x="827" y="-44"/>
      <point x="767" y="-45"/>
      <point x="690" y="-43" type="curve"/>
      <point x="696" y="-52"/>
      <point x="701" y="-65"/>
      <point x="704" y="-71" type="curve"/>
      <point x="796" y="-72"/>
      <point x="842" y="-72"/>
      <point x="866" y="-66" type="curve" smooth="yes"/>
      <point x="888" y="-61"/>
      <point x="901" y="-49"/>
    </contour>
    <contour>
      <point x="477" y="168" type="line"/>
      <point x="477" y="197" type="line"/>
      <point x="124" y="197" type="line"/>
      <point x="124" y="168" type="line"/>
    </contour>
    <contour>
      <point x="481" y="336" type="line"/>
      <point x="481" y="366" type="line"/>
      <point x="124" y="366" type="line"/>
      <point x="124" y="336" type="line"/>
    </contour>
    <contour>
      <point x="314" y="518" type="line"/>
      <point x="314" y="831" type="line"/>
      <point x="284" y="831" type="line"/>
      <point x="284" y="518" type="line"/>
    </contour>
    <contour>
      <point x="502" y="-23" type="curve" smooth="yes"/>
      <point x="502" y="533" type="line"/>
      <point x="473" y="533" type="line"/>
      <point x="473" y="-23" type="line" smooth="yes"/>
      <point x="473" y="-38"/>
      <point x="467" y="-43"/>
      <point x="452" y="-44" type="curve" smooth="yes"/>
      <point x="437" y="-44"/>
      <point x="385" y="-45"/>
      <point x="321" y="-43" type="curve"/>
      <point x="326" y="-52"/>
      <point x="330" y="-64"/>
      <point x="332" y="-70" type="curve"/>
      <point x="412" y="-71"/>
      <point x="453" y="-71"/>
      <point x="474" y="-66" type="curve" smooth="yes"/>
      <point x="494" y="-60"/>
      <point x="502" y="-49"/>
    </contour>
    <contour>
      <point x="107" y="791" type="curve"/>
      <point x="81" y="780" type="line"/>
      <point x="117" y="714"/>
      <point x="152" y="630"/>
      <point x="166" y="577" type="curve"/>
      <point x="194" y="590" type="line"/>
      <point x="180" y="643"/>
      <point x="144" y="726"/>
    </contour>
    <contour>
      <point x="543" y="786" type="curve"/>
      <point x="512" y="800" type="line"/>
      <point x="485" y="733"/>
      <point x="442" y="645"/>
      <point x="409" y="587" type="curve"/>
      <point x="434" y="575" type="line"/>
      <point x="468" y="631"/>
      <point x="513" y="718"/>
    </contour>
    <contour>
      <point x="488" y="503" type="line"/>
      <point x="488" y="533" type="line"/>
      <point x="100" y="533" type="line"/>
      <point x="100" y="-71" type="line"/>
      <point x="130" y="-71" type="line"/>
      <point x="130" y="503" type="line"/>
    </contour>
  </outline>
</glyph>
<glyph name="uni5269" format="2">
  <advance width="1000" height="1000"/>
  <unicode hex="5269"/>
  <note>
cid11306
</note>
  <outline>
    <contour>
      <point x="701" y="169" type="line"/>
      <point x="701" y="712" type="line"/>
      <point x="672" y="712" type="line"/>
      <point x="672" y="169" type="line"/>
    </contour>
    <contour>
      <point x="245" y="241" type="line"/>
      <point x="245" y="568" type="line"/>
      <point x="215" y="568" type="line"/>
      <point x="215" y="241" type="line"/>
    </contour>
    <contour>
      <point x="901" y="-17" type="curve" smooth="yes"/>
      <point x="901" y="815" type="line"/>
      <point x="871" y="815" type="line"/>
      <point x="871" y="-18" type="line" smooth="yes"/>
      <point x="871" y="-35"/>
      <point x="865" y="-40"/>
      <point x="848" y="-41" type="curve" smooth="yes"/>
      <point x="833" y="-42"/>
      <point x="780" y="-42"/>
      <point x="715" y="-41" type="curve"/>
      <point x="721" y="-50"/>
      <point x="725" y="-62"/>
      <point x="727" y="-69" type="curve"/>
      <point x="808" y="-70"/>
      <point x="848" y="-69"/>
      <point x="869" y="-65" type="curve" smooth="yes"/>
      <point x="890" y="-59"/>
      <point x="901" y="-48"/>
    </contour>
    <contour>
      <point x="229" y="453" type="line"/>
      <point x="229" y="482" type="line"/>
      <point x="66" y="482" type="line"/>
      <point x="66" y="453" type="line"/>
    </contour>
    <contour>
      <point x="623" y="601" type="line"/>
      <point x="623" y="630" type="line"/>
      <point x="52" y="630" type="line"/>
      <point x="52" y="601" type="line"/>
    </contour>
    <contour>
      <point x="352" y="-71" type="line"/>
      <point x="352" y="766" type="line"/>
      <point x="322" y="762" type="line"/>
      <point x="322" y="-71" type="line"/>
    </contour>
    <contour>
      <point x="50" y="310" type="curve"/>
      <point x="59" y="280" type="line"/>
      <point x="111" y="293"/>
      <point x="168" y="307"/>
      <point x="231" y="322" type="curve"/>
      <point x="228" y="350" type="line"/>
      <point x="160" y="334"/>
      <point x="98" y="320"/>
    </contour>
    <contour>
      <point x="351" y="297" type="curve"/>
      <point x="326" y="308" type="line"/>
      <point x="260" y="193"/>
      <point x="143" y="68"/>
      <point x="43" y="4" type="curve"/>
      <point x="50" y="-1"/>
      <point x="60" y="-11"/>
      <point x="65" y="-19" type="curve"/>
      <point x="164" y="50"/>
      <point x="282" y="180"/>
    </contour>
    <contour>
      <point x="607" y="485" type="curve"/>
      <point x="580" y="507" type="line"/>
      <point x="549" y="480"/>
      <point x="490" y="451"/>
      <point x="440" y="429" type="curve"/>
      <point x="445" y="423"/>
      <point x="450" y="413"/>
      <point x="453" y="407" type="curve"/>
      <point x="504" y="427"/>
      <point x="565" y="456"/>
    </contour>
    <contour>
      <point x="574" y="799" type="curve"/>
      <point x="549" y="821" type="line"/>
      <point x="450" y="786"/>
      <point x="240" y="764"/>
      <point x="77" y="754" type="curve"/>
      <point x="81" y="746"/>
      <point x="85" y="735"/>
      <point x="86" y="728" type="curve"/>
      <point x="253" y="737"/>
      <point x="462" y="760"/>
    </contour>
    <contour>
      <point x="458" y="296" type="curve" smooth="yes"/>
      <point x="458" y="568" type="line"/>
      <point x="429" y="568" type="line"/>
      <point x="429" y="296" type="line" smooth="yes"/>
      <point x="429" y="255"/>
      <point x="441" y="247"/>
      <point x="486" y="247" type="curve" smooth="yes"/>
      <point x="495" y="247"/>
      <point x="567" y="247"/>
      <point x="577" y="247" type="curve" smooth="yes"/>
      <point x="613" y="247"/>
      <point x="623" y="267"/>
      <point x="626" y="346" type="curve"/>
      <point x="617" y="348"/>
      <point x="606" y="352"/>
      <point x="599" y="358" type="curve"/>
      <point x="597" y="284"/>
      <point x="593" y="275"/>
      <point x="572" y="275" type="curve" smooth="yes"/>
      <point x="557" y="275"/>
      <point x="498" y="275"/>
      <point x="487" y="275" type="curve" smooth="yes"/>
      <point x="462" y="275"/>
      <point x="458" y="278"/>
    </contour>
    <contour>
      <point x="346" y="260" type="curve"/>
      <point x="328" y="241" type="line"/>
      <point x="381" y="204"/>
      <point x="542" y="72"/>
      <point x="589" y="29" type="curve"/>
      <point x="606" y="55" type="line"/>
      <point x="564" y="89"/>
      <point x="393" y="227"/>
    </contour>
  </outline>
</glyph>
<glyph name="uni526F" format="2">
  <advance width="1000" height="1000"/>
  <unicode hex="526F"/>
  <note>
cid11317
</note>
  <outline>
    <contour>
      <point x="691" y="169" type="line"/>
      <point x="691" y="712" type="line"/>
      <point x="662" y="712" type="line"/>
      <point x="662" y="169" type="line"/>
    </contour>
    <contour>
      <point x="901" y="-18" type="curve" smooth="yes"/>
      <point x="901" y="813" type="line"/>
      <point x="871" y="813" type="line"/>
      <point x="871" y="-19" type="line" smooth="yes"/>
      <point x="871" y="-37"/>
      <point x="865" y="-42"/>
      <point x="847" y="-43" type="curve" smooth="yes"/>
      <point x="831" y="-44"/>
      <point x="774" y="-45"/>
      <point x="706" y="-43" type="curve"/>
      <point x="711" y="-52"/>
      <point x="716" y="-64"/>
      <point x="719" y="-71" type="curve"/>
      <point x="803" y="-72"/>
      <point x="845" y="-72"/>
      <point x="868" y="-66" type="curve" smooth="yes"/>
      <point x="889" y="-61"/>
      <point x="901" y="-49"/>
    </contour>
    <contour>
      <point x="594" y="751" type="line"/>
      <point x="594" y="780" type="line"/>
      <point x="71" y="780" type="line"/>
      <point x="71" y="751" type="line"/>
    </contour>
    <contour>
      <point x="555" y="4" type="line"/>
      <point x="555" y="33" type="line"/>
      <point x="116" y="33" type="line"/>
      <point x="116" y="4" type="line"/>
    </contour>
    <contour>
      <point x="550" y="167" type="line"/>
      <point x="550" y="196" type="line"/>
      <point x="116" y="196" type="line"/>
      <point x="116" y="167" type="line"/>
    </contour>
    <contour>
      <point x="348" y="19" type="line"/>
      <point x="348" y="336" type="line"/>
      <point x="318" y="336" type="line"/>
      <point x="318" y="19" type="line"/>
    </contour>
    <contour>
      <point x="569" y="-52" type="line"/>
      <point x="569" y="351" type="line"/>
      <point x="98" y="351" type="line"/>
      <point x="98" y="-67" type="line"/>
      <point x="128" y="-67" type="line"/>
      <point x="128" y="322" type="line"/>
      <point x="540" y="322" type="line"/>
      <point x="540" y="-52" type="line"/>
    </contour>
    <contour>
      <point x="496" y="475" type="line"/>
      <point x="166" y="475" type="line"/>
      <point x="166" y="626" type="line"/>
      <point x="496" y="626" type="line"/>
    </contour>
    <contour>
      <point x="525" y="446" type="line"/>
      <point x="525" y="656" type="line"/>
      <point x="136" y="656" type="line"/>
      <point x="136" y="446" type="line"/>
    </contour>
  </outline>
</glyph>
<glyph name="uni535C" format="2">
  <advance width="1000" height="1000"/>
  <unicode hex="535C"/>
  <note>
cid11713
</note>
  <outline>
    <contour>
      <point x="429" y="-70" type="line"/>
      <point x="429" y="830" type="line"/>
      <point x="400" y="830" type="line"/>
      <point x="400" y="-70" type="line"/>
    </contour>
    <contour>
      <point x="423" y="518" type="curve"/>
      <point x="406" y="497" type="line"/>
      <point x="557" y="434"/>
      <point x="745" y="339"/>
      <point x="842" y="277" type="curve"/>
      <point x="860" y="302" type="line"/>
      <point x="761" y="365"/>
      <point x="573" y="457"/>
    </contour>
  </outline>
</glyph>
<glyph name="uni5360" format="2">
  <advance width="1000" height="1000"/>
  <unicode hex="5360"/>
  <note>
cid11718
</note>
  <outline>
    <contour>
      <point x="920" y="598" type="line"/>
      <point x="920" y="627" type="line"/>
      <point x="482" y="627" type="line"/>
      <point x="482" y="598" type="line"/>
    </contour>
    <contour>
      <point x="810" y="-10" type="line"/>
      <point x="810" y="19" type="line"/>
      <point x="191" y="19" type="line"/>
      <point x="191" y="-10" type="line"/>
    </contour>
    <contour>
      <point x="497" y="350" type="line"/>
      <point x="497" y="831" type="line"/>
      <point x="468" y="831" type="line"/>
      <point x="468" y="350" type="line"/>
    </contour>
    <contour>
      <point x="825" y="-66" type="line"/>
      <point x="825" y="369" type="line"/>
      <point x="176" y="369" type="line"/>
      <point x="176" y="-70" type="line"/>
      <point x="205" y="-70" type="line"/>
      <point x="205" y="339" type="line"/>
      <point x="796" y="339" type="line"/>
      <point x="796" y="-66" type="line"/>
    </contour>
  </outline>
</glyph>
<glyph name="uni5398" format="2">
  <advance width="1000" height="1000"/>
  <unicode hex="5398"/>
  <note>
cid11800
</note>
  <outline>
    <contour>
      <point x="935" y="729" type="line"/>
      <point x="935" y="759" type="line"/>
      <point x="167" y="759" type="line"/>
      <point x="167" y="729" type="line"/>
    </contour>
    <contour>
      <point x="868" y="132" type="line"/>
      <point x="868" y="162" type="line"/>
      <point x="273" y="162" type="line"/>
      <point x="273" y="132" type="line"/>
    </contour>
    <contour>
      <point x="952" y="-42" type="line"/>
      <point x="952" y="-13" type="line"/>
      <point x="201" y="-13" type="line"/>
      <point x="201" y="-42" type="line"/>
    </contour>
    <contour>
      <point x="182" y="458" type="curve" smooth="yes"/>
      <point x="182" y="759" type="line"/>
      <point x="153" y="759" type="line"/>
      <point x="153" y="458" type="line" smooth="yes"/>
      <point x="153" y="306"/>
      <point x="143" y="101"/>
      <point x="50" y="-49" type="curve"/>
      <point x="57" y="-53"/>
      <point x="69" y="-61"/>
      <point x="74" y="-68" type="curve"/>
      <point x="170" y="87"/>
      <point x="182" y="303"/>
    </contour>
    <contour>
      <point x="813" y="310" type="line"/>
      <point x="323" y="310" type="line"/>
      <point x="323" y="444" type="line"/>
      <point x="813" y="444" type="line"/>
    </contour>
    <contour>
      <point x="813" y="473" type="line"/>
      <point x="323" y="473" type="line"/>
      <point x="323" y="606" type="line"/>
      <point x="813" y="606" type="line"/>
    </contour>
    <contour>
      <point x="843" y="280" type="line"/>
      <point x="843" y="635" type="line"/>
      <point x="293" y="635" type="line"/>
      <point x="293" y="280" type="line"/>
    </contour>
    <contour>
      <point x="581" y="-29" type="line"/>
      <point x="581" y="617" type="line"/>
      <point x="552" y="617" type="line"/>
      <point x="552" y="-29" type="line"/>
    </contour>
  </outline>
</glyph>
<glyph name="uni53CC" format="2">
  <advance width="1000" height="1000"/>
  <unicode hex="53CC"/>
  <note>
cid11890
</note>
  <outline>
    <contour>
      <point x="885" y="720" type="line"/>
      <point x="885" y="750" type="line"/>
      <point x="496" y="750" type="line"/>
      <point x="496" y="720" type="line"/>
    </contour>
    <contour>
      <point x="885" y="752" type="line"/>
      <point x="879" y="750" type="line"/>
      <point x="874" y="750" type="line"/>
      <point x="874" y="741" type="line"/>
      <point x="814" y="329"/>
      <point x="619" y="69"/>
      <point x="406" y="-47" type="curve"/>
      <point x="414" y="-53"/>
      <point x="423" y="-64"/>
      <point x="427" y="-71" type="curve"/>
      <point x="645" y="54"/>
      <point x="841" y="313"/>
      <point x="905" y="746" type="curve"/>
    </contour>
    <contour>
      <point x="574" y="716" type="curve"/>
      <point x="544" y="712" type="line"/>
      <point x="598" y="346"/>
      <point x="704" y="62"/>
      <point x="933" y="-73" type="curve"/>
      <point x="939" y="-65"/>
      <point x="950" y="-55"/>
      <point x="958" y="-49" type="curve"/>
      <point x="730" y="77"/>
      <point x="625" y="360"/>
    </contour>
    <contour>
      <point x="427" y="720" type="line"/>
      <point x="427" y="750" type="line"/>
      <point x="73" y="750" type="line"/>
      <point x="73" y="720" type="line"/>
    </contour>
    <contour>
      <point x="422" y="752" type="line"/>
      <point x="416" y="750" type="line"/>
      <point x="411" y="750" type="line"/>
      <point x="411" y="741" type="line"/>
      <point x="366" y="347"/>
      <point x="218" y="79"/>
      <point x="49" y="-47" type="curve"/>
      <point x="57" y="-52"/>
      <point x="67" y="-62"/>
      <point x="72" y="-69" type="curve"/>
      <point x="245" y="66"/>
      <point x="393" y="332"/>
      <point x="440" y="746" type="curve"/>
    </contour>
    <contour>
      <point x="140" y="548" type="curve"/>
      <point x="119" y="531" type="line"/>
      <point x="250" y="416"/>
      <point x="389" y="254"/>
      <point x="454" y="137" type="curve"/>
      <point x="479" y="158" type="line"/>
      <point x="414" y="270"/>
      <point x="274" y="431"/>
    </contour>
  </outline>
</glyph>
<glyph name="uni53D4" format="2">
  <advance width="1000" height="1000"/>
  <unicode hex="53D4"/>
  <note>
cid11901
</note>
  <outline>
    <contour>
      <point x="889" y="720" type="line"/>
      <point x="889" y="750" type="line"/>
      <point x="518" y="750" type="line"/>
      <point x="518" y="720" type="line"/>
    </contour>
    <contour>
      <point x="537" y="437" type="line"/>
      <point x="537" y="466" type="line"/>
      <point x="51" y="466" type="line"/>
      <point x="51" y="437" type="line"/>
    </contour>
    <contour>
      <point x="484" y="644" type="line"/>
      <point x="484" y="673" type="line"/>
      <point x="280" y="673" type="line"/>
      <point x="280" y="644" type="line"/>
    </contour>
    <contour>
      <point x="888" y="752" type="line"/>
      <point x="882" y="750" type="line"/>
      <point x="877" y="750" type="line"/>
      <point x="877" y="741" type="line"/>
      <point x="824" y="321"/>
      <point x="644" y="64"/>
      <point x="437" y="-51" type="curve"/>
      <point x="445" y="-57"/>
      <point x="454" y="-66"/>
      <point x="458" y="-74" type="curve"/>
      <point x="670" y="50"/>
      <point x="851" y="305"/>
      <point x="907" y="746" type="curve"/>
    </contour>
    <contour>
      <point x="593" y="715" type="curve"/>
      <point x="565" y="711" type="line"/>
      <point x="614" y="346"/>
      <point x="713" y="67"/>
      <point x="935" y="-70" type="curve"/>
      <point x="941" y="-63"/>
      <point x="951" y="-53"/>
      <point x="959" y="-47" type="curve"/>
      <point x="739" y="79"/>
      <point x="640" y="360"/>
    </contour>
    <contour>
      <point x="294" y="453" type="line"/>
      <point x="294" y="830" type="line"/>
      <point x="265" y="830" type="line"/>
      <point x="265" y="453" type="line"/>
    </contour>
    <contour>
      <point x="307" y="-26" type="curve" smooth="yes"/>
      <point x="307" y="444" type="line"/>
      <point x="277" y="444" type="line"/>
      <point x="277" y="-26" type="line" smooth="yes"/>
      <point x="277" y="-38"/>
      <point x="273" y="-42"/>
      <point x="259" y="-43" type="curve" smooth="yes"/>
      <point x="245" y="-44"/>
      <point x="198" y="-44"/>
      <point x="139" y="-43" type="curve"/>
      <point x="143" y="-51"/>
      <point x="149" y="-63"/>
      <point x="151" y="-70" type="curve"/>
      <point x="224" y="-70"/>
      <point x="261" y="-70"/>
      <point x="280" y="-65" type="curve" smooth="yes"/>
      <point x="300" y="-59"/>
      <point x="307" y="-49"/>
    </contour>
    <contour>
      <point x="183" y="326" type="curve"/>
      <point x="155" y="332" type="line"/>
      <point x="134" y="238"/>
      <point x="98" y="143"/>
      <point x="51" y="76" type="curve"/>
      <point x="59" y="72"/>
      <point x="73" y="63"/>
      <point x="78" y="60" type="curve"/>
      <point x="123" y="129"/>
      <point x="161" y="229"/>
    </contour>
    <contour>
      <point x="424" y="333" type="curve"/>
      <point x="400" y="322" type="line"/>
      <point x="439" y="255"/>
      <point x="479" y="168"/>
      <point x="497" y="109" type="curve"/>
      <point x="524" y="121" type="line"/>
      <point x="505" y="178"/>
      <point x="466" y="266"/>
    </contour>
  </outline>
</glyph>
<glyph name="uni53D7" format="2">
  <advance width="1000" height="1000"/>
  <unicode hex="53D7"/>
  <note>
cid11905
</note>
  <outline>
    <contour>
      <point x="918" y="351" type="line"/>
      <point x="918" y="540" type="line"/>
      <point x="82" y="540" type="line"/>
      <point x="82" y="351" type="line"/>
      <point x="111" y="351" type="line"/>
      <point x="111" y="511" type="line"/>
      <point x="889" y="511" type="line"/>
      <point x="889" y="351" type="line"/>
    </contour>
    <contour>
      <point x="771" y="332" type="line"/>
      <point x="771" y="362" type="line"/>
      <point x="180" y="362" type="line"/>
      <point x="180" y="332" type="line"/>
    </contour>
    <contour>
      <point x="842" y="808" type="curve"/>
      <point x="818" y="832" type="line"/>
      <point x="659" y="795"/>
      <point x="343" y="767"/>
      <point x="92" y="753" type="curve"/>
      <point x="95" y="745"/>
      <point x="99" y="734"/>
      <point x="100" y="726" type="curve"/>
      <point x="355" y="739"/>
      <point x="666" y="768"/>
    </contour>
    <contour>
      <point x="197" y="712" type="curve"/>
      <point x="172" y="703" type="line"/>
      <point x="205" y="656"/>
      <point x="240" y="593"/>
      <point x="255" y="553" type="curve"/>
      <point x="281" y="565" type="line"/>
      <point x="267" y="603"/>
      <point x="231" y="666"/>
    </contour>
    <contour>
      <point x="463" y="731" type="curve"/>
      <point x="435" y="725" type="line"/>
      <point x="462" y="673"/>
      <point x="486" y="604"/>
      <point x="495" y="562" type="curve"/>
      <point x="524" y="570" type="line"/>
      <point x="516" y="611"/>
      <point x="490" y="679"/>
    </contour>
    <contour>
      <point x="831" y="718" type="curve"/>
      <point x="805" y="733" type="line"/>
      <point x="774" y="672"/>
      <point x="718" y="584"/>
      <point x="676" y="531" type="curve"/>
      <point x="698" y="518" type="line"/>
      <point x="740" y="570"/>
      <point x="794" y="652"/>
    </contour>
    <contour>
      <point x="776" y="364" type="line"/>
      <point x="769" y="362" type="line"/>
      <point x="761" y="362" type="line"/>
      <point x="761" y="355" type="line"/>
      <point x="643" y="125"/>
      <point x="355" y="5"/>
      <point x="63" y="-47" type="curve"/>
      <point x="69" y="-54"/>
      <point x="77" y="-65"/>
      <point x="80" y="-73" type="curve"/>
      <point x="376" y="-16"/>
      <point x="667" y="103"/>
      <point x="795" y="349" type="curve"/>
    </contour>
    <contour>
      <point x="270" y="330" type="curve"/>
      <point x="244" y="318" type="line"/>
      <point x="353" y="119"/>
      <point x="611" y="-25"/>
      <point x="920" y="-74" type="curve"/>
      <point x="924" y="-65"/>
      <point x="932" y="-55"/>
      <point x="938" y="-48" type="curve"/>
      <point x="627" y="-3"/>
      <point x="374" y="139"/>
    </contour>
  </outline>
</glyph>
<glyph name="uni53E5" format="2">
  <advance width="1000" height="1000"/>
  <unicode hex="53E5"/>
  <unicode hex="F906"/>
  <note>
cid11929
</note>
  <outline>
    <contour>
      <point x="618" y="131" type="line"/>
      <point x="618" y="474" type="line"/>
      <point x="264" y="474" type="line"/>
      <point x="264" y="445" type="line"/>
      <point x="588" y="445" type="line"/>
      <point x="588" y="161" type="line"/>
      <point x="264" y="161" type="line"/>
      <point x="264" y="131" type="line"/>
    </contour>
    <contour>
      <point x="279" y="55" type="line"/>
      <point x="279" y="474" type="line"/>
      <point x="249" y="474" type="line"/>
      <point x="249" y="55" type="line"/>
    </contour>
    <contour>
      <point x="902" y="642" type="line"/>
      <point x="902" y="671" type="line"/>
      <point x="257" y="671" type="line"/>
      <point x="257" y="642" type="line"/>
    </contour>
    <contour>
      <point x="914" y="671" type="curve"/>
      <point x="884" y="671" type="line"/>
      <point x="884" y="664" type="line" smooth="yes"/>
      <point x="868" y="177"/>
      <point x="847" y="7"/>
      <point x="807" y="-32" type="curve" smooth="yes"/>
      <point x="795" y="-45"/>
      <point x="781" y="-47"/>
      <point x="759" y="-47" type="curve" smooth="yes"/>
      <point x="732" y="-47"/>
      <point x="656" y="-46"/>
      <point x="574" y="-39" type="curve"/>
      <point x="580" y="-47"/>
      <point x="582" y="-59"/>
      <point x="583" y="-68" type="curve"/>
      <point x="653" y="-74"/>
      <point x="726" y="-76"/>
      <point x="762" y="-75" type="curve" smooth="yes"/>
      <point x="797" y="-74"/>
      <point x="816" y="-68"/>
      <point x="834" y="-48" type="curve" smooth="yes"/>
      <point x="878" y="0"/>
      <point x="895" y="165"/>
      <point x="914" y="649" type="curve" smooth="yes"/>
      <point x="914" y="655"/>
      <point x="914" y="671"/>
    </contour>
    <contour>
      <point x="337" y="823" type="curve"/>
      <point x="309" y="830" type="line"/>
      <point x="253" y="655"/>
      <point x="164" y="488"/>
      <point x="54" y="380" type="curve"/>
      <point x="62" y="376"/>
      <point x="75" y="366"/>
      <point x="81" y="361" type="curve"/>
      <point x="187" y="474"/>
      <point x="278" y="640"/>
    </contour>
  </outline>
</glyph>
<glyph name="uni53EE" format="2">
  <advance width="1000" height="1000"/>
  <unicode hex="53EE"/>
  <note>
cid11942
</note>
  <outline>
    <contour>
      <point x="950" y="713" type="line"/>
      <point x="950" y="742" type="line"/>
      <point x="394" y="742" type="line"/>
      <point x="394" y="713" type="line"/>
    </contour>
    <contour>
      <point x="723" y="-12" type="curve" smooth="yes"/>
      <point x="723" y="726" type="line"/>
      <point x="694" y="726" type="line"/>
      <point x="694" y="-12" type="line" smooth="yes"/>
      <point x="694" y="-32"/>
      <point x="687" y="-38"/>
      <point x="667" y="-39" type="curve" smooth="yes"/>
      <point x="646" y="-41"/>
      <point x="575" y="-41"/>
      <point x="490" y="-39" type="curve"/>
      <point x="496" y="-49"/>
      <point x="501" y="-62"/>
      <point x="504" y="-70" type="curve"/>
      <point x="600" y="-70"/>
      <point x="659" y="-71"/>
      <point x="686" y="-66" type="curve" smooth="yes"/>
      <point x="712" y="-60"/>
      <point x="723" y="-45"/>
    </contour>
    <contour>
      <point x="352" y="174" type="line"/>
      <point x="352" y="714" type="line"/>
      <point x="97" y="714" type="line"/>
      <point x="97" y="685" type="line"/>
      <point x="323" y="685" type="line"/>
      <point x="323" y="203" type="line"/>
      <point x="97" y="203" type="line"/>
      <point x="97" y="174" type="line"/>
    </contour>
    <contour>
      <point x="112" y="78" type="line"/>
      <point x="112" y="714" type="line"/>
      <point x="82" y="714" type="line"/>
      <point x="82" y="78" type="line"/>
    </contour>
  </outline>
</glyph>
<glyph name="uni53F8" format="2">
  <advance width="1000" height="1000"/>
  <unicode hex="53F8"/>
  <note>
cid11955
</note>
  <outline>
    <contour>
      <point x="861" y="732" type="line"/>
      <point x="861" y="762" type="line"/>
      <point x="97" y="762" type="line"/>
      <point x="97" y="732" type="line"/>
    </contour>
    <contour>
      <point x="715" y="572" type="line"/>
      <point x="715" y="601" type="line"/>
      <point x="101" y="601" type="line"/>
      <point x="101" y="572" type="line"/>
    </contour>
    <contour>
      <point x="871" y="-8" type="curve" smooth="yes"/>
      <point x="871" y="762" type="line"/>
      <point x="843" y="762" type="line"/>
      <point x="843" y="-9" type="line" smooth="yes"/>
      <point x="843" y="-28"/>
      <point x="838" y="-34"/>
      <point x="819" y="-35" type="curve" smooth="yes"/>
      <point x="797" y="-36"/>
      <point x="725" y="-37"/>
      <point x="643" y="-35" type="curve"/>
      <point x="649" y="-46"/>
      <point x="654" y="-60"/>
      <point x="657" y="-70" type="curve"/>
      <point x="745" y="-70"/>
      <point x="807" y="-70"/>
      <point x="835" y="-64" type="curve" smooth="yes"/>
      <point x="863" y="-58"/>
      <point x="871" y="-43"/>
    </contour>
    <contour>
      <point x="202" y="41" type="line"/>
      <point x="202" y="430" type="line"/>
      <point x="173" y="430" type="line"/>
      <point x="173" y="41" type="line"/>
    </contour>
    <contour>
      <point x="607" y="117" type="line"/>
      <point x="607" y="430" type="line"/>
      <point x="188" y="430" type="line"/>
      <point x="188" y="400" type="line"/>
      <point x="578" y="400" type="line"/>
      <point x="578" y="146" type="line"/>
      <point x="188" y="146" type="line"/>
      <point x="188" y="117" type="line"/>
    </contour>
  </outline>
</glyph>
<glyph name="uni5401" format="2">
  <advance width="1000" height="1000"/>
  <unicode hex="5401"/>
  <note>
cid11965
</note>
  <outline>
    <contour>
      <point x="350" y="210" type="line"/>
      <point x="350" y="721" type="line"/>
      <point x="100" y="721" type="line"/>
      <point x="100" y="692" type="line"/>
      <point x="321" y="692" type="line"/>
      <point x="321" y="239" type="line"/>
      <point x="100" y="239" type="line"/>
      <point x="100" y="210" type="line"/>
    </contour>
    <contour>
      <point x="112" y="113" type="line"/>
      <point x="112" y="721" type="line"/>
      <point x="83" y="721" type="line"/>
      <point x="83" y="113" type="line"/>
    </contour>
    <contour>
      <point x="932" y="739" type="line"/>
      <point x="932" y="768" type="line"/>
      <point x="411" y="768" type="line"/>
      <point x="411" y="739" type="line"/>
    </contour>
    <contour>
      <point x="950" y="401" type="line"/>
      <point x="950" y="430" type="line"/>
      <point x="378" y="430" type="line"/>
      <point x="378" y="401" type="line"/>
    </contour>
    <contour>
      <point x="685" y="-14" type="curve" smooth="yes"/>
      <point x="685" y="759" type="line"/>
      <point x="656" y="759" type="line"/>
      <point x="656" y="-15" type="line" smooth="yes"/>
      <point x="656" y="-32"/>
      <point x="649" y="-36"/>
      <point x="631" y="-37" type="curve" smooth="yes"/>
      <point x="611" y="-38"/>
      <point x="545" y="-39"/>
      <point x="471" y="-37" type="curve"/>
      <point x="477" y="-47"/>
      <point x="482" y="-62"/>
      <point x="484" y="-70" type="curve"/>
      <point x="568" y="-70"/>
      <point x="622" y="-71"/>
      <point x="648" y="-65" type="curve" smooth="yes"/>
      <point x="674" y="-59"/>
      <point x="685" y="-47"/>
    </contour>
  </outline>
</glyph>
<glyph name="uni5403" format="2">
  <advance width="1000" height="1000"/>
  <unicode hex="5403"/>
  <note>
cid11968
</note>
  <outline>
    <contour>
      <point x="332" y="198" type="line"/>
      <point x="332" y="705" type="line"/>
      <point x="99" y="705" type="line"/>
      <point x="99" y="676" type="line"/>
      <point x="303" y="676" type="line"/>
      <point x="303" y="228" type="line"/>
      <point x="99" y="228" type="line"/>
      <point x="99" y="198" type="line"/>
    </contour>
    <contour>
      <point x="113" y="114" type="line"/>
      <point x="113" y="705" type="line"/>
      <point x="84" y="705" type="line"/>
      <point x="84" y="114" type="line"/>
    </contour>
    <contour>
      <point x="950" y="634" type="line"/>
      <point x="950" y="664" type="line"/>
      <point x="480" y="664" type="line"/>
      <point x="480" y="634" type="line"/>
    </contour>
    <contour>
      <point x="828" y="435" type="line"/>
      <point x="828" y="465" type="line"/>
      <point x="439" y="465" type="line"/>
      <point x="439" y="435" type="line"/>
    </contour>
    <contour>
      <point x="568" y="824" type="curve"/>
      <point x="539" y="831" type="line"/>
      <point x="498" y="694"/>
      <point x="432" y="565"/>
      <point x="350" y="478" type="curve"/>
      <point x="358" y="474"/>
      <point x="371" y="465"/>
      <point x="376" y="460" type="curve"/>
      <point x="456" y="549"/>
      <point x="525" y="681"/>
    </contour>
    <contour>
      <point x="836" y="467" type="line"/>
      <point x="828" y="465" type="line"/>
      <point x="823" y="465" type="line"/>
      <point x="410" y="115"/>
      <point x="394" y="56"/>
      <point x="394" y="14" type="curve" smooth="yes"/>
      <point x="394" y="-30"/>
      <point x="429" y="-54"/>
      <point x="510" y="-54" type="curve" smooth="yes"/>
      <point x="858" y="-54" type="line" smooth="yes"/>
      <point x="926" y="-54"/>
      <point x="942" y="-34"/>
      <point x="949" y="124" type="curve"/>
      <point x="940" y="126"/>
      <point x="926" y="131"/>
      <point x="919" y="135" type="curve"/>
      <point x="915" y="-4"/>
      <point x="907" y="-25"/>
      <point x="858" y="-25" type="curve" smooth="yes"/>
      <point x="506" y="-25" type="line" smooth="yes"/>
      <point x="458" y="-25"/>
      <point x="425" y="-13"/>
      <point x="425" y="16" type="curve" smooth="yes"/>
      <point x="425" y="51"/>
      <point x="451" y="106"/>
      <point x="849" y="449" type="curve" smooth="yes"/>
      <point x="852" y="451"/>
      <point x="855" y="453"/>
      <point x="857" y="456" type="curve"/>
    </contour>
  </outline>
</glyph>
<glyph name="uni5404" format="2">
  <advance width="1000" height="1000"/>
  <unicode hex="5404"/>
  <note>
cid11969
</note>
  <outline>
    <contour>
      <point x="773" y="-21" type="line"/>
      <point x="773" y="8" type="line"/>
      <point x="230" y="8" type="line"/>
      <point x="230" y="-21" type="line"/>
    </contour>
    <contour>
      <point x="414" y="826" type="curve"/>
      <point x="385" y="836" type="line"/>
      <point x="312" y="712"/>
      <point x="191" y="598"/>
      <point x="68" y="524" type="curve"/>
      <point x="76" y="520"/>
      <point x="88" y="509"/>
      <point x="93" y="504" type="curve"/>
      <point x="213" y="581"/>
      <point x="334" y="696"/>
    </contour>
    <contour>
      <point x="755" y="719" type="line"/>
      <point x="749" y="717" type="line"/>
      <point x="742" y="717" type="line"/>
      <point x="742" y="711" type="line"/>
      <point x="605" y="499"/>
      <point x="283" y="327"/>
      <point x="34" y="270" type="curve"/>
      <point x="38" y="265"/>
      <point x="46" y="252"/>
      <point x="49" y="243" type="curve"/>
      <point x="303" y="307"/>
      <point x="626" y="477"/>
      <point x="773" y="705" type="curve"/>
    </contour>
    <contour>
      <point x="281" y="682" type="curve"/>
      <point x="258" y="670" type="line"/>
      <point x="401" y="477"/>
      <point x="676" y="311"/>
      <point x="936" y="245" type="curve"/>
      <point x="940" y="253"/>
      <point x="948" y="264"/>
      <point x="955" y="270" type="curve"/>
      <point x="693" y="331"/>
      <point x="420" y="497"/>
    </contour>
    <contour>
      <point x="785" y="-74" type="line"/>
      <point x="785" y="291" type="line"/>
      <point x="213" y="291" type="line"/>
      <point x="213" y="-77" type="line"/>
      <point x="242" y="-77" type="line"/>
      <point x="242" y="261" type="line"/>
      <point x="756" y="261" type="line"/>
      <point x="756" y="-74" type="line"/>
    </contour>
    <contour>
      <point x="752" y="687" type="line"/>
      <point x="752" y="717" type="line"/>
      <point x="311" y="717" type="line"/>
      <point x="293" y="687" type="line"/>
    </contour>
  </outline>
</glyph>
<glyph name="uni540A" format="2">
  <advance width="1000" height="1000"/>
  <unicode hex="540A"/>
  <note>
cid11976
</note>
  <outline>
    <contour>
      <point x="775" y="507" type="line"/>
      <point x="225" y="507" type="line"/>
      <point x="225" y="745" type="line"/>
      <point x="775" y="745" type="line"/>
    </contour>
    <contour>
      <point x="805" y="478" type="line"/>
      <point x="805" y="774" type="line"/>
      <point x="195" y="774" type="line"/>
      <point x="195" y="478" type="line"/>
    </contour>
    <contour>
      <point x="513" y="-71" type="line"/>
      <point x="513" y="486" type="line"/>
      <point x="483" y="486" type="line"/>
      <point x="483" y="-71" type="line"/>
    </contour>
    <contour>
      <point x="856" y="309" type="line"/>
      <point x="856" y="338" type="line"/>
      <point x="138" y="338" type="line"/>
      <point x="138" y="-9" type="line"/>
      <point x="168" y="-9" type="line"/>
      <point x="168" y="309" type="line"/>
    </contour>
    <contour>
      <point x="870" y="52" type="curve" smooth="yes"/>
      <point x="870" y="338" type="line"/>
      <point x="841" y="338" type="line"/>
      <point x="841" y="52" type="line" smooth="yes"/>
      <point x="841" y="39"/>
      <point x="837" y="35"/>
      <point x="821" y="34" type="curve" smooth="yes"/>
      <point x="805" y="33"/>
      <point x="752" y="32"/>
      <point x="679" y="34" type="curve"/>
      <point x="684" y="25"/>
      <point x="690" y="16"/>
      <point x="692" y="7" type="curve"/>
      <point x="775" y="7"/>
      <point x="820" y="7"/>
      <point x="843" y="13" type="curve" smooth="yes"/>
      <point x="865" y="19"/>
      <point x="870" y="29"/>
    </contour>
  </outline>
</glyph>
<glyph name="uni5410" format="2">
  <advance width="1000" height="1000"/>
  <unicode hex="5410"/>
  <note>
cid11984
</note>
  <outline>
    <contour>
      <point x="661" y="-10" type="line"/>
      <point x="661" y="816" type="line"/>
      <point x="631" y="816" type="line"/>
      <point x="631" y="-10" type="line"/>
    </contour>
    <contour>
      <point x="951" y="-24" type="line"/>
      <point x="951" y="5" type="line"/>
      <point x="317" y="5" type="line"/>
      <point x="317" y="-24" type="line"/>
    </contour>
    <contour>
      <point x="920" y="469" type="line"/>
      <point x="920" y="498" type="line"/>
      <point x="385" y="498" type="line"/>
      <point x="385" y="469" type="line"/>
    </contour>
    <contour>
      <point x="351" y="217" type="line"/>
      <point x="351" y="720" type="line"/>
      <point x="100" y="720" type="line"/>
      <point x="100" y="691" type="line"/>
      <point x="322" y="691" type="line"/>
      <point x="322" y="246" type="line"/>
      <point x="100" y="246" type="line"/>
      <point x="100" y="217" type="line"/>
    </contour>
    <contour>
      <point x="112" y="116" type="line"/>
      <point x="112" y="720" type="line"/>
      <point x="83" y="720" type="line"/>
      <point x="83" y="116" type="line"/>
    </contour>
  </outline>
</glyph>
<glyph name="uni543B" format="2">
  <advance width="1000" height="1000"/>
  <unicode hex="543B"/>
  <note>
cid12054
</note>
  <outline>
    <contour>
      <point x="906" y="607" type="line"/>
      <point x="906" y="636" type="line"/>
      <point x="454" y="636" type="line"/>
      <point x="454" y="607" type="line"/>
    </contour>
    <contour>
      <point x="526" y="823" type="curve"/>
      <point x="497" y="828" type="line"/>
      <point x="464" y="673"/>
      <point x="395" y="519"/>
      <point x="318" y="430" type="curve"/>
      <point x="325" y="426"/>
      <point x="338" y="416"/>
      <point x="343" y="411" type="curve"/>
      <point x="420" y="505"/>
      <point x="491" y="664"/>
    </contour>
    <contour>
      <point x="620" y="622" type="curve"/>
      <point x="590" y="628" type="line"/>
      <point x="539" y="409"/>
      <point x="441" y="221"/>
      <point x="308" y="101" type="curve"/>
      <point x="315" y="95"/>
      <point x="328" y="84"/>
      <point x="332" y="79" type="curve"/>
      <point x="465" y="206"/>
      <point x="566" y="393"/>
    </contour>
    <contour>
      <point x="772" y="621" type="curve"/>
      <point x="742" y="626" type="line"/>
      <point x="691" y="337"/>
      <point x="613" y="100"/>
      <point x="447" y="-48" type="curve"/>
      <point x="455" y="-54"/>
      <point x="467" y="-65"/>
      <point x="472" y="-70" type="curve"/>
      <point x="637" y="87"/>
      <point x="717" y="322"/>
    </contour>
    <contour>
      <point x="923" y="636" type="curve"/>
      <point x="894" y="636" type="line"/>
      <point x="894" y="627" type="line" smooth="yes"/>
      <point x="872" y="174"/>
      <point x="848" y="12"/>
      <point x="813" y="-27" type="curve" smooth="yes"/>
      <point x="802" y="-40"/>
      <point x="792" y="-41"/>
      <point x="772" y="-41" type="curve" smooth="yes"/>
      <point x="752" y="-41"/>
      <point x="698" y="-41"/>
      <point x="639" y="-36" type="curve"/>
      <point x="644" y="-44"/>
      <point x="647" y="-57"/>
      <point x="648" y="-66" type="curve"/>
      <point x="698" y="-69"/>
      <point x="749" y="-71"/>
      <point x="776" y="-70" type="curve" smooth="yes"/>
      <point x="805" y="-69"/>
      <point x="822" y="-64"/>
      <point x="839" y="-44" type="curve" smooth="yes"/>
      <point x="879" y="2"/>
      <point x="900" y="150"/>
      <point x="923" y="614" type="curve" smooth="yes"/>
      <point x="923" y="620"/>
      <point x="923" y="636"/>
    </contour>
    <contour>
      <point x="331" y="217" type="line"/>
      <point x="331" y="720" type="line"/>
      <point x="100" y="720" type="line"/>
      <point x="100" y="691" type="line"/>
      <point x="301" y="691" type="line"/>
      <point x="301" y="246" type="line"/>
      <point x="100" y="246" type="line"/>
      <point x="100" y="217" type="line"/>
    </contour>
    <contour>
      <point x="113" y="125" type="line"/>
      <point x="113" y="720" type="line"/>
      <point x="84" y="720" type="line"/>
      <point x="84" y="125" type="line"/>
    </contour>
  </outline>
</glyph>
<glyph name="uni543E" format="2">
  <advance width="1000" height="1000"/>
  <unicode hex="543E"/>
  <note>
cid12058
</note>
  <outline>
    <contour>
      <point x="951" y="381" type="line"/>
      <point x="951" y="410" type="line"/>
      <point x="50" y="410" type="line"/>
      <point x="50" y="381" type="line"/>
    </contour>
    <contour>
      <point x="878" y="765" type="line"/>
      <point x="878" y="794" type="line"/>
      <point x="133" y="794" type="line"/>
      <point x="133" y="765" type="line"/>
    </contour>
    <contour>
      <point x="787" y="-16" type="line"/>
      <point x="787" y="13" type="line"/>
      <point x="220" y="13" type="line"/>
      <point x="220" y="-16" type="line"/>
    </contour>
    <contour>
      <point x="802" y="-74" type="line"/>
      <point x="802" y="271" type="line"/>
      <point x="201" y="271" type="line"/>
      <point x="201" y="-77" type="line"/>
      <point x="231" y="-77" type="line"/>
      <point x="231" y="242" type="line"/>
      <point x="772" y="242" type="line"/>
      <point x="772" y="-74" type="line"/>
    </contour>
    <contour>
      <point x="443" y="782" type="curve"/>
      <point x="413" y="782" type="line"/>
      <point x="385" y="664"/>
      <point x="342" y="491"/>
      <point x="310" y="393" type="curve"/>
      <point x="341" y="393" type="line"/>
      <point x="371" y="488"/>
      <point x="414" y="660"/>
    </contour>
    <contour>
      <point x="749" y="395" type="line"/>
      <point x="749" y="615" type="line"/>
      <point x="176" y="615" type="line"/>
      <point x="176" y="586" type="line"/>
      <point x="720" y="586" type="line"/>
      <point x="720" y="395" type="line"/>
    </contour>
  </outline>
</glyph>
<glyph name="uni5446" format="2">
  <advance width="1000" height="1000"/>
  <unicode hex="5446"/>
  <note>
cid12071
</note>
  <outline>
    <contour>
      <point x="791" y="492" type="line"/>
      <point x="217" y="492" type="line"/>
      <point x="217" y="758" type="line"/>
      <point x="791" y="758" type="line"/>
    </contour>
    <contour>
      <point x="820" y="463" type="line"/>
      <point x="820" y="787" type="line"/>
      <point x="187" y="787" type="line"/>
      <point x="187" y="463" type="line"/>
    </contour>
    <contour>
      <point x="514" y="-70" type="line"/>
      <point x="514" y="470" type="line"/>
      <point x="483" y="470" type="line"/>
      <point x="483" y="-70" type="line"/>
    </contour>
    <contour>
      <point x="930" y="299" type="line"/>
      <point x="930" y="328" type="line"/>
      <point x="70" y="328" type="line"/>
      <point x="70" y="299" type="line"/>
    </contour>
    <contour>
      <point x="483" y="311" type="curve"/>
      <point x="459" y="323" type="line"/>
      <point x="369" y="187"/>
      <point x="194" y="55"/>
      <point x="41" y="-2" type="curve"/>
      <point x="49" y="-9"/>
      <point x="58" y="-18"/>
      <point x="63" y="-26" type="curve"/>
      <point x="213" y="36"/>
      <point x="390" y="170"/>
    </contour>
    <contour>
      <point x="539" y="322" type="curve"/>
      <point x="513" y="309" type="line"/>
      <point x="605" y="172"/>
      <point x="781" y="43"/>
      <point x="935" y="-16" type="curve"/>
      <point x="940" y="-9"/>
      <point x="949" y="2"/>
      <point x="957" y="9" type="curve"/>
      <point x="801" y="63"/>
      <point x="627" y="188"/>
    </contour>
  </outline>
</glyph>
<glyph name="uni544A" format="2">
  <advance width="1000" height="1000"/>
  <unicode hex="544A"/>
  <note>
cid12077
</note>
  <outline>
    <contour>
      <point x="941" y="413" type="line"/>
      <point x="941" y="443" type="line"/>
      <point x="63" y="443" type="line"/>
      <point x="63" y="413" type="line"/>
    </contour>
    <contour>
      <point x="513" y="427" type="line"/>
      <point x="513" y="831" type="line"/>
      <point x="483" y="831" type="line"/>
      <point x="483" y="427" type="line"/>
    </contour>
    <contour>
      <point x="855" y="643" type="line"/>
      <point x="855" y="672" type="line"/>
      <point x="219" y="672" type="line"/>
      <point x="219" y="643" type="line"/>
    </contour>
    <contour>
      <point x="794" y="-20" type="line"/>
      <point x="794" y="9" type="line"/>
      <point x="216" y="9" type="line"/>
      <point x="216" y="-20" type="line"/>
    </contour>
    <contour>
      <point x="810" y="-70" type="line"/>
      <point x="810" y="298" type="line"/>
      <point x="201" y="298" type="line"/>
      <point x="201" y="-70" type="line"/>
      <point x="231" y="-70" type="line"/>
      <point x="231" y="269" type="line"/>
      <point x="780" y="269" type="line"/>
      <point x="780" y="-70" type="line"/>
    </contour>
    <contour>
      <point x="304" y="809" type="curve"/>
      <point x="275" y="816" type="line"/>
      <point x="233" y="698"/>
      <point x="169" y="581"/>
      <point x="93" y="503" type="curve"/>
      <point x="102" y="499"/>
      <point x="115" y="490"/>
      <point x="121" y="486" type="curve"/>
      <point x="192" y="567"/>
      <point x="259" y="685"/>
    </contour>
  </outline>
</glyph>
<glyph name="uni5462" format="2">
  <advance width="1000" height="1000"/>
  <unicode hex="5462"/>
  <note>
cid12105
</note>
  <outline>
    <contour>
      <point x="330" y="232" type="line"/>
      <point x="330" y="735" type="line"/>
      <point x="100" y="735" type="line"/>
      <point x="100" y="706" type="line"/>
      <point x="301" y="706" type="line"/>
      <point x="301" y="261" type="line"/>
      <point x="100" y="261" type="line"/>
      <point x="100" y="232" type="line"/>
    </contour>
    <contour>
      <point x="112" y="127" type="line"/>
      <point x="112" y="735" type="line"/>
      <point x="83" y="735" type="line"/>
      <point x="83" y="127" type="line"/>
    </contour>
    <contour>
      <point x="904" y="541" type="line"/>
      <point x="904" y="783" type="line"/>
      <point x="445" y="783" type="line"/>
      <point x="445" y="754" type="line"/>
      <point x="874" y="754" type="line"/>
      <point x="874" y="571" type="line"/>
      <point x="445" y="571" type="line"/>
      <point x="445" y="541" type="line"/>
    </contour>
    <contour>
      <point x="459" y="436" type="curve" smooth="yes"/>
      <point x="459" y="783" type="line"/>
      <point x="430" y="783" type="line"/>
      <point x="430" y="436" type="line" smooth="yes"/>
      <point x="430" y="285"/>
      <point x="406" y="89"/>
      <point x="298" y="-52" type="curve"/>
      <point x="306" y="-55"/>
      <point x="318" y="-62"/>
      <point x="324" y="-67" type="curve"/>
      <point x="432" y="75"/>
      <point x="459" y="281"/>
    </contour>
    <contour>
      <point x="594" y="18" type="curve" smooth="yes"/>
      <point x="594" y="480" type="line"/>
      <point x="565" y="480" type="line"/>
      <point x="565" y="19" type="line" smooth="yes"/>
      <point x="565" y="-41"/>
      <point x="588" y="-53"/>
      <point x="663" y="-53" type="curve" smooth="yes"/>
      <point x="680" y="-53"/>
      <point x="841" y="-53"/>
      <point x="859" y="-53" type="curve" smooth="yes"/>
      <point x="932" y="-53"/>
      <point x="943" y="-19"/>
      <point x="949" y="106" type="curve"/>
      <point x="939" y="108"/>
      <point x="927" y="113"/>
      <point x="920" y="120" type="curve"/>
      <point x="915" y="-1"/>
      <point x="907" y="-23"/>
      <point x="860" y="-23" type="curve" smooth="yes"/>
      <point x="823" y="-23"/>
      <point x="687" y="-23"/>
      <point x="660" y="-23" type="curve" smooth="yes"/>
      <point x="605" y="-23"/>
      <point x="594" y="-15"/>
    </contour>
    <contour>
      <point x="908" y="378" type="curve"/>
      <point x="881" y="400" type="line"/>
      <point x="813" y="340"/>
      <point x="684" y="273"/>
      <point x="571" y="222" type="curve"/>
      <point x="576" y="215"/>
      <point x="581" y="205"/>
      <point x="584" y="199" type="curve"/>
      <point x="699" y="250"/>
      <point x="828" y="315"/>
    </contour>
  </outline>
</glyph>
<glyph name="uni5473" format="2">
  <advance width="1000" height="1000"/>
  <unicode hex="5473"/>
  <note>
cid12135
</note>
  <outline>
    <contour>
      <point x="345" y="218" type="line"/>
      <point x="345" y="721" type="line"/>
      <point x="100" y="721" type="line"/>
      <point x="100" y="692" type="line"/>
      <point x="316" y="692" type="line"/>
      <point x="316" y="247" type="line"/>
      <point x="100" y="247" type="line"/>
      <point x="100" y="218" type="line"/>
    </contour>
    <contour>
      <point x="114" y="113" type="line"/>
      <point x="114" y="721" type="line"/>
      <point x="84" y="721" type="line"/>
      <point x="84" y="113" type="line"/>
    </contour>
    <contour>
      <point x="903" y="622" type="line"/>
      <point x="903" y="652" type="line"/>
      <point x="405" y="652" type="line"/>
      <point x="405" y="622" type="line"/>
    </contour>
    <contour>
      <point x="941" y="378" type="line"/>
      <point x="941" y="408" type="line"/>
      <point x="373" y="408" type="line"/>
      <point x="373" y="378" type="line"/>
    </contour>
    <contour>
      <point x="665" y="-70" type="line"/>
      <point x="665" y="829" type="line"/>
      <point x="635" y="829" type="line"/>
      <point x="635" y="-70" type="line"/>
    </contour>
    <contour>
      <point x="640" y="390" type="curve"/>
      <point x="615" y="400" type="line"/>
      <point x="546" y="241"/>
      <point x="420" y="94"/>
      <point x="289" y="19" type="curve"/>
      <point x="297" y="13"/>
      <point x="306" y="3"/>
      <point x="312" y="-5" type="curve"/>
      <point x="443" y="74"/>
      <point x="569" y="227"/>
    </contour>
    <contour>
      <point x="686" y="398" type="curve"/>
      <point x="661" y="388" type="line"/>
      <point x="718" y="242"/>
      <point x="832" y="82"/>
      <point x="936" y="0" type="curve"/>
      <point x="942" y="8"/>
      <point x="952" y="19"/>
      <point x="960" y="24" type="curve"/>
      <point x="855" y="99"/>
      <point x="742" y="253"/>
    </contour>
  </outline>
</glyph>
<glyph name="uni5475" format="2">
  <advance width="1000" height="1000"/>
  <unicode hex="5475"/>
  <note>
cid12137
</note>
  <outline>
    <contour>
      <point x="959" y="727" type="line"/>
      <point x="959" y="757" type="line"/>
      <point x="367" y="757" type="line"/>
      <point x="367" y="727" type="line"/>
    </contour>
    <contour>
      <point x="852" y="-11" type="curve" smooth="yes"/>
      <point x="852" y="741" type="line"/>
      <point x="822" y="741" type="line"/>
      <point x="822" y="-12" type="line" smooth="yes"/>
      <point x="822" y="-31"/>
      <point x="816" y="-37"/>
      <point x="796" y="-38" type="curve" smooth="yes"/>
      <point x="775" y="-39"/>
      <point x="706" y="-40"/>
      <point x="622" y="-38" type="curve"/>
      <point x="628" y="-48"/>
      <point x="633" y="-62"/>
      <point x="636" y="-69" type="curve"/>
      <point x="730" y="-70"/>
      <point x="786" y="-70"/>
      <point x="813" y="-65" type="curve" smooth="yes"/>
      <point x="840" y="-59"/>
      <point x="852" y="-46"/>
    </contour>
    <contour>
      <point x="451" y="131" type="line"/>
      <point x="451" y="564" type="line"/>
      <point x="421" y="564" type="line"/>
      <point x="421" y="131" type="line"/>
    </contour>
    <contour>
      <point x="690" y="203" type="line"/>
      <point x="690" y="564" type="line"/>
      <point x="436" y="564" type="line"/>
      <point x="436" y="534" type="line"/>
      <point x="660" y="534" type="line"/>
      <point x="660" y="232" type="line"/>
      <point x="436" y="232" type="line"/>
      <point x="436" y="203" type="line"/>
    </contour>
    <contour>
      <point x="331" y="216" type="line"/>
      <point x="331" y="719" type="line"/>
      <point x="99" y="719" type="line"/>
      <point x="99" y="690" type="line"/>
      <point x="301" y="690" type="line"/>
      <point x="301" y="245" type="line"/>
      <point x="99" y="245" type="line"/>
      <point x="99" y="216" type="line"/>
    </contour>
    <contour>
      <point x="111" y="111" type="line"/>
      <point x="111" y="719" type="line"/>
      <point x="82" y="719" type="line"/>
      <point x="82" y="111" type="line"/>
    </contour>
  </outline>
</glyph>
<glyph name="uni547C" format="2">
  <advance width="1000" height="1000"/>
  <unicode hex="547C"/>
  <note>
cid12147
</note>
  <outline>
    <contour>
      <point x="953" y="308" type="line"/>
      <point x="953" y="337" type="line"/>
      <point x="343" y="337" type="line"/>
      <point x="343" y="308" type="line"/>
    </contour>
    <contour>
      <point x="659" y="-18" type="curve" smooth="yes"/>
      <point x="659" y="742" type="line"/>
      <point x="629" y="742" type="line"/>
      <point x="629" y="-19" type="line" smooth="yes"/>
      <point x="629" y="-35"/>
      <point x="623" y="-41"/>
      <point x="605" y="-41" type="curve" smooth="yes"/>
      <point x="589" y="-42"/>
      <point x="532" y="-43"/>
      <point x="462" y="-41" type="curve"/>
      <point x="468" y="-50"/>
      <point x="473" y="-63"/>
      <point x="475" y="-70" type="curve"/>
      <point x="561" y="-70"/>
      <point x="604" y="-70"/>
      <point x="626" y="-65" type="curve" smooth="yes"/>
      <point x="648" y="-59"/>
      <point x="659" y="-48"/>
    </contour>
    <contour>
      <point x="901" y="780" type="curve"/>
      <point x="876" y="804" type="line"/>
      <point x="765" y="770"/>
      <point x="543" y="742"/>
      <point x="366" y="726" type="curve"/>
      <point x="370" y="719"/>
      <point x="374" y="709"/>
      <point x="376" y="702" type="curve"/>
      <point x="556" y="717"/>
      <point x="775" y="744"/>
    </contour>
    <contour>
      <point x="896" y="651" type="curve"/>
      <point x="867" y="663" type="line"/>
      <point x="843" y="583"/>
      <point x="797" y="464"/>
      <point x="762" y="394" type="curve"/>
      <point x="786" y="383" type="line"/>
      <point x="823" y="453"/>
      <point x="866" y="566"/>
    </contour>
    <contour>
      <point x="427" y="645" type="curve"/>
      <point x="402" y="637" type="line"/>
      <point x="439" y="559"/>
      <point x="473" y="455"/>
      <point x="484" y="387" type="curve"/>
      <point x="513" y="395" type="line"/>
      <point x="502" y="463"/>
      <point x="466" y="566"/>
    </contour>
    <contour>
      <point x="329" y="218" type="line"/>
      <point x="329" y="721" type="line"/>
      <point x="100" y="721" type="line"/>
      <point x="100" y="692" type="line"/>
      <point x="300" y="692" type="line"/>
      <point x="300" y="247" type="line"/>
      <point x="100" y="247" type="line"/>
      <point x="100" y="218" type="line"/>
    </contour>
    <contour>
      <point x="114" y="113" type="line"/>
      <point x="114" y="721" type="line"/>
      <point x="84" y="721" type="line"/>
      <point x="84" y="113" type="line"/>
    </contour>
  </outline>
</glyph>
<glyph name="uni548C" format="2">
  <advance width="1000" height="1000"/>
  <unicode hex="548C"/>
  <note>
cid12168
</note>
  <outline>
    <contour>
      <point x="894" y="41" type="line"/>
      <point x="894" y="70" type="line"/>
      <point x="552" y="70" type="line"/>
      <point x="552" y="41" type="line"/>
    </contour>
    <contour>
      <point x="904" y="-38" type="line"/>
      <point x="904" y="723" type="line"/>
      <point x="540" y="723" type="line"/>
      <point x="540" y="-45" type="line"/>
      <point x="569" y="-45" type="line"/>
      <point x="569" y="694" type="line"/>
      <point x="875" y="694" type="line"/>
      <point x="875" y="-38" type="line"/>
    </contour>
    <contour>
      <point x="304" y="-70" type="line"/>
      <point x="304" y="759" type="line"/>
      <point x="275" y="759" type="line"/>
      <point x="275" y="-70" type="line"/>
    </contour>
    <contour>
      <point x="493" y="508" type="line"/>
      <point x="493" y="537" type="line"/>
      <point x="57" y="537" type="line"/>
      <point x="57" y="508" type="line"/>
    </contour>
    <contour>
      <point x="302" y="519" type="curve"/>
      <point x="276" y="529" type="line"/>
      <point x="229" y="385"/>
      <point x="123" y="214"/>
      <point x="37" y="131" type="curve"/>
      <point x="44" y="125"/>
      <point x="54" y="113"/>
      <point x="59" y="105" type="curve"/>
      <point x="146" y="194"/>
      <point x="252" y="372"/>
    </contour>
    <contour>
      <point x="475" y="800" type="curve"/>
      <point x="447" y="821" type="line"/>
      <point x="365" y="782"/>
      <point x="197" y="749"/>
      <point x="60" y="727" type="curve"/>
      <point x="65" y="720"/>
      <point x="69" y="711"/>
      <point x="71" y="704" type="curve"/>
      <point x="211" y="724"/>
      <point x="378" y="758"/>
    </contour>
    <contour>
      <point x="300" y="428" type="curve"/>
      <point x="280" y="412" type="line"/>
      <point x="318" y="380"/>
      <point x="429" y="267"/>
      <point x="460" y="230" type="curve"/>
      <point x="482" y="253" type="line"/>
      <point x="455" y="283"/>
      <point x="333" y="399"/>
    </contour>
  </outline>
</glyph>
<glyph name="uni5495" format="2">
  <advance width="1000" height="1000"/>
  <unicode hex="5495"/>
  <note>
cid12181
</note>
  <outline>
    <contour>
      <point x="337" y="199" type="line"/>
      <point x="337" y="715" type="line"/>
      <point x="98" y="715" type="line"/>
      <point x="98" y="685" type="line"/>
      <point x="308" y="685" type="line"/>
      <point x="308" y="229" type="line"/>
      <point x="98" y="229" type="line"/>
      <point x="98" y="199" type="line"/>
    </contour>
    <contour>
      <point x="112" y="106" type="line"/>
      <point x="112" y="715" type="line"/>
      <point x="83" y="715" type="line"/>
      <point x="83" y="106" type="line"/>
    </contour>
    <contour>
      <point x="662" y="315" type="line"/>
      <point x="662" y="831" type="line"/>
      <point x="633" y="831" type="line"/>
      <point x="633" y="315" type="line"/>
    </contour>
    <contour>
      <point x="950" y="569" type="line"/>
      <point x="950" y="598" type="line"/>
      <point x="361" y="598" type="line"/>
      <point x="361" y="569" type="line"/>
    </contour>
    <contour>
      <point x="861" y="-16" type="line"/>
      <point x="861" y="14" type="line"/>
      <point x="449" y="14" type="line"/>
      <point x="449" y="-16" type="line"/>
    </contour>
    <contour>
      <point x="875" y="-63" type="line"/>
      <point x="875" y="327" type="line"/>
      <point x="434" y="327" type="line"/>
      <point x="434" y="-70" type="line"/>
      <point x="463" y="-70" type="line"/>
      <point x="463" y="298" type="line"/>
      <point x="845" y="298" type="line"/>
      <point x="845" y="-63" type="line"/>
    </contour>
  </outline>
</glyph>
<glyph name="uni5496" format="2">
  <advance width="1000" height="1000"/>
  <unicode hex="5496"/>
  <note>
cid12182
</note>
  <outline>
    <contour>
      <point x="608" y="592" type="line"/>
      <point x="608" y="621" type="line"/>
      <point x="332" y="621" type="line"/>
      <point x="332" y="592" type="line"/>
    </contour>
    <contour>
      <point x="902" y="55" type="line"/>
      <point x="902" y="84" type="line"/>
      <point x="694" y="84" type="line"/>
      <point x="694" y="55" type="line"/>
    </contour>
    <contour>
      <point x="916" y="-27" type="line"/>
      <point x="916" y="709" type="line"/>
      <point x="681" y="709" type="line"/>
      <point x="681" y="-35" type="line"/>
      <point x="711" y="-35" type="line"/>
      <point x="711" y="679" type="line"/>
      <point x="886" y="679" type="line"/>
      <point x="886" y="-27" type="line"/>
    </contour>
    <contour>
      <point x="628" y="621" type="curve"/>
      <point x="599" y="621" type="line"/>
      <point x="599" y="613" type="line"/>
      <point x="585" y="173"/>
      <point x="571" y="23"/>
      <point x="545" y="-11" type="curve" smooth="yes"/>
      <point x="537" y="-22"/>
      <point x="529" y="-24"/>
      <point x="516" y="-24" type="curve" smooth="yes"/>
      <point x="501" y="-24"/>
      <point x="467" y="-23"/>
      <point x="427" y="-21" type="curve"/>
      <point x="432" y="-29"/>
      <point x="435" y="-42"/>
      <point x="435" y="-51" type="curve"/>
      <point x="467" y="-54"/>
      <point x="499" y="-54"/>
      <point x="520" y="-54" type="curve" smooth="yes"/>
      <point x="542" y="-53"/>
      <point x="558" y="-47"/>
      <point x="571" y="-28" type="curve" smooth="yes"/>
      <point x="602" y="13"/>
      <point x="614" y="144"/>
      <point x="628" y="599" type="curve"/>
      <point x="628" y="605"/>
      <point x="628" y="621"/>
    </contour>
    <contour>
      <point x="463" y="828" type="curve"/>
      <point x="434" y="828" type="line"/>
      <point x="433" y="456"/>
      <point x="431" y="115"/>
      <point x="244" y="-54" type="curve"/>
      <point x="253" y="-58"/>
      <point x="265" y="-66"/>
      <point x="271" y="-71" type="curve"/>
      <point x="461" y="108"/>
      <point x="461" y="445"/>
    </contour>
    <contour>
      <point x="299" y="217" type="line"/>
      <point x="299" y="720" type="line"/>
      <point x="98" y="720" type="line"/>
      <point x="98" y="691" type="line"/>
      <point x="270" y="691" type="line"/>
      <point x="270" y="246" type="line"/>
      <point x="98" y="246" type="line"/>
      <point x="98" y="217" type="line"/>
    </contour>
    <contour>
      <point x="113" y="133" type="line"/>
      <point x="113" y="720" type="line"/>
      <point x="84" y="720" type="line"/>
      <point x="84" y="133" type="line"/>
    </contour>
  </outline>
</glyph>
<glyph name="uni54B1" format="2">
  <advance width="1000" height="1000"/>
  <unicode hex="54B1"/>
  <note>
cid12223
</note>
  <outline>
    <contour>
      <point x="892" y="430" type="line"/>
      <point x="892" y="460" type="line"/>
      <point x="441" y="460" type="line"/>
      <point x="441" y="430" type="line"/>
    </contour>
    <contour>
      <point x="892" y="215" type="line"/>
      <point x="892" y="244" type="line"/>
      <point x="441" y="244" type="line"/>
      <point x="441" y="215" type="line"/>
    </contour>
    <contour>
      <point x="891" y="-8" type="line"/>
      <point x="891" y="21" type="line"/>
      <point x="440" y="21" type="line"/>
      <point x="440" y="-8" type="line"/>
    </contour>
    <contour>
      <point x="903" y="-69" type="line"/>
      <point x="903" y="671" type="line"/>
      <point x="425" y="671" type="line"/>
      <point x="425" y="-69" type="line"/>
      <point x="454" y="-69" type="line"/>
      <point x="454" y="642" type="line"/>
      <point x="873" y="642" type="line"/>
      <point x="873" y="-69" type="line"/>
    </contour>
    <contour>
      <point x="682" y="825" type="curve"/>
      <point x="653" y="833" type="line"/>
      <point x="637" y="784"/>
      <point x="608" y="707"/>
      <point x="583" y="661" type="curve"/>
      <point x="609" y="653" type="line"/>
      <point x="633" y="699"/>
      <point x="660" y="767"/>
    </contour>
    <contour>
      <point x="337" y="199" type="line"/>
      <point x="337" y="715" type="line"/>
      <point x="98" y="715" type="line"/>
      <point x="98" y="685" type="line"/>
      <point x="308" y="685" type="line"/>
      <point x="308" y="229" type="line"/>
      <point x="98" y="229" type="line"/>
      <point x="98" y="199" type="line"/>
    </contour>
    <contour>
      <point x="112" y="106" type="line"/>
      <point x="112" y="715" type="line"/>
      <point x="83" y="715" type="line"/>
      <point x="83" y="106" type="line"/>
    </contour>
  </outline>
</glyph>
<glyph name="uni54C1" format="2">
  <advance width="1000" height="1000"/>
  <unicode hex="54C1"/>
  <note>
cid12248
</note>
  <outline>
    <contour>
      <point x="726" y="503" type="line"/>
      <point x="279" y="503" type="line"/>
      <point x="279" y="766" type="line"/>
      <point x="726" y="766" type="line"/>
    </contour>
    <contour>
      <point x="756" y="473" type="line"/>
      <point x="756" y="795" type="line"/>
      <point x="249" y="795" type="line"/>
      <point x="249" y="473" type="line"/>
    </contour>
    <contour>
      <point x="436" y="-59" type="line"/>
      <point x="436" y="352" type="line"/>
      <point x="96" y="352" type="line"/>
      <point x="96" y="-70" type="line"/>
      <point x="126" y="-70" type="line"/>
      <point x="126" y="323" type="line"/>
      <point x="406" y="323" type="line"/>
      <point x="406" y="-59" type="line"/>
    </contour>
    <contour>
      <point x="912" y="-63" type="line"/>
      <point x="912" y="352" type="line"/>
      <point x="560" y="352" type="line"/>
      <point x="560" y="-70" type="line"/>
      <point x="589" y="-70" type="line"/>
      <point x="589" y="323" type="line"/>
      <point x="882" y="323" type="line"/>
      <point x="882" y="-63" type="line"/>
    </contour>
    <contour>
      <point x="417" y="-12" type="line"/>
      <point x="417" y="18" type="line"/>
      <point x="111" y="18" type="line"/>
      <point x="111" y="-12" type="line"/>
    </contour>
    <contour>
      <point x="892" y="-12" type="line"/>
      <point x="892" y="18" type="line"/>
      <point x="578" y="18" type="line"/>
      <point x="578" y="-12" type="line"/>
    </contour>
  </outline>
</glyph>
<glyph name="uni54C4" format="2">
  <advance width="1000" height="1000"/>
  <unicode hex="54C4"/>
  <note>
cid12251
</note>
  <outline>
    <contour>
      <point x="934" y="569" type="line"/>
      <point x="934" y="598" type="line"/>
      <point x="374" y="598" type="line"/>
      <point x="374" y="569" type="line"/>
    </contour>
    <contour>
      <point x="953" y="240" type="line"/>
      <point x="953" y="270" type="line"/>
      <point x="352" y="270" type="line"/>
      <point x="352" y="240" type="line"/>
    </contour>
    <contour>
      <point x="527" y="256" type="line"/>
      <point x="527" y="817" type="line"/>
      <point x="498" y="817" type="line"/>
      <point x="498" y="256" type="line"/>
    </contour>
    <contour>
      <point x="796" y="256" type="line"/>
      <point x="796" y="817" type="line"/>
      <point x="767" y="817" type="line"/>
      <point x="767" y="256" type="line"/>
    </contour>
    <contour>
      <point x="540" y="159" type="curve"/>
      <point x="512" y="167" type="line"/>
      <point x="468" y="82"/>
      <point x="394" y="2"/>
      <point x="319" y="-52" type="curve"/>
      <point x="327" y="-56"/>
      <point x="339" y="-65"/>
      <point x="344" y="-70" type="curve"/>
      <point x="417" y="-15"/>
      <point x="492" y="70"/>
    </contour>
    <contour>
      <point x="772" y="164" type="curve"/>
      <point x="749" y="150" type="line"/>
      <point x="816" y="83"/>
      <point x="889" y="-11"/>
      <point x="922" y="-72" type="curve"/>
      <point x="948" y="-56" type="line"/>
      <point x="915" y="5"/>
      <point x="841" y="97"/>
    </contour>
    <contour>
      <point x="319" y="201" type="line"/>
      <point x="319" y="723" type="line"/>
      <point x="100" y="723" type="line"/>
      <point x="100" y="694" type="line"/>
      <point x="289" y="694" type="line"/>
      <point x="289" y="230" type="line"/>
      <point x="100" y="230" type="line"/>
      <point x="100" y="201" type="line"/>
    </contour>
    <contour>
      <point x="112" y="115" type="line"/>
      <point x="112" y="723" type="line"/>
      <point x="83" y="723" type="line"/>
      <point x="83" y="115" type="line"/>
    </contour>
  </outline>
</glyph>
<glyph name="uni54C7" format="2">
  <advance width="1000" height="1000"/>
  <unicode hex="54C7"/>
  <note>
cid12255
</note>
  <outline>
    <contour>
      <point x="904" y="647" type="line"/>
      <point x="904" y="676" type="line"/>
      <point x="405" y="676" type="line"/>
      <point x="405" y="647" type="line"/>
    </contour>
    <contour>
      <point x="919" y="214" type="line"/>
      <point x="919" y="243" type="line"/>
      <point x="385" y="243" type="line"/>
      <point x="385" y="214" type="line"/>
    </contour>
    <contour>
      <point x="940" y="421" type="line"/>
      <point x="940" y="451" type="line"/>
      <point x="364" y="451" type="line"/>
      <point x="364" y="421" type="line"/>
    </contour>
    <contour>
      <point x="951" y="-27" type="line"/>
      <point x="951" y="2" type="line"/>
      <point x="302" y="2" type="line"/>
      <point x="302" y="-27" type="line"/>
    </contour>
    <contour>
      <point x="661" y="436" type="line"/>
      <point x="661" y="825" type="line"/>
      <point x="631" y="825" type="line"/>
      <point x="631" y="436" type="line"/>
    </contour>
    <contour>
      <point x="661" y="-20" type="line"/>
      <point x="661" y="401" type="line"/>
      <point x="631" y="401" type="line"/>
      <point x="631" y="-20" type="line"/>
    </contour>
    <contour>
      <point x="345" y="218" type="line"/>
      <point x="345" y="721" type="line"/>
      <point x="100" y="721" type="line"/>
      <point x="100" y="692" type="line"/>
      <point x="316" y="692" type="line"/>
      <point x="316" y="247" type="line"/>
      <point x="100" y="247" type="line"/>
      <point x="100" y="218" type="line"/>
    </contour>
    <contour>
      <point x="112" y="113" type="line"/>
      <point x="112" y="721" type="line"/>
      <point x="83" y="721" type="line"/>
      <point x="83" y="113" type="line"/>
    </contour>
  </outline>
</glyph>
<glyph name="uni54CE" format="2">
  <advance width="1000" height="1000"/>
  <unicode hex="54CE"/>
  <note>
cid12263
</note>
  <outline>
    <contour>
      <point x="310" y="231" type="line"/>
      <point x="310" y="723" type="line"/>
      <point x="100" y="723" type="line"/>
      <point x="100" y="694" type="line"/>
      <point x="280" y="694" type="line"/>
      <point x="280" y="261" type="line"/>
      <point x="100" y="261" type="line"/>
      <point x="100" y="231" type="line"/>
    </contour>
    <contour>
      <point x="112" y="132" type="line"/>
      <point x="112" y="723" type="line"/>
      <point x="83" y="723" type="line"/>
      <point x="83" y="132" type="line"/>
    </contour>
    <contour>
      <point x="831" y="516" type="curve"/>
      <point x="803" y="523" type="line"/>
      <point x="727" y="220"/>
      <point x="567" y="48"/>
      <point x="282" y="-45" type="curve"/>
      <point x="288" y="-52"/>
      <point x="298" y="-65"/>
      <point x="301" y="-71" type="curve"/>
      <point x="587" y="33"/>
      <point x="752" y="202"/>
    </contour>
    <contour>
      <point x="462" y="520" type="curve"/>
      <point x="436" y="513" type="line"/>
      <point x="512" y="216"/>
      <point x="673" y="11"/>
      <point x="945" y="-70" type="curve"/>
      <point x="950" y="-62"/>
      <point x="958" y="-52"/>
      <point x="965" y="-46" type="curve"/>
      <point x="693" y="29"/>
      <point x="533" y="232"/>
    </contour>
    <contour>
      <point x="952" y="673" type="line"/>
      <point x="952" y="703" type="line"/>
      <point x="342" y="703" type="line"/>
      <point x="342" y="673" type="line"/>
    </contour>
    <contour>
      <point x="536" y="548" type="line"/>
      <point x="536" y="830" type="line"/>
      <point x="507" y="830" type="line"/>
      <point x="507" y="548" type="line"/>
    </contour>
    <contour>
      <point x="767" y="548" type="line"/>
      <point x="767" y="830" type="line"/>
      <point x="737" y="830" type="line"/>
      <point x="737" y="548" type="line"/>
    </contour>
  </outline>
</glyph>
<glyph name="uni54E6" format="2">
  <advance width="1000" height="1000"/>
  <unicode hex="54E6"/>
  <note>
cid12292
</note>
  <outline>
    <contour>
      <point x="950" y="496" type="line"/>
      <point x="950" y="525" type="line"/>
      <point x="315" y="525" type="line"/>
      <point x="315" y="496" type="line"/>
    </contour>
    <contour>
      <point x="306" y="235" type="curve"/>
      <point x="316" y="206" type="line"/>
      <point x="408" y="230"/>
      <point x="535" y="266"/>
      <point x="658" y="300" type="curve"/>
      <point x="655" y="327" type="line"/>
      <point x="525" y="292"/>
      <point x="393" y="257"/>
    </contour>
    <contour>
      <point x="911" y="442" type="curve"/>
      <point x="882" y="450" type="line"/>
      <point x="812" y="250"/>
      <point x="693" y="77"/>
      <point x="544" y="-32" type="curve"/>
      <point x="552" y="-38"/>
      <point x="564" y="-49"/>
      <point x="569" y="-54" type="curve"/>
      <point x="716" y="62"/>
      <point x="835" y="234"/>
    </contour>
    <contour>
      <point x="645" y="793" type="curve"/>
      <point x="616" y="814" type="line"/>
      <point x="553" y="771"/>
      <point x="425" y="732"/>
      <point x="315" y="706" type="curve"/>
      <point x="320" y="699"/>
      <point x="325" y="689"/>
      <point x="327" y="682" type="curve"/>
      <point x="439" y="709"/>
      <point x="569" y="747"/>
    </contour>
    <contour>
      <point x="502" y="-17" type="curve" smooth="yes"/>
      <point x="502" y="740" type="line"/>
      <point x="473" y="740" type="line"/>
      <point x="473" y="-18" type="line" smooth="yes"/>
      <point x="473" y="-34"/>
      <point x="468" y="-38"/>
      <point x="453" y="-39" type="curve" smooth="yes"/>
      <point x="437" y="-40"/>
      <point x="385" y="-40"/>
      <point x="325" y="-39" type="curve"/>
      <point x="329" y="-49"/>
      <point x="335" y="-63"/>
      <point x="337" y="-70" type="curve"/>
      <point x="407" y="-70"/>
      <point x="450" y="-70"/>
      <point x="472" y="-65" type="curve" smooth="yes"/>
      <point x="492" y="-59"/>
      <point x="502" y="-48"/>
    </contour>
    <contour>
      <point x="718" y="831" type="curve"/>
      <point x="687" y="831" type="line"/>
      <point x="692" y="297"/>
      <point x="737" y="-71"/>
      <point x="884" y="-72" type="curve" smooth="yes"/>
      <point x="935" y="-72"/>
      <point x="949" y="-23"/>
      <point x="956" y="119" type="curve"/>
      <point x="948" y="121"/>
      <point x="935" y="127"/>
      <point x="928" y="132" type="curve"/>
      <point x="923" y="6"/>
      <point x="913" y="-41"/>
      <point x="886" y="-42" type="curve" smooth="yes"/>
      <point x="773" y="-42"/>
      <point x="717" y="282"/>
    </contour>
    <contour>
      <point x="804" y="807" type="curve"/>
      <point x="780" y="793" type="line"/>
      <point x="831" y="746"/>
      <point x="893" y="680"/>
      <point x="922" y="639" type="curve"/>
      <point x="947" y="657" type="line"/>
      <point x="917" y="697"/>
      <point x="855" y="761"/>
    </contour>
    <contour>
      <point x="295" y="216" type="line"/>
      <point x="295" y="720" type="line"/>
      <point x="100" y="720" type="line"/>
      <point x="100" y="691" type="line"/>
      <point x="266" y="691" type="line"/>
      <point x="266" y="245" type="line"/>
      <point x="100" y="245" type="line"/>
      <point x="100" y="216" type="line"/>
    </contour>
    <contour>
      <point x="115" y="133" type="line"/>
      <point x="115" y="720" type="line"/>
      <point x="85" y="720" type="line"/>
      <point x="85" y="133" type="line"/>
    </contour>
  </outline>
</glyph>
